<svg enable-background="new 0 0 313 142" viewBox="42.875 43.01900101 227.00006104 59.50400162" xmlns="http://www.w3.org/2000/svg" xmlns:xlink="http://www.w3.org/1999/xlink"><clipPath id="a"><path d="m42.875 43.018h40.251v43.367h-40.251z"/></clipPath><clipPath id="b"><path d="m89.875 47.917h180v24.581h-180z"/></clipPath><clipPath id="c"><path d="m0 0h313v142h-313z"/></clipPath><g fill="#002361"><path clip-path="url(#a)" d="m63.878 86.038c1.061-.586 2.34-1.393 3.725-2.438v-12.533l-3.725-2.478z"/><path clip-path="url(#a)" d="m63.878 59.912 3.725 2.48v-6.333c-1.24-.058-2.482-.091-3.725-.101z"/><path clip-path="url(#a)" d="m75.056 56.717c-1.238-.159-2.48-.288-3.727-.397v8.551l3.727 2.481z"/><path clip-path="url(#a)" d="m71.329 73.548v6.816c1.253-1.246 2.515-2.687 3.727-4.326v-.011z"/><path clip-path="url(#a)" d="m75.056 76.038c.002-.002.003-.004.005-.01l-.005-.002z"/><path clip-path="url(#a)" d="m78.778 57.279v12.552l.011.006c1.625-3.366 2.936-7.294 3.674-11.862l-.127-.025c-1.178-.247-2.366-.468-3.558-.671"/><path clip-path="url(#a)" d="m67.605 62.394v8.675l3.725 2.478v-8.675z"/><path clip-path="url(#a)" d="m75.056 67.352v8.674l.005.002c1.332-1.801 2.598-3.854 3.717-6.172v-.025z"/><path clip-path="url(#a)" d="m78.778 69.856c.005-.006.008-.014.011-.02l-.011-.005z"/><path clip-path="url(#a)" d="m55.704 71.634c1.1-.305 2.067-.918 2.807-1.746-.406-.147-.88-.293-1.428-.414-.405.9-.915 1.619-1.379 2.16"/><path clip-path="url(#a)" d="m49.793 69.89c.74.828 1.71 1.443 2.811 1.746-.464-.543-.975-1.262-1.381-2.164-.549.123-1.023.27-1.43.418"/><path clip-path="url(#a)" d="m53.612 60.853c-.405.445-.879 1.072-1.274 1.864.399.053.823.09 1.274.106z"/><path clip-path="url(#a)" d="m57.459 68.458c.672.158 1.245.346 1.712.531.438-.732.724-1.56.806-2.453h-2.173c-.044.695-.167 1.338-.345 1.922"/><path clip-path="url(#a)" d="m52.604 60.362c-1.101.303-2.07.919-2.811 1.747.408.147.881.293 1.43.415.406-.9.917-1.62 1.381-2.162"/><path clip-path="url(#a)" d="m58.511 62.109c-.739-.827-1.707-1.442-2.807-1.745.464.542.976 1.262 1.38 2.16.548-.122 1.022-.269 1.427-.415"/><path clip-path="url(#a)" d="m57.804 65.462h2.173c-.082-.892-.367-1.722-.806-2.453-.467.184-1.039.372-1.712.53.178.585.301 1.227.345 1.923"/><path clip-path="url(#a)" d="m54.688 71.149c.406-.445.885-1.072 1.282-1.869-.401-.053-.829-.09-1.282-.108z"/><path clip-path="url(#a)" d="m53.612 66.536h-2.033c.047.623.169 1.195.34 1.717.52-.08 1.085-.133 1.693-.155z"/><path clip-path="url(#a)" d="m54.688 68.098c.61.021 1.179.074 1.701.154.17-.521.293-1.093.339-1.716h-2.04z"/><path clip-path="url(#a)" d="m55.974 62.717c-.397-.801-.878-1.432-1.286-1.875v1.98c.455-.014.885-.051 1.286-.105"/><path clip-path="url(#a)" d="m56.728 65.462c-.046-.624-.167-1.197-.337-1.718-.523.079-1.092.134-1.703.156v1.562z"/><path clip-path="url(#a)" d="m52.338 69.28c.396.789.869 1.416 1.274 1.863v-1.97c-.451.019-.875.054-1.274.107"/><path clip-path="url(#a)" d="m50.848 63.539c-.675-.158-1.247-.346-1.717-.53-.435.731-.721 1.561-.804 2.453h2.176c.044-.696.167-1.338.345-1.923"/><path clip-path="url(#a)" d="m53.612 63.899c-.608-.021-1.173-.076-1.693-.155-.171.521-.293 1.093-.34 1.717h2.033z"/><path clip-path="url(#a)" d="m50.503 66.536h-2.176c.083.893.368 1.721.804 2.453.47-.185 1.042-.373 1.717-.533-.178-.582-.301-1.225-.345-1.92"/><path clip-path="url(#a)" d="m43.537 57.982c2.735 16.902 13.316 25.15 18.586 28.056v-30.08c-6.229.058-12.435.725-18.457 1.996zm10.614 1.09c3.82 0 6.928 3.107 6.928 6.927 0 3.816-3.108 6.926-6.928 6.926-3.819 0-6.926-3.11-6.926-6.926-.001-3.82 3.107-6.927 6.926-6.927"/><path clip-path="url(#a)" d="m82.323 45.061-.014-.007c-6.229-1.329-12.687-2.035-19.309-2.035-6.632 0-13.098.708-19.332 2.042l-.027.007c-.44.109-.766.506-.766.981l.002 3.494c0 2.295.139 4.461.39 6.515 6.474-1.37 13.113-2.054 19.751-2.054 6.63 0 13.259.684 19.718 2.048.248-2.05.388-4.216.388-6.509l.001-3.494c-0-.487-.344-.894-.802-.988m-4.352 8.648c-4.845-.92-10.411-1.202-14.969-1.202h-.004c-4.558 0-10.125.282-14.968 1.202-.183.037-.345-.13-.244-.324l3.187-7.036c.032-.065 2.091-1.084 2.091-1.084 2.617-.55 6.925-.308 9.931.798h.011c3.006-1.106 7.313-1.348 9.93-.798 0 0 2.058 1.019 2.091 1.084l3.185 7.036c.103.194-.058.361-.241.324"/><path clip-path="url(#a)" d="m72.107 46.471 1.34 3.588c-3.122-.429-5.709-.234-9.528 1.017v.336c3.609-.136 8.173-.337 11.863.456l-2.011-4.625z"/><path clip-path="url(#a)" d="m52.511 50.059 1.34-3.588-1.663.773-2.011 4.625c3.688-.794 8.253-.593 11.861-.456v-.336c-3.818-1.252-6.406-1.447-9.527-1.018"/><path clip-path="url(#b)" d="m95.023 52.328c0-3.159-.283-3.5-1.963-3.643l-.71-.056c-.171-.114-.114-.626.057-.711 1.649.056 2.616.085 3.811.085 1.139 0 2.106-.029 3.243-.085.171.085.229.597.058.711l-.427.056c-1.678.229-1.735.625-1.735 3.643v10.555c0 2.246-.115 4.209-.654 5.517-.94 2.278-2.959 4.098-5.606 4.098-.34 0-1.222-.029-1.222-.598 0-.484.425-1.31 1.023-1.31.342 0 .684.056 1.054.172.398.113.796.199 1.194.199.598 0 .94-.342 1.139-.74.654-1.338.738-5.604.738-7.141z"/><path clip-path="url(#b)" d="m99.459 59.027c0-4.799 3.601-8.472 8.544-8.472 5.544 0 8.328 4.008 8.328 8.232 0 4.848-3.695 8.375-8.328 8.375-5.328 0-8.544-3.815-8.544-8.135m14.472.504c0-3.959-1.752-8.232-6.336-8.232-2.496 0-5.735 1.705-5.735 6.961 0 3.55 1.727 8.16 6.456 8.16 2.88 0 5.615-2.16 5.615-6.889"/><path clip-path="url(#b)" d="m121.783 59.027c-1.151 0-1.2.049-1.2.77v3.382c0 2.52.12 2.856 1.463 3l.697.073c.144.095.096.527-.048.599-1.296-.049-2.112-.072-3.049-.072-1.031 0-1.848.049-2.784.072-.143-.072-.191-.457-.047-.599l.408-.073c1.343-.24 1.392-.48 1.392-3v-8.64c0-2.52-.168-2.927-1.416-3.024l-.624-.048c-.145-.096-.096-.528.047-.6 1.176.023 1.993.072 3.024.072.937 0 1.753-.023 2.784-.072.145.072.194.504.048.6l-.456.048c-1.39.144-1.439.504-1.439 3.024v2.761c0 .743.049.768 1.2.768h6.864c1.152 0 1.199-.025 1.199-.768v-2.761c0-2.52-.047-2.88-1.463-3.024l-.456-.048c-.144-.096-.096-.528.048-.6 1.104.049 1.919.072 2.903.072.937 0 1.753-.023 2.833-.072.143.072.192.504.048.6l-.504.048c-1.392.144-1.44.504-1.44 3.024v8.64c0 2.52.048 2.832 1.44 3l.576.073c.143.095.096.527-.049.599-1.151-.049-1.967-.072-2.904-.072-.984 0-1.847.023-2.903.072-.144-.072-.192-.457-.048-.599l.456-.073c1.463-.24 1.463-.48 1.463-3v-3.382c0-.721-.047-.77-1.199-.77z"/><path clip-path="url(#b)" d="m150.224 62.699c0 .721 0 3.576.072 4.199-.047.145-.191.264-.455.264-.289-.406-.984-1.246-3.072-3.623l-5.568-6.336c-.649-.744-2.28-2.712-2.784-3.238h-.048c-.096.287-.12.838-.12 1.558v5.233c0 1.127.024 4.248.432 4.966.145.266.624.409 1.224.457l.743.073c.145.191.121.48-.047.599-1.08-.048-1.92-.072-2.808-.072-1.008 0-1.657.024-2.497.072-.167-.119-.191-.457-.047-.599l.648-.073c.552-.072.936-.216 1.056-.48.335-.863.312-3.791.312-4.943v-6.936c0-.673-.023-1.178-.528-1.728-.336-.336-.911-.505-1.488-.577l-.409-.047c-.143-.144-.143-.503.049-.601 1.008.072 2.28.072 2.712.072.384 0 .792-.023 1.103-.072.481 1.225 3.313 4.393 4.105 5.281l2.327 2.615c1.656 1.848 2.832 3.192 3.961 4.344h.047c.097-.119.097-.504.097-1.008v-5.136c0-1.128-.025-4.247-.48-4.968-.144-.216-.529-.36-1.488-.48l-.408-.047c-.168-.144-.145-.529.047-.601 1.105.049 1.921.072 2.833.072 1.032 0 1.655-.023 2.471-.072.192.121.192.457.049.601l-.336.047c-.768.12-1.249.313-1.345.504-.407.864-.36 3.84-.36 4.944z"/><path clip-path="url(#b)" d="m156.567 67.162c-2.016 0-3.287-.623-3.744-.887-.287-.529-.6-2.232-.649-3.359.122-.17.481-.217.577-.072.36 1.222 1.343 3.576 4.128 3.576 2.016 0 3.001-1.321 3.001-2.76 0-1.057-.216-2.232-1.969-3.361l-2.28-1.489c-1.199-.791-2.591-2.16-2.591-4.127 0-2.28 1.775-4.127 4.895-4.127.744 0 1.609.144 2.233.311.311.098.647.145.838.145.216.575.433 1.92.433 2.927-.096.145-.48.216-.601.073-.311-1.153-.958-2.713-3.263-2.713-2.352 0-2.856 1.56-2.856 2.666 0 1.39 1.153 2.398 2.04 2.951l1.92 1.199c1.513.936 3 2.328 3 4.608 0 2.64-1.992 4.439-5.112 4.439"/><path clip-path="url(#b)" d="m175.924 57.592c-1.365 0-1.422.055-1.422.908v4.012c0 2.986.142 3.385 1.735 3.557l.826.086c.17.113.114.625-.058.708-1.536-.056-2.503-.083-3.612-.083-1.224 0-2.192.056-3.301.083-.171-.083-.228-.539-.057-.708l.484-.086c1.592-.286 1.65-.571 1.65-3.557v-10.242c0-2.987-.199-3.471-1.678-3.584l-.74-.057c-.171-.113-.114-.626.057-.711 1.393.028 2.361.085 3.585.085 1.109 0 2.076-.028 3.3-.085.17.085.227.598.055.711l-.54.057c-1.649.172-1.706.597-1.706 3.584v3.272c0 .882.057.909 1.422.909h8.137c1.365 0 1.422-.027 1.422-.909v-3.272c0-2.987-.057-3.412-1.736-3.584l-.541-.057c-.17-.113-.113-.626.058-.711 1.307.057 2.276.085 3.442.085 1.11 0 2.077-.028 3.358-.085.17.085.227.598.055.711l-.596.057c-1.65.172-1.707.597-1.707 3.584v10.242c0 2.986.057 3.357 1.707 3.557l.682.086c.171.113.115.625-.057.708-1.365-.056-2.332-.083-3.442-.083-1.166 0-2.19.027-3.442.083-.171-.083-.228-.539-.058-.708l.541-.086c1.736-.286 1.736-.571 1.736-3.557v-4.012c0-.853-.057-.908-1.422-.908z"/><path clip-path="url(#b)" d="m190.025 59.027c0-4.799 3.602-8.472 8.544-8.472 5.545 0 8.328 4.008 8.328 8.232 0 4.848-3.695 8.375-8.328 8.375-5.327 0-8.544-3.815-8.544-8.135m14.472.504c0-3.959-1.751-8.232-6.336-8.232-2.495 0-5.735 1.705-5.735 6.961 0 3.55 1.728 8.16 6.456 8.16 2.881 0 5.615-2.16 5.615-6.889"/><path clip-path="url(#b)" d="m211.241 63.18c0 2.52.048 2.832 1.584 3l.648.072c.144.119.097.528-.048.6-1.368-.049-2.16-.072-3.12-.072-1.008 0-1.872.023-2.927.072-.145-.072-.193-.457-.048-.6l.504-.072c1.391-.191 1.439-.48 1.439-3v-8.855c0-2.041-.048-2.449-1.128-2.569l-.864-.097c-.168-.143-.144-.503.049-.599 1.271-.169 2.76-.193 4.751-.193 1.992 0 3.48.264 4.608.961 1.104.696 1.92 1.944 1.92 3.599 0 2.208-1.367 3.314-2.4 3.817-1.056.504-2.327.719-3.312.719-.168-.07-.168-.431-.024-.478 2.592-.481 3.528-1.946 3.528-4.033 0-2.329-1.368-3.839-3.863-3.839-1.273 0-1.297.094-1.297.864z"/><path clip-path="url(#b)" d="m221.227 54.539c0-2.52-.049-2.904-1.44-3.023l-.601-.048c-.144-.097-.095-.529.048-.601 1.176.049 1.944.072 3.023.072.937 0 1.753-.023 2.785-.072.144.072.193.504.047.601l-.455.048c-1.392.143-1.44.503-1.44 3.023v2.762c0 .455.048.91.313.91.215 0 .503-.143.671-.264.336-.287.96-.912 1.225-1.152l2.591-2.567c.456-.433 1.632-1.657 1.872-1.992.121-.169.169-.289.169-.385 0-.095-.096-.167-.409-.239l-.648-.144c-.168-.169-.144-.48.048-.601.84.049 1.8.072 2.64.072s1.656-.023 2.375-.072c.169.121.193.457.049.601-.624.048-1.559.288-2.231.672-.672.383-2.018 1.511-3.361 2.784l-2.16 2.039c-.336.338-.552.553-.552.744 0 .17.144.361.456.744 2.28 2.615 4.128 4.776 6.001 6.744.576.576 1.012.889 1.828.985l.463.072c.169.119.12.527-.049.6-.624-.049-1.282-.073-2.41-.073-.984 0-1.826.024-2.929.073-.168-.049-.239-.458-.096-.6l.552-.098c.337-.047.576-.119.576-.238 0-.145-.168-.336-.337-.553-.456-.576-1.079-1.224-1.991-2.256l-1.92-2.16c-1.368-1.535-1.752-2.015-2.328-2.015-.36 0-.408.312-.408 1.152v3.096c0 2.519.048 2.855 1.392 3l.649.072c.142.096.096.527-.049.6-1.176-.049-1.992-.073-2.929-.073-.983 0-1.799.024-2.783.073-.143-.073-.192-.432-.048-.6l.481-.072c1.271-.192 1.32-.481 1.32-3z"/><path clip-path="url(#b)" d="m237.7 54.588c0-2.544-.048-2.953-1.465-3.072l-.598-.048c-.145-.097-.097-.528.046-.601 1.201.049 2.017.073 3.025.073.96 0 1.776-.024 2.975-.073.145.073.193.504.049.601l-.6.048c-1.416.119-1.464.528-1.464 3.072v8.543c0 2.545.048 2.881 1.464 3.049l.6.072c.144.096.096.527-.049.6-1.199-.049-2.015-.073-2.975-.073-1.008 0-1.733.024-2.932.073-.144-.073-.192-.457-.048-.6l.507-.072c1.417-.168 1.465-.504 1.465-3.049z"/><path clip-path="url(#b)" d="m258.46 62.699c0 .721 0 3.576.073 4.199-.048.145-.192.264-.456.264-.288-.406-.984-1.246-3.072-3.623l-5.568-6.336c-.648-.744-2.281-2.712-2.784-3.238h-.047c-.097.287-.122.838-.122 1.558v5.233c0 1.127.025 4.248.433 4.966.145.266.624.409 1.224.457l.744.073c.143.191.119.48-.048.599-1.08-.048-1.92-.072-2.808-.072-1.007 0-1.656.024-2.495.072-.169-.119-.193-.457-.049-.599l.649-.073c.551-.072.935-.216 1.055-.48.336-.863.312-3.791.312-4.943v-6.936c0-.673-.024-1.178-.528-1.728-.336-.336-.912-.505-1.488-.577l-.408-.047c-.144-.144-.144-.503.049-.601 1.008.072 2.279.072 2.711.072.384 0 .792-.023 1.104-.072.481 1.225 3.312 4.393 4.103 5.281l2.329 2.615c1.656 1.848 2.831 3.192 3.96 4.344h.048c.096-.119.096-.504.096-1.008v-5.136c0-1.128-.024-4.247-.48-4.968-.144-.216-.527-.36-1.487-.48l-.408-.047c-.169-.144-.145-.529.046-.601 1.105.049 1.92.072 2.833.072 1.033 0 1.656-.023 2.471-.072.193.121.193.457.049.601l-.336.047c-.768.12-1.248.313-1.345.504-.408.864-.36 3.84-.36 4.944z"/><path clip-path="url(#b)" d="m264.764 67.162c-2.017 0-3.288-.623-3.745-.887-.287-.529-.6-2.232-.649-3.359.122-.17.482-.217.577-.072.36 1.222 1.344 3.576 4.129 3.576 2.015 0 3-1.321 3-2.76 0-1.057-.217-2.232-1.969-3.361l-2.279-1.489c-1.201-.791-2.593-2.16-2.593-4.127 0-2.28 1.776-4.127 4.897-4.127.743 0 1.607.144 2.232.311.312.098.647.145.838.145.217.575.433 1.92.433 2.927-.097.145-.479.216-.6.073-.312-1.153-.959-2.713-3.263-2.713-2.353 0-2.857 1.56-2.857 2.666 0 1.39 1.153 2.398 2.039 2.951l1.921 1.199c1.512.936 3 2.328 3 4.608 0 2.64-1.992 4.439-5.111 4.439"/><path clip-path="url(#c)" d="m124.306 79.369c0-1.302-.024-1.501-.744-1.562l-.311-.026c-.074-.049-.049-.272.025-.309.608.024 1.006.037 1.563.037.484 0 .905-.013 1.44-.037.074.037.098.26.024.309l-.235.026c-.72.074-.745.26-.745 1.562v1.427c0 .236.025.471.162.471.111 0 .259-.074.347-.136.174-.149.496-.471.633-.596l1.34-1.327c.234-.223.843-.856.967-1.029.062-.087.087-.15.087-.199s-.05-.086-.211-.124l-.335-.075c-.087-.087-.074-.248.025-.309.434.024.93.037 1.364.037.435 0 .857-.013 1.228-.037.088.061.1.235.025.309-.322.026-.806.15-1.154.348-.347.198-1.041.781-1.736 1.439l-1.116 1.054c-.174.174-.287.286-.287.385 0 .087.076.186.237.385 1.178 1.352 2.134 2.468 3.101 3.486.297.297.571.459.993.508l.334.038c.087.061.062.272-.024.309-.322-.024-.807-.037-1.39-.037-.508 0-.942.013-1.513.037-.087-.024-.124-.235-.05-.309l.285-.05c.174-.025.299-.063.299-.124 0-.075-.088-.174-.174-.285-.236-.298-.558-.633-1.03-1.167l-.992-1.116c-.708-.794-.906-1.042-1.204-1.042-.186 0-.211.161-.211.595v1.601c0 1.302.025 1.475.72 1.55l.334.038c.075.049.05.272-.024.309-.609-.024-1.03-.037-1.514-.037-.509 0-.93.013-1.438.037-.074-.037-.1-.223-.026-.309l.248-.038c.659-.099.683-.248.683-1.55z"/><path clip-path="url(#c)" d="m133.294 79.382c0-1.179-.037-1.39-.544-1.452l-.398-.049c-.087-.062-.087-.261.013-.311.694-.062 1.551-.099 2.765-.099.77 0 1.502.062 2.073.372.595.311 1.029.869 1.029 1.737 0 1.179-.93 1.824-1.551 2.072-.061.074 0 .198.063.298.992 1.6 1.65 2.593 2.494 3.3.21.185.52.322.855.346.063.026.075.124.012.174-.111.037-.31.063-.545.063-1.055 0-1.687-.311-2.568-1.564-.323-.459-.831-1.314-1.216-1.873-.187-.273-.384-.397-.881-.397-.558 0-.583.012-.583.273v1.564c0 1.301.025 1.451.744 1.549l.261.039c.075.061.05.272-.024.309-.559-.024-.981-.037-1.477-.037-.522 0-.968.013-1.551.037-.074-.037-.099-.223-.025-.309l.31-.039c.72-.086.744-.248.744-1.549zm1.018 1.774c0 .223 0 .359.037.409.037.037.224.062.857.062.446 0 .918-.049 1.277-.323.335-.26.62-.694.62-1.538 0-.98-.607-1.91-1.984-1.91-.77 0-.807.049-.807.397z"/><path clip-path="url(#c)" d="m141.914 79.395c0-1.315-.025-1.526-.758-1.588l-.309-.025c-.075-.049-.05-.273.024-.31.621.025 1.043.037 1.564.037.496 0 .917-.012 1.538-.037.074.037.099.261.025.31l-.311.025c-.732.062-.756.273-.756 1.588v4.416c0 1.315.024 1.488.756 1.575l.311.038c.074.049.049.273-.025.31-.621-.025-1.042-.037-1.538-.037-.521 0-.943.012-1.564.037-.074-.037-.099-.235-.024-.31l.309-.038c.733-.087.758-.26.758-1.575z"/><path clip-path="url(#c)" d="m146.725 79.369c0-1.29-.025-1.475-.758-1.562l-.197-.026c-.075-.049-.051-.272.024-.309.534.024.955.037 1.464.037h2.332c.794 0 1.526 0 1.675-.037.074.211.149 1.103.198 1.649-.049.075-.248.1-.31.025-.186-.583-.297-1.017-.943-1.178-.26-.063-.657-.074-1.203-.074h-.893c-.372 0-.372.024-.372.496v2.48c0 .348.038.348.409.348h.72c.52 0 .905-.025 1.054-.074.15-.05.236-.125.298-.435l.1-.508c.061-.075.272-.075.322.012 0 .298-.05.782-.05 1.253 0 .447.05.918.05 1.191-.05.087-.261.087-.322.012l-.113-.484c-.049-.223-.135-.409-.383-.471-.174-.05-.473-.062-.956-.062h-.72c-.371 0-.409.012-.409.335v1.749c0 .658.038 1.079.235 1.29.149.149.41.285 1.502.285.955 0 1.314-.049 1.588-.185.222-.124.557-.559.881-1.204.086-.062.259-.025.309.087-.087.434-.397 1.389-.557 1.724-1.118-.024-2.221-.037-3.326-.037h-1.116c-.533 0-.955.013-1.687.037-.075-.037-.1-.235-.026-.309l.41-.038c.708-.062.77-.248.77-1.55z"/><path clip-path="url(#c)" d="m160.715 84.431c0 .496.074.794.297.881.037.037.037.112-.012.149-.148 0-.373.049-.607.112-.658.173-1.551.322-2.221.322-1.477 0-2.829-.409-3.784-1.377-.744-.744-1.142-1.725-1.142-2.816 0-1.054.348-2.122 1.117-2.94.831-.868 2.059-1.451 3.932-1.451.707 0 1.365.136 1.576.185.236.05.62.137.77.113 0 .409.074 1.053.185 1.799-.037.098-.26.111-.335.037-.346-1.34-1.278-1.762-2.543-1.762-2.407 0-3.462 1.712-3.462 3.572 0 2.382 1.229 4.255 3.723 4.255.769 0 1.228-.161 1.364-.372.062-.087.124-.31.124-.707v-.496c0-1.042-.037-1.116-.806-1.203l-.545-.063c-.1-.049-.088-.272 0-.309.359.024 1.041.037 1.773.037.485 0 .906-.013 1.315-.037.088.05.099.235.012.309l-.198.026c-.521.061-.533.409-.533 1.042z"/><path clip-path="url(#c)" d="m163.824 79.369c0-1.29-.025-1.475-.758-1.562l-.197-.026c-.075-.049-.051-.272.024-.309.534.024.955.037 1.464.037h2.332c.794 0 1.526 0 1.675-.037.074.211.149 1.103.198 1.649-.049.075-.248.1-.31.025-.186-.583-.297-1.017-.943-1.178-.26-.063-.657-.074-1.203-.074h-.893c-.372 0-.372.024-.372.496v2.48c0 .348.038.348.409.348h.72c.52 0 .905-.025 1.054-.074.15-.05.236-.125.298-.435l.1-.508c.061-.075.272-.075.322.012 0 .298-.05.782-.05 1.253 0 .447.05.918.05 1.191-.05.087-.261.087-.322.012l-.113-.484c-.049-.223-.135-.409-.383-.471-.174-.05-.473-.062-.956-.062h-.72c-.371 0-.409.012-.409.335v1.749c0 .658.038 1.079.235 1.29.149.149.41.285 1.502.285.955 0 1.314-.049 1.588-.185.222-.124.557-.559.881-1.204.086-.062.259-.025.309.087-.087.434-.397 1.389-.557 1.724-1.118-.024-2.221-.037-3.326-.037h-1.116c-.533 0-.955.013-1.687.037-.075-.037-.1-.235-.026-.309l.41-.038c.708-.062.77-.248.77-1.55z"/><path clip-path="url(#c)" d="m171.685 79.382c0-1.179-.037-1.39-.546-1.452l-.397-.049c-.086-.062-.086-.261.014-.311.693-.062 1.55-.099 2.765-.099.77 0 1.501.062 2.073.372.594.311 1.029.869 1.029 1.737 0 1.179-.931 1.824-1.551 2.072-.062.074 0 .198.063.298.992 1.6 1.649 2.593 2.493 3.3.211.185.52.322.856.346.062.026.074.124.012.174-.111.037-.311.063-.546.063-1.054 0-1.686-.311-2.567-1.564-.323-.459-.832-1.314-1.217-1.873-.186-.273-.384-.397-.881-.397-.558 0-.582.012-.582.273v1.564c0 1.301.024 1.451.744 1.549l.26.039c.075.061.051.272-.024.309-.558-.024-.98-.037-1.476-.037-.522 0-.969.013-1.551.037-.074-.037-.099-.223-.025-.309l.31-.039c.719-.086.744-.248.744-1.549zm1.018 1.774c0 .223 0 .359.037.409.037.037.223.062.856.062.447 0 .918-.049 1.277-.323.336-.26.621-.694.621-1.538 0-.98-.607-1.91-1.984-1.91-.77 0-.807.049-.807.397z"/><path clip-path="url(#c)" d="m185.215 85.895c-1.042 0-1.699-.322-1.936-.459-.148-.272-.31-1.153-.334-1.736.062-.087.249-.113.297-.037.187.632.696 1.847 2.134 1.847 1.042 0 1.551-.681 1.551-1.426 0-.545-.112-1.154-1.017-1.737l-1.179-.768c-.62-.411-1.34-1.118-1.34-2.134 0-1.179.918-2.134 2.531-2.134.385 0 .831.074 1.154.161.16.05.334.074.434.074.111.298.223.993.223 1.514-.049.074-.248.111-.31.037-.161-.596-.496-1.402-1.687-1.402-1.216 0-1.476.806-1.476 1.378 0 .718.596 1.24 1.055 1.525l.992.62c.781.485 1.551 1.203 1.551 2.382 0 1.365-1.03 2.295-2.643 2.295"/><path clip-path="url(#c)" d="m191.203 78.364c.906-.707 2.06-1.054 3.35-1.054.67 0 1.613.136 2.195.298.149.037.236.062.348.049.011.286.074 1.067.173 1.824-.062.087-.248.099-.334.025-.187-.844-.746-1.812-2.544-1.812-1.898 0-3.51 1.204-3.51 3.772 0 2.605 1.65 4.043 3.683 4.043 1.602 0 2.309-1.041 2.594-1.773.086-.063.273-.037.322.05-.086.644-.41 1.464-.595 1.699-.149.024-.298.074-.434.124-.273.1-1.166.285-1.961.285-1.116 0-2.183-.222-3.088-.831-.993-.682-1.761-1.811-1.761-3.411 0-1.377.619-2.556 1.562-3.288"/><path clip-path="url(#c)" d="m201.57 81.689c-.596 0-.621.024-.621.396v1.75c0 1.302.062 1.476.758 1.55l.359.038c.074.049.05.273-.025.31-.67-.024-1.092-.037-1.576-.037-.533 0-.955.024-1.438.037-.074-.037-.1-.235-.025-.31l.211-.038c.695-.124.719-.248.719-1.55v-4.466c0-1.302-.087-1.513-.731-1.563l-.323-.025c-.075-.049-.05-.273.024-.31.608.013 1.03.037 1.563.037.484 0 .906-.012 1.44-.037.074.037.099.261.024.31l-.235.025c-.72.074-.745.261-.745 1.563v1.426c0 .385.025.398.621.398h3.548c.595 0 .62-.013.62-.398v-1.426c0-1.302-.025-1.489-.757-1.563l-.235-.025c-.074-.049-.05-.273.024-.31.571.025.993.037 1.501.037.485 0 .906-.012 1.465-.037.074.037.099.261.023.31l-.259.025c-.72.074-.744.261-.744 1.563v4.466c0 1.302.024 1.463.744 1.55l.298.038c.074.049.049.273-.025.31-.596-.024-1.017-.037-1.502-.037-.508 0-.955.013-1.501.037-.074-.037-.098-.235-.024-.31l.235-.038c.757-.124.757-.248.757-1.55v-1.75c0-.372-.025-.396-.62-.396z"/><path clip-path="url(#c)" d="m209.394 81.689c0-2.481 1.86-4.379 4.416-4.379 2.866 0 4.304 2.072 4.304 4.255 0 2.506-1.91 4.329-4.304 4.329-2.754 0-4.416-1.972-4.416-4.205m7.48.261c0-2.047-.905-4.256-3.275-4.256-1.29 0-2.965.881-2.965 3.598 0 1.836.893 4.218 3.337 4.218 1.488 0 2.903-1.117 2.903-3.56"/><path clip-path="url(#c)" d="m219.872 81.689c0-2.481 1.861-4.379 4.416-4.379 2.865 0 4.304 2.072 4.304 4.255 0 2.506-1.91 4.329-4.304 4.329-2.754 0-4.416-1.972-4.416-4.205m7.48.261c0-2.047-.906-4.256-3.275-4.256-1.291 0-2.965.881-2.965 3.598 0 1.836.893 4.218 3.338 4.218 1.488 0 2.902-1.117 2.902-3.56"/><path clip-path="url(#c)" d="m231.268 79.369c0-1.302-.025-1.501-.807-1.562l-.31-.026c-.074-.049-.049-.272.025-.309.694.024 1.116.037 1.612.037.484 0 .906-.013 1.527-.037.074.037.098.26.024.309l-.298.026c-.732.061-.756.26-.756 1.562v4.317c0 .782.038 1.105.26 1.34.137.137.372.285 1.352.285 1.055 0 1.315-.049 1.514-.161.248-.148.57-.595.819-1.228.074-.062.309-.012.309.075 0 .136-.347 1.401-.52 1.736-.633-.024-1.812-.037-3.089-.037h-1.142c-.52 0-.918.013-1.612.037-.074-.037-.099-.235-.025-.309l.373-.038c.719-.075.744-.248.744-1.55z"/><path clip-path="url(#c)" d="m122.999 95.688c-.037.681-.398 1.873-1.316 2.815-.768.794-1.438.857-1.773.857-.794 0-1.314-.583-1.24-1.651.049-.768.508-1.971 1.351-2.778.646-.62 1.203-.807 1.712-.807.881 0 1.316.657 1.266 1.564m-2.258-.596c-.72.968-1.203 2.443-1.241 3.102-.025.433.149.794.51.794.272 0 .582-.113.979-.646.546-.731 1.129-2.369 1.153-3.026.013-.385-.061-.82-.496-.82-.248-0-.545.113-.905.596"/><path clip-path="url(#c)" d="m126.594 94.757c-.074.211-.174.607-.322 1.153-.372 1.39-.707 2.581-1.104 3.946-.323 1.116-.732 1.749-.98 1.997-.186.174-.757.67-1.489.67-.669 0-.906-.422-.906-.608 0-.248.149-.459.285-.558.1-.075.211-.038.286.049.298.31.669.509.943.509.248 0 .508-.087.794-1.042.57-1.96 1.005-4.094 1.6-6.116h-1.03c-.124-.111-.074-.348.087-.459h1.066c.324-1.116.659-2.084 1.391-2.952.619-.733 1.265-1.03 1.984-1.03.459 0 .956.323.956.819 0 .322-.336.707-.534.707-.111 0-.162-.112-.173-.199-.038-.682-.385-.906-.696-.906-.272 0-.607.249-.892.67-.571.831-.819 1.712-1.155 2.891h1.551c.088.137.063.322-.123.459z"/><path clip-path="url(#c)" d="m136.664 96.308c-.087-.274-.137-.311-.509-.311h-1.874c-.309 0-.384.037-.471.298l-.433 1.303c-.187.558-.274.893-.274 1.029 0 .149.063.224.36.248l.41.038c.086.061.086.26-.025.31-.323-.025-.707-.025-1.29-.038-.41 0-.857.025-1.191.038-.075-.05-.099-.249-.025-.31l.409-.038c.298-.024.571-.161.745-.608.223-.57.57-1.377 1.092-2.766l1.264-3.35c.174-.446.249-.681.211-.881.298-.087.509-.309.646-.47.074 0 .16.024.185.111.162.546.36 1.116.546 1.662l1.701 4.987c.359 1.067.52 1.253 1.053 1.315l.335.038c.087.061.063.26 0 .31-.508-.025-.943-.038-1.501-.038-.594 0-1.067.025-1.426.038-.1-.05-.112-.249-.025-.31l.359-.038c.261-.024.435-.099.435-.223 0-.136-.062-.36-.162-.658zm-2.457-1.105c-.099.285-.086.298.261.298h1.526c.359 0 .385-.05.273-.385l-.67-2.021c-.099-.298-.211-.633-.286-.783h-.024c-.037.063-.162.361-.298.733z"/><path clip-path="url(#c)" d="m141.547 92.872c0-1.179-.037-1.39-.545-1.452l-.397-.049c-.088-.062-.088-.261.012-.311.695-.061 1.551-.099 2.766-.099.769 0 1.501.062 2.072.372.595.31 1.03.869 1.03 1.737 0 1.179-.931 1.824-1.551 2.072-.061.074 0 .198.062.298.992 1.6 1.65 2.593 2.494 3.3.211.185.521.322.855.346.063.026.074.124.013.174-.112.037-.31.063-.546.063-1.055 0-1.687-.311-2.568-1.564-.323-.459-.83-1.314-1.215-1.873-.187-.272-.385-.397-.881-.397-.559 0-.584.012-.584.273v1.564c0 1.302.025 1.451.745 1.55l.261.038c.074.061.049.272-.026.309-.558-.024-.98-.037-1.476-.037-.521 0-.967.013-1.551.037-.074-.037-.099-.223-.024-.309l.31-.038c.72-.086.744-.248.744-1.55zm1.017 1.774c0 .223 0 .359.038.409.037.037.224.062.857.062.445 0 .918-.049 1.277-.323.334-.26.62-.694.62-1.538 0-.98-.608-1.91-1.985-1.91-.769 0-.807.049-.807.397z"/><path clip-path="url(#c)" d="m152.585 97.325c0 1.302.024 1.488.745 1.55l.397.038c.074.049.049.272-.026.31-.707-.025-1.129-.038-1.625-.038s-.93.013-1.724.038c-.075-.038-.099-.249 0-.31l.447-.038c.707-.062.769-.248.769-1.55v-5.546c0-.385 0-.396-.373-.396h-.681c-.534 0-1.216.024-1.526.309-.299.274-.422.546-.558.857-.1.074-.274.012-.323-.087.198-.559.384-1.353.471-1.849.037-.024.199-.037.236 0 .075.398.484.385 1.055.385h5.024c.669 0 .781-.025.967-.348.062-.024.199-.011.224.037-.137.509-.224 1.514-.187 1.886-.049.1-.26.1-.323.025-.037-.31-.123-.769-.309-.906-.286-.211-.757-.309-1.439-.309h-.881c-.373 0-.36.011-.36.422z"/><path clip-path="url(#c)" d="m159.455 99.384c-1.043 0-1.7-.322-1.936-.459-.148-.273-.31-1.153-.334-1.736.061-.087.248-.113.297-.037.186.632.695 1.847 2.133 1.847 1.043 0 1.551-.681 1.551-1.426 0-.546-.111-1.154-1.017-1.737l-1.178-.768c-.62-.411-1.34-1.118-1.34-2.134 0-1.179.918-2.134 2.531-2.134.385 0 .83.074 1.153.161.161.05.335.074.435.074.111.298.223.992.223 1.514-.049.074-.248.111-.311.037-.16-.596-.496-1.402-1.686-1.402-1.216 0-1.476.806-1.476 1.378 0 .718.595 1.24 1.054 1.525l.993.62c.781.485 1.551 1.203 1.551 2.382 0 1.365-1.031 2.295-2.643 2.295"/><path clip-path="url(#c)" d="m171.521 91.78c0 .273-.211.496-.472.496-.222 0-.297-.149-.347-.372-.037-.162-.199-.36-.447-.36-.235 0-.508.112-.805.397-.51.484-.621 1.166-.621 1.576 0 .248.025.433.074.533.162-.161.547-.435 1.017-.435.819 0 1.08.583 1.08 1.031 0 .657-.521 1.029-1.08 1.029-.62 0-1.054-.396-1.24-.818-.174.248-.322.644-.322 1.264 0 1.08.83 2.457 2.84 2.457.758 0 1.452-.249 1.948-.632.583-.448 1.153-1.34 1.153-2.295 0-.794-.198-1.216-.272-1.303-.075-.1-.323-.174-.82-.174-.47 0-.917.273-.917.844 0 .235.162.347.248.347.087 0 .136-.049.199-.162.074-.111.148-.235.335-.235.223 0 .384.174.384.397 0 .334-.334.508-.67.508-.558 0-.893-.446-.893-.892 0-.261.087-.559.322-.82.348-.409.992-.508 1.34-.508.248 0 .496.012 1.018.012.595 0 1.847-.012 1.847-1.314 0-.745-.644-1.005-.955-1.005-.185 0-.248.173-.248.223 0 .062.026.112.125.186s.26.186.26.409c0 .372-.273.522-.533.522-.348 0-.608-.286-.608-.646 0-.459.347-.992 1.079-.992.683 0 1.339.608 1.339 1.563 0 .558-.197.906-.507 1.204-.596.557-1.651.508-1.799.508-.137 0-.162.049-.112.21.037.113.334.72.334 1.453 0 1.649-1.451 3.374-3.646 3.374-2.593 0-3.338-1.799-3.338-3.015 0-.707.262-1.401.695-1.923-.062-.198-.111-.459-.111-.844 0-.632.223-1.302.62-1.786.422-.521 1.042-.781 1.513-.781.633 0 .993.372.993.769m-2.506 2.605c.124.434.446.794.942.794.323 0 .596-.198.596-.533 0-.311-.222-.658-.695-.658-.445 0-.781.31-.843.397"/><path clip-path="url(#c)" d="m183.051 99.384c-1.041 0-1.699-.322-1.935-.459-.149-.273-.31-1.153-.335-1.736.063-.087.249-.113.297-.037.187.632.696 1.847 2.135 1.847 1.041 0 1.551-.681 1.551-1.426 0-.546-.112-1.154-1.018-1.737l-1.178-.768c-.621-.411-1.34-1.118-1.34-2.134 0-1.179.918-2.134 2.53-2.134.385 0 .832.074 1.154.161.161.05.335.074.434.074.112.298.223.992.223 1.514-.049.074-.248.111-.309.037-.162-.596-.496-1.402-1.688-1.402-1.215 0-1.476.806-1.476 1.378 0 .718.596 1.24 1.055 1.525l.992.62c.781.485 1.551 1.203 1.551 2.382 0 1.365-1.03 2.295-2.643 2.295"/><path clip-path="url(#c)" d="m188.742 91.854c.906-.707 2.06-1.054 3.35-1.054.67 0 1.613.136 2.196.298.149.037.235.062.347.049.012.286.074 1.067.173 1.824-.061.087-.248.099-.334.025-.186-.844-.745-1.812-2.543-1.812-1.898 0-3.511 1.204-3.511 3.772 0 2.605 1.65 4.043 3.684 4.043 1.601 0 2.308-1.041 2.593-1.773.087-.062.274-.037.322.05-.086.644-.409 1.464-.595 1.699-.149.024-.297.074-.434.124-.273.1-1.166.285-1.96.285-1.116 0-2.183-.222-3.089-.831-.992-.682-1.761-1.811-1.761-3.411 0-1.377.62-2.556 1.562-3.288"/><path clip-path="url(#c)" d="m197.472 92.884c0-1.315-.024-1.526-.757-1.588l-.31-.025c-.075-.049-.049-.273.025-.31.62.025 1.042.037 1.562.037.497 0 .918-.012 1.54-.037.074.037.099.261.024.31l-.31.025c-.732.062-.757.273-.757 1.588v4.416c0 1.315.025 1.489.757 1.575l.31.038c.075.049.05.273-.024.31-.622-.025-1.043-.037-1.54-.037-.52 0-.942.012-1.562.037-.074-.037-.1-.235-.025-.31l.31-.038c.733-.086.757-.26.757-1.575z"/><path clip-path="url(#c)" d="m202.283 92.858c0-1.29-.025-1.476-.757-1.562l-.198-.026c-.074-.049-.05-.272.025-.31.534.025.955.038 1.463.038h2.332c.795 0 1.527 0 1.676-.038.074.212.148 1.104.197 1.65-.049.075-.248.1-.309.025-.187-.583-.298-1.017-.943-1.178-.26-.063-.658-.075-1.203-.075h-.893c-.372 0-.372.025-.372.496v2.481c0 .348.037.348.409.348h.719c.521 0 .906-.025 1.055-.075.149-.049.236-.124.297-.434l.1-.508c.062-.075.273-.075.322.012 0 .298-.049.782-.049 1.253 0 .447.049.918.049 1.191-.049.087-.26.087-.322.012l-.112-.484c-.049-.223-.136-.409-.384-.471-.174-.05-.472-.062-.956-.062h-.719c-.372 0-.409.012-.409.335v1.749c0 .657.037 1.079.235 1.29.149.149.409.285 1.501.285.955 0 1.314-.049 1.588-.185.223-.124.558-.559.881-1.204.087-.062.26-.025.31.087-.088.434-.397 1.389-.558 1.724-1.118-.024-2.221-.037-3.325-.037h-1.117c-.533 0-.955.013-1.687.037-.075-.037-.099-.235-.025-.309l.409-.038c.708-.062.77-.248.77-1.55z"/><path clip-path="url(#c)" d="m216.819 97.076c0 .373 0 1.849.037 2.172-.024.074-.098.136-.235.136-.15-.211-.51-.645-1.588-1.874l-2.879-3.275c-.334-.384-1.178-1.401-1.439-1.674h-.024c-.051.149-.062.434-.062.806v2.705c0 .583.011 2.195.222 2.567.075.137.323.211.633.236l.385.038c.074.099.062.248-.025.309-.558-.024-.993-.037-1.452-.037-.52 0-.855.013-1.289.037-.088-.061-.099-.235-.025-.309l.335-.038c.285-.037.483-.112.546-.248.174-.447.161-1.96.161-2.555v-3.586c0-.347-.013-.607-.273-.892-.173-.174-.471-.261-.769-.298l-.211-.026c-.074-.074-.074-.26.025-.309.521.037 1.178.037 1.402.037.198 0 .409-.013.571-.037.248.633 1.711 2.269 2.121 2.729l1.203 1.352c.856.955 1.463 1.65 2.047 2.245h.024c.05-.062.05-.26.05-.521v-2.655c0-.583-.012-2.195-.248-2.567-.074-.112-.273-.187-.769-.248l-.211-.026c-.086-.074-.074-.272.025-.309.57.024.992.037 1.463.037.534 0 .856-.013 1.278-.037.1.061.1.235.025.309l-.174.026c-.397.061-.645.161-.693.26-.211.447-.187 1.985-.187 2.555z"/><path clip-path="url(#c)" d="m220.66 91.854c.906-.707 2.06-1.054 3.35-1.054.67 0 1.613.136 2.195.298.149.037.236.062.348.049.011.286.074 1.067.173 1.824-.062.087-.248.099-.335.025-.186-.844-.745-1.812-2.543-1.812-1.898 0-3.51 1.204-3.51 3.772 0 2.605 1.65 4.043 3.683 4.043 1.602 0 2.309-1.041 2.594-1.773.086-.062.273-.037.322.05-.087.644-.41 1.464-.595 1.699-.149.024-.298.074-.434.124-.273.1-1.166.285-1.961.285-1.116 0-2.183-.222-3.088-.831-.993-.682-1.761-1.811-1.761-3.411 0-1.377.619-2.556 1.562-3.288"/><path clip-path="url(#c)" d="m229.39 92.858c0-1.29-.024-1.476-.757-1.562l-.198-.026c-.075-.049-.05-.272.024-.31.534.025.956.038 1.464.038h2.333c.793 0 1.526 0 1.674-.038.074.212.149 1.104.199 1.65-.05.075-.248.1-.31.025-.186-.583-.298-1.017-.944-1.178-.259-.063-.656-.075-1.203-.075h-.892c-.373 0-.373.025-.373.496v2.481c0 .348.038.348.41.348h.719c.521 0 .906-.025 1.054-.075.15-.049.237-.124.299-.434l.099-.508c.061-.075.272-.075.322.012 0 .298-.05.782-.05 1.253 0 .447.05.918.05 1.191-.05.087-.261.087-.322.012l-.113-.484c-.048-.223-.135-.409-.383-.471-.174-.05-.472-.062-.956-.062h-.719c-.372 0-.41.012-.41.335v1.749c0 .657.038 1.079.236 1.29.148.149.409.285 1.501.285.955 0 1.315-.049 1.588-.185.224-.124.558-.559.881-1.204.087-.062.26-.025.309.087-.086.434-.396 1.389-.557 1.724-1.117-.024-2.221-.037-3.325-.037h-1.117c-.533 0-.955.013-1.686.037-.074-.037-.1-.235-.026-.309l.411-.038c.707-.062.768-.248.768-1.55z"/><path clip-path="url(#c)" d="m238.442 99.384c-1.042 0-1.7-.322-1.935-.459-.149-.273-.31-1.153-.336-1.736.063-.087.248-.113.298-.037.187.632.695 1.847 2.134 1.847 1.042 0 1.551-.681 1.551-1.426 0-.546-.111-1.154-1.018-1.737l-1.177-.768c-.622-.411-1.34-1.118-1.34-2.134 0-1.179.918-2.134 2.53-2.134.385 0 .831.074 1.153.161.162.05.336.074.435.074.112.298.223.992.223 1.514-.049.074-.248.111-.31.037-.161-.596-.496-1.402-1.688-1.402-1.214 0-1.475.806-1.475 1.378 0 .718.595 1.24 1.054 1.525l.993.62c.781.485 1.551 1.203 1.551 2.382 0 1.365-1.031 2.295-2.643 2.295"/></g></svg>