<svg viewBox="0 0 576 576" xmlns="http://www.w3.org/2000/svg"><g stroke-miterlimit="10"><g stroke-width=".25"><path d="m11.8 220.94 180.67 238.71 374.87-41.95-224.06-211.41z" fill="#baffff" stroke="#baffff"/><path d="m508.14 396.49-98.28-93.99c-3.73-3.4-18.69-5.14-23.73-4.82l-269.3 19.92c-2.7.17-4.04 3.34-2.29 5.4l87.7 112.96c3.98 4.68 8.08 4.63 14.18 3.98l286.02-29.07 1.26-.17c6.92-.93 9.6-9.51 4.44-14.22z" fill="#55d7d5" opacity=".49" stroke="#55d7d5"/><path d="m37.49 219.85 59.27 73.78c2.28 2.59 5.61 4.02 9.06 3.91l56.79-4.14s21.28 9.37 37.48 8.22 18.36-13.21 18.36-13.21l40.86-3.73c5.38-.24 10.38-.45 7.16-4.77l-41.87-43.52-53.18-19.26z" fill="#55d7d5" opacity=".49" stroke="#55d7d5"/><path d="m287.34 279.87 44.76-3.05s-4.12-18.85 18.06-19.24 29.45 16.89 29.45 16.89l33.62-2.17-69.96-66.01-120.11 5.31s-6.5 8.8-2.93 19.94c9.28 28.91 40.87 25.12 40.87 25.12l14.69 18.18c2.79 3.46 7.1 5.34 11.53 5.03z" fill="#55d7d5" opacity=".49" stroke="#55d7d5"/><path d="m165.54 239.19v33.35l-62.32 3.12 2.94-40.48s39.43-28.86 59.38 4z" fill="#f7a246" stroke="#f7a246"/><path d="m209.32 190.52v26.08l-31.07 2.64s.34-35.41 31.07-28.72z" fill="#f7a246" stroke="#f7a246"/><path d="m251.73 233.22-1 35.25-34.74 1.67.97-19.87-15.09-18.03z" fill="#f7a246" stroke="#f7a246"/><path d="m103.22 275.67-56.49-71.11 1.19-37.72s41.86 24.09 57.17 57.75l.97 14.6" fill="#e68541" stroke="#e68541"/><path d="m223.99 235.53.66 34.2-8.66.41-9.82-35.52z" fill="#f39747" stroke="#f39747"/><path d="m180.71 253.33-2.28 31.12s35.59 7.15 38.27-11.76l.83-20.7s-23.18-17.65-36.82 1.34z" fill="#f7a246" stroke="#f7a246"/><path d="m165.54 272.54-3.29.22-3.99.16-.3-38.3h7.58z" fill="#f39747" stroke="#f39747"/><path d="m180.68 284.83c-12.83-1.54-20.09-12-20.09-12l-1.09-34.84 19.05 11.57 2.53 2.74-.4 32.54z" fill="#e68541" stroke="#e68541"/><path d="m47.92 166.83 58.14 71.13h54.21s-5.51 21.38 29.42 24.72c4.75.45 14.42.23 18.67-1.93 8.65-4.39 14.99-9.3 1.38-24.22l-.59-.78 42.59-2.53-20.62-18.36s-30.78 2.56-42.1-9.74 20.31-14.6 20.31-14.6l-19.11-23.59z" fill="#ffbc47" stroke="#ffbc47"/><path d="m312.45 277.33.09 8.8 8.32 2.62z" fill="#c43a21" stroke="#c43a21"/><path d="m248.22 287.9-.58 18.7 13.74-4.01s-2.04-14.07-13.16-14.69z" fill="#335ca8" stroke="#335ca8"/><path d="m222.98 379.54-76.25-87.21-2.72 37.55 73.18 93.09z" fill="#335ca8" stroke="#335ca8"/><path d="m362.88 367.41-82.96-80.16-22.6.46 60.11 82.03z" fill="#4574cb" stroke="#4574cb"/><path d="m279.92 287.25 139.26-5.15 77.02 72.23-4.5 42.47-129.57 12.65.74-42.05-37.1-34.19s24.05-4.46 17.98-17.58-26.19-21.93-50.93-15.45l-12.9-12.94z" fill="#e5545a" stroke="#e5545a"/><path d="m363.14 366.5 133.06-12.16-4.24 41.57-129.82 13.55z" fill="#d84631" stroke="#d84631"/><path d="m372.06 283.95s-15.2-19.54-42.98-16.21-12.38 18.25-12.38 18.25z" fill="#e5545a" stroke="#e5545a"/></g><path d="m279.24 287.97 13.73 11.35s23.03-7.49 41.97 5.85c17.61 12.4 12.47 25.3-8.04 28.55l36.24 32.79-.63 42.96" fill="none" stroke="#c43a21" stroke-width="2"/><path d="m217.4 423.15 144.74-13.69.75-43.06-140.35 12.43z" fill="#3b66b6" stroke="#3b66b6" stroke-width=".25"/><path d="m222.54 378.83 140.11-12.64-36.87-32.97s21.1-3.06 18.81-15.05c-2.08-10.9-19.98-21.53-36.3-20.76 0 0-9.37-.17-15.9 2.07l-12.9-12.94-29.94.68-1.77-.04s12.36 14.46-11.73 17.55-35.54-14.35-35.54-14.35l-54.22 1.23 76.25 87.21z" fill="#4574cb" stroke="#4574cb" stroke-width=".25"/><path d="m397.91 232.73.77-30.16s-1.52-24.1-33.2-24.13c-39.35-.04-15.28 26.29-15.28 26.29l-1.75 22.05s-1.61-11.67 15.2-14.07c8.57-1.23 12.48-.88 21.85 5.21 4.28 2.78 9.71 7.31 12.4 14.82z" fill="#217a72" stroke="#217a72" stroke-width=".25"/><path d="m440.5 199.96-2.25 29.04-40.3 3.74.79-30.92z" fill="#238b7a" stroke="#238b7a" stroke-width=".25"/><path d="m283 184.47-1.97 26.6 20.84 27.8 1.63-32.82z" fill="#217a72" stroke="#217a72" stroke-width=".25"/><path d="m242.82 138.25-1.84 21.51 20.9-1-15.19-20.69z" fill="#217a72" stroke="#217a72" stroke-width=".25"/><path d="m283 184.47-1.97 26.6s-25.04 8.25-45.3-11.5c-2.08-2.02-3.15-4.86-3.03-7.76l1.46-26.82 48.83 19.48z" fill="#217a72" stroke="#217a72" stroke-width=".25"/><path d="m251.73 181.49-1.65 27.69s14.1 6.57 30.95 1.89l1.97-26.6s-30.03-9.12-31.27-2.98z" fill="#238b7a" stroke="#238b7a" stroke-width=".25"/><path d="m350.26 203.97-1.26 32.29-46.95 2.74 1.45-32.95z" fill="#238b7a" stroke="#238b7a" stroke-width=".25"/><path d="m256.98 155.9-14.17-17.65 121.38-5.66 76.31 67.37-41.76 1.85s-10.52-17.35-31.53-17.35c-32.14 0-16.95 19.5-16.95 19.5l-46.77 2.08-20.5-21.58s-23.02 11.57-42.98-9.07 16.97-19.5 16.97-19.5z" fill="#249f86" stroke="#249f86" stroke-width=".25"/></g></svg>