<?xml version="1.0" encoding="UTF-8"?>
<svg xmlns="http://www.w3.org/2000/svg" version="1.1" viewBox="0 0 576 576">
  <!-- Generator: Adobe Illustrator 29.7.1, SVG Export Plug-In . SVG Version: 2.1.1 Build 8)  -->
  <defs>
    <style>
      .st0 {
        fill: #217a72;
        stroke: #217a72;
      }

      .st0, .st1, .st2, .st3, .st4, .st5, .st6, .st7, .st8, .st9, .st10, .st11, .st12, .st13, .st14, .st15 {
        stroke-miterlimit: 10;
      }

      .st0, .st1, .st2, .st3, .st4, .st5, .st6, .st7, .st8, .st9, .st10, .st11, .st12, .st14, .st15 {
        stroke-width: .25px;
      }

      .st1 {
        fill: #335ca8;
        stroke: #335ca8;
      }

      .st2 {
        fill: #d84631;
        stroke: #d84631;
      }

      .st3 {
        fill: #baffff;
        stroke: #baffff;
      }

      .st4 {
        fill: #238b7a;
        stroke: #238b7a;
      }

      .st5 {
        fill: #f39747;
        stroke: #f39747;
      }

      .st6 {
        fill: #3b66b6;
        stroke: #3b66b6;
      }

      .st7 {
        fill: #55d7d5;
        opacity: .49;
        stroke: #55d7d5;
      }

      .st8 {
        fill: #4574cb;
        stroke: #4574cb;
      }

      .st9 {
        fill: #e5545a;
        stroke: #e5545a;
      }

      .st10 {
        fill: #c43a21;
      }

      .st10, .st13 {
        stroke: #c43a21;
      }

      .st11 {
        fill: #249f86;
        stroke: #249f86;
      }

      .st12 {
        fill: #e68541;
        stroke: #e68541;
      }

      .st13 {
        fill: none;
        stroke-width: 2px;
      }

      .st14 {
        fill: #f7a246;
        stroke: #f7a246;
      }

      .st15 {
        fill: #ffbc47;
        stroke: #ffbc47;
      }
    </style>
  </defs>
  <g id="base">
    <polygon class="st3" points="11.8 220.94 192.47 459.65 567.34 417.7 343.28 206.29 11.8 220.94"/>
    <path class="st7" d="M508.14,396.49l-98.28-93.99c-3.73-3.4-18.69-5.14-23.73-4.82l-269.3,19.92c-2.7.17-4.04,3.34-2.29,5.4l87.7,112.96c3.98,4.68,8.08,4.63,14.18,3.98l286.02-29.07,1.26-.17c6.92-.93,9.6-9.51,4.44-14.22Z"/>
    <path class="st7" d="M37.49,219.85l59.27,73.78c2.28,2.59,5.61,4.02,9.06,3.91l56.79-4.14s21.28,9.37,37.48,8.22,18.36-13.21,18.36-13.21l40.86-3.73c5.38-.24,10.38-.45,7.16-4.77l-41.87-43.52-53.18-19.26-133.93,2.72Z"/>
    <path class="st7" d="M287.34,279.87l44.76-3.05s-4.12-18.85,18.06-19.24,29.45,16.89,29.45,16.89l33.62-2.17-69.96-66.01-120.11,5.31s-6.5,8.8-2.93,19.94c9.28,28.91,40.87,25.12,40.87,25.12l14.69,18.18c2.79,3.46,7.1,5.34,11.53,5.03Z"/>
  </g>
  <g id="piece_1">
    <g>
      <path class="st14" d="M165.54,239.19v33.35l-62.32,3.12,2.94-40.48s39.43-28.86,59.38,4Z"/>
      <path class="st14" d="M209.32,190.52v26.08l-31.07,2.64s.34-35.41,31.07-28.72Z"/>
      <polygon class="st14" points="251.73 233.22 250.73 268.47 215.99 270.14 216.96 250.27 201.87 232.24 251.73 233.22"/>
      <path class="st12" d="M103.22,275.67l-56.49-71.11,1.19-37.72s41.86,24.09,57.17,57.75l.97,14.6"/>
      <polygon class="st5" points="223.99 235.53 224.65 269.73 215.99 270.14 206.17 234.62 223.99 235.53"/>
      <path class="st14" d="M180.71,253.33l-2.28,31.12s35.59,7.15,38.27-11.76l.83-20.7s-23.18-17.65-36.82,1.34Z"/>
      <polygon class="st5" points="165.54 272.54 162.25 272.76 158.26 272.92 157.96 234.62 165.54 234.62 165.54 272.54"/>
      <path class="st12" d="M180.68,284.83c-12.83-1.54-20.09-12-20.09-12l-1.09-34.84,19.05,11.57,2.53,2.74-.4,32.54Z"/>
      <path class="st15" d="M47.92,166.83l58.14,71.13h54.21s-5.51,21.38,29.42,24.72c4.75.45,14.42.23,18.67-1.93,8.65-4.39,14.99-9.3,1.38-24.22l-.59-.78,42.59-2.53-20.62-18.36s-30.78,2.56-42.1-9.74,20.31-14.6,20.31-14.6l-19.11-23.59-142.3-.1Z"/>
    </g>
  </g>
  <g id="piece2_x2B_3">
    <g>
      <polygon class="st10" points="312.45 277.33 312.54 286.13 320.86 288.75 312.45 277.33"/>
      <path class="st1" d="M248.22,287.9l-.58,18.7,13.74-4.01s-2.04-14.07-13.16-14.69Z"/>
      <polygon class="st1" points="222.98 379.54 146.73 292.33 144.01 329.88 217.19 422.97 222.98 379.54"/>
      <polygon class="st8" points="362.88 367.41 279.92 287.25 257.32 287.71 317.43 369.74 362.88 367.41"/>
      <path class="st9" d="M279.92,287.25l139.26-5.15,77.02,72.23-4.5,42.47-129.57,12.65.74-42.05-37.1-34.19s24.05-4.46,17.98-17.58-26.19-21.93-50.93-15.45l-12.9-12.94Z"/>
      <polygon class="st2" points="363.14 366.5 496.2 354.34 491.96 395.91 362.14 409.46 363.14 366.5"/>
      <path class="st9" d="M372.06,283.95s-15.2-19.54-42.98-16.21-12.38,18.25-12.38,18.25l55.36-2.04Z"/>
      <path class="st13" d="M279.24,287.97l13.73,11.35s23.03-7.49,41.97,5.85c17.61,12.4,12.47,25.3-8.04,28.55l36.24,32.79-.63,42.96"/>
      <polygon class="st6" points="217.4 423.15 362.14 409.46 362.89 366.4 222.54 378.83 217.4 423.15"/>
      <path class="st8" d="M222.54,378.83l140.11-12.64-36.87-32.97s21.1-3.06,18.81-15.05c-2.08-10.9-19.98-21.53-36.3-20.76,0,0-9.37-.17-15.9,2.07l-12.9-12.94-29.94.68-1.77-.04s12.36,14.46-11.73,17.55-35.54-14.35-35.54-14.35l-54.22,1.23,76.25,87.21Z"/>
    </g>
  </g>
  <g id="piece_5">
    <g>
      <path class="st0" d="M397.91,232.73l.77-30.16s-1.52-24.1-33.2-24.13c-39.35-.04-15.28,26.29-15.28,26.29l-1.75,22.05s-1.61-11.67,15.2-14.07c8.57-1.23,12.48-.88,21.85,5.21,4.28,2.78,9.71,7.31,12.4,14.82,0,0,0,0,0,0Z"/>
      <polygon class="st4" points="440.5 199.96 438.25 229 397.95 232.74 398.74 201.82 440.5 199.96"/>
      <polygon class="st0" points="283 184.47 281.03 211.07 301.87 238.87 303.5 206.05 283 184.47"/>
      <polygon class="st0" points="242.82 138.25 240.98 159.76 261.88 158.76 246.69 138.07 242.82 138.25"/>
      <path class="st0" d="M283,184.47l-1.97,26.6s-25.04,8.25-45.3-11.5c-2.08-2.02-3.15-4.86-3.03-7.76l1.46-26.82,48.83,19.48Z"/>
      <path class="st4" d="M251.73,181.49l-1.65,27.69s14.1,6.57,30.95,1.89l1.97-26.6s-30.03-9.12-31.27-2.98Z"/>
      <polygon class="st4" points="350.26 203.97 349 236.26 302.05 239 303.5 206.05 350.26 203.97"/>
      <path class="st11" d="M256.98,155.9l-14.17-17.65,121.38-5.66,76.31,67.37-41.76,1.85s-10.52-17.35-31.53-17.35c-32.14,0-16.95,19.5-16.95,19.5l-46.77,2.08-20.5-21.58s-23.02,11.57-42.98-9.07,16.97-19.5,16.97-19.5Z"/>
    </g>
  </g>
</svg>