<?xml version="1.0" encoding="UTF-8"?>
<svg xmlns="http://www.w3.org/2000/svg" version="1.1" viewBox="0 0 576 576">
  <!-- Generator: Adobe Illustrator 29.7.1, SVG Export Plug-In . SVG Version: 2.1.1 Build 8)  -->
  <defs>
    <style>
      .st0 {
        fill: #4372cb;
        stroke: #4372cb;
      }

      .st0, .st1, .st2, .st3, .st4, .st5, .st6, .st7, .st8, .st9, .st10, .st11, .st12, .st13, .st14, .st15, .st16, .st17, .st18, .st19, .st20, .st21, .st22, .st23, .st24, .st25, .st26, .st27, .st28, .st29, .st30, .st31, .st32, .st33, .st34, .st35, .st36, .st37, .st38, .st39, .st40, .st41, .st42, .st43, .st44, .st45, .st46, .st47, .st48, .st49 {
        stroke-miterlimit: 10;
      }

      .st0, .st1, .st3, .st8, .st9, .st10, .st11, .st14, .st15, .st17, .st18, .st19, .st20, .st21, .st22, .st23, .st24, .st25, .st26, .st27, .st29, .st31, .st35, .st36, .st37, .st38, .st39, .st42, .st44, .st45, .st46, .st49 {
        stroke-width: .25px;
      }

      .st1 {
        fill: #e2c47e;
        stroke: #e2c47e;
      }

      .st2 {
        fill: #62b000;
        stroke: #62b000;
      }

      .st3 {
        fill: #6cd2d0;
        stroke: #6cd2d0;
      }

      .st4 {
        fill: #49d4d2;
        stroke: #49d4d2;
      }

      .st5, .st7, .st12, .st13, .st28, .st30, .st32, .st33, .st34, .st40, .st41, .st47 {
        stroke-width: .5px;
      }

      .st5, .st8 {
        fill: #959b4f;
        stroke: #959b4f;
      }

      .st6 {
        fill: #aaebef;
        stroke: #aaebef;
      }

      .st7 {
        fill: #afb569;
        stroke: #afb569;
      }

      .st9 {
        fill: #1f957d;
        stroke: #1f957d;
      }

      .st10 {
        fill: #806247;
        stroke: #806247;
      }

      .st11 {
        fill: #58b200;
        stroke: #58b200;
      }

      .st12 {
        fill: #badadf;
        stroke: #badadf;
      }

      .st13 {
        fill: #1e595f;
        stroke: #1e595f;
      }

      .st14 {
        fill: #2b5db6;
      }

      .st14, .st25 {
        stroke: #2b5db6;
      }

      .st15 {
        fill: #57a7aa;
        stroke: #57a7aa;
      }

      .st16 {
        fill: #97d54c;
        stroke: #97d54c;
      }

      .st17 {
        fill: #f1efd6;
        stroke: #f1efd6;
      }

      .st18 {
        fill: #816348;
        stroke: #816348;
      }

      .st19 {
        fill: #42c5c4;
        stroke: #42c5c4;
      }

      .st20 {
        fill: #bcfaff;
        stroke: #bcfaff;
      }

      .st21 {
        fill: #679dd9;
        stroke: #679dd9;
      }

      .st22 {
        fill: #c58f1b;
        stroke: #c58f1b;
      }

      .st23 {
        fill: #20826f;
        stroke: #20826f;
      }

      .st24 {
        fill: #513d2d;
        stroke: #513d2d;
      }

      .st25 {
        fill: #2b5db8;
      }

      .st26 {
        fill: #2e939c;
        stroke: #2e939c;
      }

      .st27, .st30 {
        fill: #d6442e;
        stroke: #d6442e;
      }

      .st28 {
        fill: #509667;
        stroke: #509667;
      }

      .st29, .st43 {
        fill: #97d746;
        stroke: #97d746;
      }

      .st31 {
        fill: #eee1ad;
        stroke: #eee1ad;
      }

      .st32 {
        fill: #95a053;
        stroke: #95a053;
      }

      .st33 {
        fill: #f9d39e;
        stroke: #f9d39e;
      }

      .st34 {
        fill: #e2a13c;
        stroke: #e2a13c;
      }

      .st35 {
        fill: #8dd53d;
        stroke: #8dd53d;
      }

      .st36 {
        fill: #2b5eb4;
        stroke: #2b5eb4;
      }

      .st37 {
        fill: #246f84;
        stroke: #246f84;
      }

      .st38 {
        fill: #60a5d2;
        stroke: #60a5d2;
      }

      .st39 {
        fill: #249f87;
        stroke: #249f87;
      }

      .st40 {
        fill: #3e8a61;
        stroke: #3e8a61;
      }

      .st50 {
        fill: #b1ccc4;
      }

      .st41 {
        fill: #205e64;
        stroke: #205e64;
      }

      .st42 {
        fill: #1f8c94;
        stroke: #1f8c94;
      }

      .st44 {
        fill: #ffbc47;
        stroke: #ffbc47;
      }

      .st45, .st47 {
        fill: #e35a2f;
        stroke: #e35a2f;
      }

      .st46 {
        fill: #2f949d;
        stroke: #2f949d;
      }

      .st48 {
        fill: #ffcb4c;
        stroke: #ffcb4c;
      }

      .st51 {
        fill: #e4cd98;
      }

      .st49 {
        fill: #c3f389;
        stroke: #c3f389;
      }

      .st52 {
        fill: #ebe2ae;
      }
    </style>
  </defs>
  <g id="bottom">
    <polygon class="st41" points="556.62 282.36 381.96 199.49 91.41 317.44 297.83 420.15 556.62 282.36"/>
    <polygon class="st28" points="91.41 317.44 556.62 282.36 381.96 199.49 91.41 317.44"/>
    <path class="st40" d="M507.45,258.92s-25.49,18.57-49.48,22.79-29.04,10.3-29.04,10.3l-46.73,3.52,30.27-81.68,94.99,45.07Z"/>
    <path class="st13" d="M428.69,292.53s-10.06,30.39-23.38,40.18-61.41,34.48-61.41,34.48l-73.97,39.59-65.13-32.4,177.17-78.32,46.73-3.52Z"/>
  </g>
  <g id="base">
    <g>
      <polygon class="st32" points="23.82 277.45 23.82 297.07 242.34 408.23 243.26 378.53 28.96 275.14 23.82 277.45"/>
      <path class="st12" d="M508.54,208.61l-265.28,142.86v33.34l-.92,23.43,103.91-65.63c4.48-2.83,9.18-5.33,14.04-7.46,31.75-13.89,34.69-26.85,49.8-43.26,1.34-1.46,2.7-2.82,4.05-4.09,10.27-9.62,23.43-15.45,37.34-17.49,38.63-5.65,67.51-28.05,67.51-28.05l2.58-28.34-13.04-5.3Z"/>
      <path class="st7" d="M319.41,144.84l15.4-6.91,186.77,75.97s1.5,24.65-75.32,42.85c-4.4,1.04-8.84,1.91-13.31,2.53-7.53,1.03-27.54,6.35-45.98,33.6,0,0-10.6,17.12-28.67,24.16-9.74,3.79-19.22,8.21-28.09,13.72l-86.95,54.03L23.82,277.45l272.67-122.33s23.56,8.41,22.92-10.28Z"/>
    </g>
  </g>
  <g id="path">
    <path class="st33" d="M88.59,309.14l121.09,59.24s51.47-34.9,48.63-71.62c0,0-1.92-17.08-15.05-30.17-13.13-13.09,18.84-17.15,44.74-12.03s37.36-16.7,48.74-31.5,71.85-9.13,71.85-9.13c0,0,38.29.78,58.71-22.1l-40.3-16.39s-.76,8.6-52,14.86-60.63-1.64-74.73,26.08c-10.88,21.39-72.01,14.62-72.01,14.62,0,0-50.8-.16-38.84,40.91s-63.74,30.9-100.84,37.23Z"/>
  </g>
  <g id="trees">
    <g>
      <ellipse class="st5" cx="212.45" cy="216.3" rx="14.68" ry="6.14"/>
      <path class="st18" d="M215.15,201.87v14.43s-3.15,1.43-5.61,0v-15.05s3.69-2.77,5.61.62Z"/>
      <path class="st24" d="M209.53,204.79l4.57,4.11v6.7s-2.49,1.27-4.57-.42v1.13s2.08,1.55,5.61,0v-14.43s-1.24-3.3-5.61-.62v3.53Z"/>
      <path class="st39" d="M233.58,206.24c-.83-.68-9.77-6.65-10.52-10.9,0,0,7.54-1.39,7.87-1.61.32-.21.79-1-.61-1.5s-7.37-4.76-9.62-10.23c0,0,3.11-.43,5.43-2.29,0,0,.43-.5-.54-.64-.97-.14-10.58-5.54-12.01-16.16l-.42-2.29c-.62-1.38-1.11,2.29-1.11,2.29-1.43,10.62-11.05,16.02-12.01,16.16s-.54.64-.54.64c2.32,1.86,5.43,2.29,5.43,2.29-2.25,5.47-8.22,9.72-9.62,10.23s-.93,1.29-.61,1.5c.32.21,7.87,1.61,7.87,1.61-.75,4.25-9.69,10.23-10.52,10.9-.83.68,0,1.07,0,1.07,12.97,1.27,16.18-2.21,17.29-2.71,0,0,2.65-2.16,4.94-1,1.09.55,6.32,4.99,19.29,3.71,0,0,.83-.4,0-1.07Z"/>
      <path class="st9" d="M212.34,203.3l.57-42.99c.13-.07.26.31.26.31l.42,2.29c1.43,10.62,11.05,16.02,12.01,16.16.97.14.54.64.54.64-2.32,1.86-5.43,2.29-5.43,2.29,2.25,5.47,8.22,9.72,9.62,10.23s.93,1.29.61,1.5c-.32.21-7.87,1.61-7.87,1.61.75,4.25,9.69,10.23,10.52,10.9.83.68,0,1.07,0,1.07-12.97,1.27-18.2-3.17-19.29-3.71,0,0-1.08-.5-1.96-.31Z"/>
      <path class="st23" d="M233.67,206.33h.01c-.1-.1-.1-.09-.1-.09h-3.36c-4.13-.11-10.97-.69-13.99-3.18-3.56-2.94-8.04,0-8.04,0-5.49,3.8-8.85,3.01-12.23,3.17h-3.74s-.02,0-.04,0h-.12s-.04.04-.06.06c-.02.02-.05.03-.07.06h.01c-.59.6.12.95.12.95,7.22.71,11.42-.03,13.92-.94l1.18-.5c.25-.1,1.18-.62,1.4-.77.47-.3.72-.48,1.23-.77.87-.49,1.44-.88,2.74-1,.85,0,1.64.1,2.6.78.95.55,1.55.96,2.15,1.2,1,.41,2.03.75,3.04,1.12,3.05.92,7.2,1.47,13.25.88,0,0,.74-.36.09-.98Z"/>
      <path class="st23" d="M230.32,192.23h-.11l-17.88,3.37h0l-16.77-3.37s-.17-.02-.24,0c-1.39.52-.93,1.29-.61,1.5.28.19,5.92,1.25,7.47,1.54l10.15,2.45,10.73-2.38s7.54-1.39,7.87-1.61c.32-.21.79-1-.61-1.5Z"/>
      <path class="st23" d="M225.6,179.07l-.73-.3-12.25,3.76-11.66-3.63-.28-.08c-.36.18-.5.23-.62.24-.97.14-.54.64-.54.64,2.32,1.86,5.43,2.29,5.43,2.29l7.64,2.34,8.11-2.34s2.05-.34,3.58-1.14,1.85-1.15,1.85-1.15c0,0,.43-.49-.54-.64Z"/>
    </g>
    <g>
      <ellipse class="st5" cx="372.39" cy="164.45" rx="7.76" ry="3.24"/>
      <path class="st18" d="M373.82,156.82v7.62s-1.67.76-2.97,0v-7.95s1.95-1.46,2.97.33Z"/>
      <path class="st24" d="M370.85,158.37l2.41,2.17v3.54s-1.31.67-2.41-.22v.6s1.1.82,2.97,0v-7.62s-.66-1.74-2.97-.33v1.87Z"/>
      <path class="st39" d="M383.56,159.13c-.44-.36-5.16-3.51-5.56-5.76,0,0,3.99-.74,4.16-.85.17-.11.42-.53-.32-.79s-3.89-2.51-5.08-5.4c0,0,1.64-.23,2.87-1.21,0,0,.23-.26-.28-.34-.51-.08-5.59-2.93-6.35-8.54l-.22-1.21c-.32-.73-.59,1.21-.59,1.21-.76,5.61-5.84,8.46-6.35,8.54s-.28.34-.28.34c1.23.98,2.87,1.21,2.87,1.21-1.19,2.89-4.34,5.14-5.08,5.4s-.49.68-.32.79c.17.11,4.16.85,4.16.85-.4,2.25-5.12,5.4-5.56,5.76-.44.36,0,.57,0,.57,6.85.67,8.55-1.17,9.13-1.43,0,0,1.4-1.14,2.61-.53.57.29,3.34,2.64,10.19,1.96,0,0,.44-.21,0-.57Z"/>
      <path class="st9" d="M372.34,157.58l.3-22.71c.07-.04.14.16.14.16l.22,1.21c.76,5.61,5.84,8.46,6.35,8.54.51.08.28.34.28.34-1.23.98-2.87,1.21-2.87,1.21,1.19,2.89,4.34,5.14,5.08,5.4s.49.68.32.79c-.17.11-4.16.85-4.16.85.4,2.25,5.12,5.4,5.56,5.76.44.36,0,.57,0,.57-6.85.67-9.62-1.67-10.19-1.96,0,0-.57-.26-1.03-.16Z"/>
      <path class="st23" d="M383.61,159.18h0c-.05-.05-.05-.05-.05-.05h-1.78c-2.18-.06-5.8-.36-7.39-1.68-1.88-1.55-4.25,0-4.25,0-2.9,2.01-4.68,1.59-6.46,1.67h-1.98s0,0-.02,0h-.07s-.02.02-.03.03c-.01,0-.03.02-.04.03h0c-.31.32.06.5.06.5,3.82.38,6.04-.02,7.35-.49l.63-.26c.13-.05.62-.33.74-.41.25-.16.38-.25.65-.41.46-.26.76-.47,1.45-.53.45,0,.87.05,1.37.41.5.29.82.51,1.14.63.53.21,1.07.39,1.61.59,1.61.48,3.8.78,7,.46,0,0,.39-.19.05-.52Z"/>
      <path class="st23" d="M381.84,151.73h-.06l-9.45,1.78h0l-8.86-1.78s-.09-.01-.13,0c-.73.27-.49.68-.32.79.15.1,3.13.66,3.95.81l5.36,1.3,5.67-1.26s3.99-.74,4.16-.85c.17-.11.42-.53-.32-.79Z"/>
      <path class="st23" d="M379.34,144.78l-.39-.16-6.47,1.99-6.16-1.92-.15-.04c-.19.1-.27.12-.33.13-.51.08-.28.34-.28.34,1.23.98,2.87,1.21,2.87,1.21l4.04,1.24,4.29-1.24s1.09-.18,1.89-.6.98-.61.98-.61c0,0,.23-.26-.28-.34Z"/>
    </g>
    <g>
      <ellipse class="st5" cx="400.46" cy="189.7" rx="12.03" ry="5.03"/>
      <path class="st34" d="M405.65,185.16h0s-.06-.01-.06-.01c-.01,0-.02,0-.03,0l-16.71,3.23s0,0,0,0l-.08.13h.02c-.22.38-.36.78-.36,1.19,0,2.78,5.39,5.03,12.03,5.03s12.03-2.25,12.03-5.03c0-2-2.79-3.73-6.84-4.54Z"/>
      <path class="st18" d="M402.67,177.87v11.83s-2.58,1.17-4.6,0v-12.33s3.03-2.27,4.6.5Z"/>
      <path class="st24" d="M398.07,180.26l3.75,3.37v5.49s-2.04,1.04-3.75-.35v.93s1.71,1.27,4.6,0v-11.83s-1.02-2.71-4.6-.5v2.9Z"/>
      <path class="st39" d="M417.78,181.45c-.68-.56-8.01-5.45-8.62-8.94,0,0,6.18-1.14,6.45-1.32.26-.18.64-.82-.5-1.23s-6.04-3.9-7.88-8.38c0,0,2.55-.35,4.45-1.88,0,0,.35-.41-.44-.53-.79-.12-8.67-4.54-9.85-13.25l-.34-1.88c-.5-1.13-.91,1.88-.91,1.88-1.17,8.7-9.06,13.13-9.85,13.25s-.44.53-.44.53c1.9,1.52,4.45,1.88,4.45,1.88-1.85,4.48-6.74,7.97-7.88,8.38s-.76,1.05-.5,1.23c.26.18,6.45,1.32,6.45,1.32-.62,3.49-7.94,8.38-8.62,8.94-.68.56,0,.88,0,.88,10.63,1.04,13.26-1.82,14.17-2.22,0,0,2.17-1.77,4.05-.82.89.45,5.18,4.09,15.81,3.04,0,0,.68-.32,0-.88Z"/>
      <path class="st9" d="M400.37,179.04l.47-35.23c.11-.06.21.25.21.25l.34,1.88c1.17,8.7,9.06,13.13,9.85,13.25.79.12.44.53.44.53-1.9,1.52-4.45,1.88-4.45,1.88,1.85,4.48,6.74,7.97,7.88,8.38s.76,1.05.5,1.23c-.26.18-6.45,1.32-6.45,1.32.62,3.49,7.94,8.38,8.62,8.94.68.56,0,.88,0,.88-10.63,1.04-14.92-2.59-15.81-3.04,0,0-.88-.41-1.6-.25Z"/>
      <path class="st23" d="M417.86,181.53h.01c-.08-.08-.08-.07-.08-.07h-2.76c-3.39-.09-8.99-.56-11.46-2.6-2.92-2.41-6.59,0-6.59,0-4.5,3.12-7.26,2.46-10.02,2.6h-3.07s-.01,0-.03,0h-.1s-.03.03-.05.05c-.02.01-.04.03-.06.05h.01c-.48.49.1.78.1.78,5.92.58,9.36-.02,11.41-.77l.97-.41c.2-.08.96-.51,1.15-.63.38-.25.59-.39,1.01-.63.71-.4,1.18-.72,2.25-.82.69,0,1.35.08,2.13.64.78.45,1.27.78,1.76.98.82.33,1.66.61,2.49.92,2.5.75,5.9,1.21,10.86.72,0,0,.61-.3.07-.81Z"/>
      <path class="st23" d="M415.11,169.97h-.09l-14.65,2.76h0l-13.74-2.76s-.14-.02-.2,0c-1.14.42-.76,1.05-.5,1.23.23.15,4.86,1.02,6.12,1.26l8.32,2.01,8.79-1.95s6.18-1.14,6.45-1.32c.26-.18.64-.82-.5-1.23Z"/>
      <path class="st23" d="M411.24,159.18l-.6-.25-10.04,3.08-9.56-2.98-.23-.06c-.29.15-.41.19-.51.2-.79.12-.44.53-.44.53,1.9,1.52,4.45,1.88,4.45,1.88l6.26,1.92,6.65-1.92s1.68-.28,2.94-.93,1.52-.94,1.52-.94c0,0,.36-.4-.44-.53Z"/>
    </g>
  </g>
  <g id="ping">
    <ellipse class="st5" cx="304.5" cy="200.47" rx="29.77" ry="13.36"/>
    <g>
      <path class="st47" d="M305.81,94.07h-2.69c-22.98,1.07-34.79,15.68-31.57,44.45,2.82,25.18,26.96,54.91,32.95,61.95,5.67-6.64,30.03-36.51,32.88-61.95,3.22-28.78-8.59-43.38-31.57-44.45ZM304.5,155.75c-8.48,0-15.36-6.88-15.36-15.36s6.88-15.36,15.36-15.36,15.36,6.88,15.36,15.36-6.88,15.36-15.36,15.36Z"/>
      <path class="st30" d="M305.81,94.07h-1.31v30.96c8.48,0,15.36,6.88,15.36,15.36s-6.88,15.36-15.36,15.36v44.72c5.67-6.64,30.03-36.51,32.88-61.95,3.22-28.78-8.59-43.38-31.57-44.45Z"/>
      <path class="st30" d="M304.5,120.24c-11.13,0-20.15,9.02-20.15,20.15s9.02,20.15,20.15,20.15,20.15-9.02,20.15-20.15-9.02-20.15-20.15-20.15ZM304.5,155.3c-8.23,0-14.9-6.67-14.9-14.9s6.67-14.9,14.9-14.9,14.9,6.67,14.9,14.9-6.67,14.9-14.9,14.9Z"/>
      <path class="st45" d="M304.5,120.24v5.25h0c8.23,0,14.9,6.67,14.9,14.9s-6.67,14.9-14.9,14.9h0v5.25c11.13,0,20.15-9.02,20.15-20.15s-9.02-20.15-20.15-20.15Z"/>
    </g>
    <path class="st34" d="M301.47,213.76s7.71-19.2,29.07-19.69h.1c2.46,1.94,3.63,4.01,3.63,6.4,0,7.38-13.33,13.36-29.77,13.36-1.08,0-1.95-.02-3-.07h-.03Z"/>
  </g>
  <g id="beaker">
    <ellipse class="st5" cx="449.96" cy="211.51" rx="37.91" ry="13.79"/>
    <path class="st34" d="M412.82,214.29c-.51-.9-.77-1.83-.77-2.78,0-7.62,16.97-13.79,37.91-13.79,6.15,0,11.96.53,17.09,1.48l-.22.19c-27.68,14.24-53.9,14.88-53.9,14.88l-.12.02Z"/>
    <g>
      <path class="st6" d="M440.33,126.71h21.1s1.53,1.95,0,3.21-2.46,3.49-2.46,3.49v26.91l19.03,47.4s.89,2.55,0,3.63c-.94,1.13-28.39,11.25-53.99.28l-.49-.28c-1.11-.98,0-3.63,0-3.63l19.03-47.4v-26.91s-.93-2.23-2.46-3.49,0-3.21,0-3.21h21.1"/>
      <path class="st16" d="M437.39,173.17s4.4-4.83,8.15,2.89c0,0,1.51,2.08,3.76,1.06s6.13-3.92,9.8.74,8.1,2.97,8.1,2.97l10.97,27.51s-1.31,2.47-3.72,2.85-39.81,6.11-51.43-2.42l14.36-35.6Z"/>
      <path class="st4" d="M461.43,126.71s.2.25.38.63c.33.68.6,1.77-.38,2.57-1.53,1.25-2.46,3.49-2.46,3.49v26.91l8.7,21.66.14.35-2.96,1.35-7.33-19.47c-.34-.9-.58-1.84-.7-2.8-.09-.69-.17-1.47-.17-2.08v-27.51l4.79-5.1"/>
      <path class="st2" d="M467.21,180.83l-3.32.16,9.54,26.69s-2-2.72-23.86-3.92c-20.59-1.13-26.04,3.95-26.04,3.95l-.06.15s-1.05,2.49.06,3.47l.49.28c25.6,10.97,53.05.85,53.99-.28s0-3.63,0-3.63l-10.07-25.07-.73-1.81Z"/>
      <circle class="st49" cx="439.79" cy="197.72" r="8.32"/>
      <circle class="st49" cx="459.17" cy="188.63" r="5.68"/>
      <circle class="st49" cx="457.91" cy="203.79" r="4.41"/>
      <path class="st29" d="M453.5,204.04c.13,2.32,2.05,4.17,4.41,4.17,2.08,0,3.82-1.43,4.29-3.37l-.18-.02s-4.59-.66-8.28-.8l-.23.02Z"/>
      <path class="st43" d="M434.7,204.3c1.41,1.09,3.17,1.74,5.09,1.74,2.24,0,4.27-.88,5.76-2.32l.12-.12h-.31s-6.01-.13-10.53.52h-.33s.2.17.2.17Z"/>
      <path class="st20" d="M443.94,129.4s2.98.96,2.98,4.22-.48,27.5-.48,27.5c0,0-.56,1.55-1.74.39,0,0-.16-.21-.17-1.96l.53-25.16c.02-.83-.19-1.66-.67-2.33-.22-.31-.35-.41-.81-.7-.85-.54-1.28-2.11.35-1.98Z"/>
      <path class="st20" d="M446.65,162.9s-1.56.88-2.21.53v3.14s.16,1.02,1.1.93,1.07-.65,1.1-1.28c.04-.8,0-3.32,0-3.32Z"/>
      <path class="st49" d="M437.39,173.17l-12.77,31.65-.97,2.4c-.36.89-.02,1.91.8,2.41l.57.35,15.26-38.29s-1.35-.04-2.89,1.48Z"/>
      <path class="st29" d="M474.46,211.19s-13.88,6.03-32.79,3.4c0,0-.75-1.32,0-1.69s14.97,3.79,32.07-3.03c0,0,1.55.34.71,1.33Z"/>
    </g>
  </g>
  <g id="graph">
    <ellipse class="st8" cx="333.14" cy="290.64" rx="15.65" ry="41.98" transform="translate(-56.97 498.65) rotate(-69.17)"/>
    <polygon class="st37" points="338.02 216.38 338.69 215.07 341.66 215.2 346 231.37 342.01 234.44 338.02 216.38"/>
    <polygon class="st37" points="367.01 211.13 368.04 210.16 370.67 209.87 369.01 224.68 365.63 224.68 367.01 211.13"/>
    <polygon class="st37" points="340.68 242.59 340.53 244.02 344.57 243.83 365.44 221.19 361.53 218.18 340.68 242.59"/>
    <polygon class="st37" points="311.69 236.88 311.1 239.04 315.37 239.04 336.18 225.49 335.81 221.19 311.69 236.88"/>
    <g>
      <g>
        <path class="st38" d="M300.02,243.04l11.72,5.26,6.33-2.35s-.22-.56-.24-.57l-11.38-4.37-6.43,2.02s0,.01,0,.01Z"/>
        <polyline class="st36" points="311.74 283.82 317.87 279.97 317.87 245.7 311.74 248.3 311.74 283.82"/>
        <polygon class="st0" points="300 243.13 311.69 248.2 311.69 283.73 300 277.98 300 243.25 300 243.13"/>
      </g>
      <g>
        <path class="st38" d="M316.46,239.96l11.67,4.92,6.14-2.53s.03-.05,0-.06l-11.38-4.37-6.43,2.02s0,.01,0,.01Z"/>
        <polyline class="st36" points="328.18 291.74 334.32 287.65 334.32 242.38 328.18 244.98 328.18 291.5"/>
        <polygon class="st0" points="316.45 240.04 328.13 244.91 328.13 291.65 316.45 286.02 316.45 240.07 316.45 240.04"/>
      </g>
      <g>
        <path class="st38" d="M332.5,269.73l11.67,4.92,6.14-2.53s.03-.05,0-.06l-11.38-4.37-6.43,2.02s0,.01,0,.01Z"/>
        <polyline class="st36" points="344.23 299.45 350.31 295.4 350.31 272.12 344.17 274.72 344.17 299.25"/>
        <polygon class="st0" points="332.5 269.81 344.17 274.61 344.17 299.35 332.49 293.67 332.5 270.23 332.5 269.81"/>
      </g>
      <g>
        <path class="st38" d="M348.39,254.07l11.67,4.92,6.14-2.53c0-.06.03-.1,0-.11l-11.38-4.31-6.45,2.02s-.02,0,.02,0Z"/>
        <polyline class="st36" points="360.12 306.85 366.2 302.74 366.2 256.47 360.13 259.1 360.07 306.59"/>
        <polygon class="st0" points="348.38 254.16 360.07 259.02 360.07 306.76 348.38 301.11 348.38 254.36 348.38 254.16"/>
      </g>
    </g>
    <polygon class="st26" points="311.04 233.41 338.54 215.13 342.74 233.14 358.55 215.89 355.53 212.41 368.04 210.09 365.44 224.52 362.08 220.58 340.48 243.8 335.21 222.6 311.06 238.93 311.04 233.52 311.04 233.41"/>
  </g>
  <g id="book_1">
    <path class="st8" d="M183.72,297.31s-13.5,6.23-29.84,2.48-77.27-28.8-77.27-28.8c0,0-15.36-6.37-8.42-13.44l5.34-2.52,7.59-3.63s101.73-16.79,102.59,45.92Z"/>
    <polygon class="st25" points="139.85 267.85 140.71 266.11 188.91 234.65 134.63 214.1 81.4 236.37 82.2 238.13 139.85 267.85"/>
    <path class="st0" d="M140.71,266.11l-59.31-29.75s-3.84,8.01,0,15.59l61.01,30.12v-15.59l-1.7-.37Z"/>
    <path class="st21" d="M99.19,247.16s-1.88,6.87.29,11.59l-16.74-7.98s-2.27-6.41.69-12.02l15.77,8.4Z"/>
    <path class="st14" d="M140.71,266.11s-2.8,11.89,1.7,15.96l46.5-31.52v-15.91l-48.2,31.47Z"/>
    <path class="st31" d="M143.18,268.01s-1.93,8.22,1.18,11.04l32.15-21.79v-11l-33.33,21.76Z"/>
    <polygon class="st1" points="174.92 251.81 143.67 272.01 143.67 273.39 174.92 253.09 174.92 251.81"/>
    <polygon class="st1" points="160.35 265.16 144.35 275.66 144.35 276.81 160.35 266.33 160.35 265.16"/>
    <path class="st34" d="M168.16,300.87s14.79-3,15.55-3.56,32.79-24.37,32.79-24.37c0,0,7.09-.38,7.51,1.02,0,.01,0,.03.01.04.44,1.58-2.01,3.31-3.34,4.28l-26.55,19.39c-3.61,2.64-8.02,3.97-12.49,3.78l-13.49-.58Z"/>
  </g>
  <g id="book2">
    <g>
      <polygon class="st11" points="133.32 263.59 194.38 234.05 146.98 210.17 79.71 232.34 79.71 235.25 133.32 263.59"/>
      <polygon class="st35" points="133.29 261.18 133.29 263.59 79.71 235.25 79.71 232.34 133.29 261.18"/>
      <path class="st51" d="M156.67,206.24l39.81,21.57v2.33l-63.6,29.52-50.69-26.71v-2.62l2.23-.1-1.75-2.04s25.64-19.13,43.65-12.43c0,0,12.86-12.64,30.34-9.53Z"/>
      <polygon class="st52" points="83.63 231.05 132.84 257.49 132.84 258.41 83.63 231.89 83.63 231.05"/>
      <path class="st17" d="M129.01,217.32s5.94-10.38,27.4-9.72l37.97,19.93s-13.07.1-26.2,10.94l-39.18-21.15Z"/>
    </g>
    <path class="st17" d="M127.29,217.83s-16.96-7.67-40.96,10.91l47.07,26.23s15.67-14.23,33.23-15.11l-39.34-22.03Z"/>
    <g>
      <path class="st50" d="M119.49,219.63l-1.71-.55-.15.02c-1.99.23-3.22.5-5.04,1l-.14.04,1.39.51.12-.03c2.19-.57,3.55-.77,5.4-.96h.14Z"/>
      <path class="st50" d="M124.31,219.41l-.95-.59h-.18c-1.41-.03-1.86-.02-3.1.06h0l1.36.6h.1c1.22-.08,1.63-.08,2.6-.06h.18Z"/>
      <path class="st50" d="M125.34,219.41l-.7-.49h.15c1.02.08,1.9.21,2.95.39l.98.48s-.98-.29-3.28-.37h-.11Z"/>
      <path class="st50" d="M111.39,221.33l-1.23-.51-.08.03c-.93.3-1.41.49-2.28.83l-.14.06,1.13.52.14-.05c.94-.37,1.45-.55,2.35-.83l.11-.04Z"/>
      <path class="st50" d="M115.02,226.35l-2.09-.64-.07.03c-1.5.74-2.37,1.27-3.59,2.07l-.21.14,1.87.63.06-.04c1.46-.91,2.47-1.46,3.88-2.12l.15-.07Z"/>
      <path class="st50" d="M120.59,224.23l-1.78-.87-.15.04c-1.5.43-2.07.65-3.4,1.23l-.24.1,2.08.71.24-.1c1.31-.53,1.77-.69,2.99-1.04l.26-.08Z"/>
      <path class="st50" d="M125.95,222.1l1.47.8.25-.02c4.15-.43,6.19.12,6.19.12l-.98-.48c-2.45-.43-4.47-.56-6.7-.43h-.23Z"/>
      <path class="st50" d="M121.75,223.91c1.42-.38,1.91-.48,3.14-.67l.3-.05-1.77-.83-.13.02c-1.33.17-1.84.29-3.08.61l-.42.11,1.8.87.16-.04Z"/>
      <path class="st50" d="M107.9,228.74l1.89.57-.15.1c-2.06,1.37-4.01,2.92-6.09,4.9l-1.43-.58s1.9-2.27,5.66-4.91l.12-.08Z"/>
      <path class="st50" d="M118.52,233.4l-1.63-.58-.05.03c-1.46.92-2.31,1.55-3.31,2.36l-.14.14,1.54.66.07-.06c1.27-1.02,2.18-1.68,3.42-2.49l.11-.07Z"/>
      <path class="st50" d="M124.17,229.2l-.27.1,1.81.36h.06c1.39-.56,2.35-.87,3.62-1.21l.1-.05-1.35-.42h-.04c-1.6.39-2.62.73-4.02,1.26"/>
      <path class="st50" d="M130.54,228.13c1.01-.25,1.75-.38,2.65-.52l.1-.02-.88-.41h-.04c-1.13.13-1.66.21-2.71.43"/>
      <path class="st50" d="M112.59,236.02l1.58.61-.09.08c-.8.67-1.51,1.31-2.32,2.07l-1.43-.58s.68-.82,2.21-2.14l.05-.04Z"/>
      <path class="st50" d="M137.63,233.18c1.68-.52,2.9-.8,4.26-1.06l.1-.02-1.49-.46-.13.02c-1.74.27-2.64.5-4.2.94l-.12.03,1.58.54.08-.02"/>
      <path class="st50" d="M124.57,237.79l1.54.68-.21.13c-2.03,1.26-3.83,2.55-5.97,4.3l-1.43-.58s1.91-1.99,5.88-4.45l.17-.08Z"/>
      <path class="st50" d="M150.24,236.08c1.79-.24,3.52-.35,5.48-.34l.98.48s-1.68-.19-5.08.29h-.08l-1.52-.39.23-.03Z"/>
      <path class="st50" d="M133.29,242.33l1.41.31-.11.14c-2.18,1.43-4.19,3.01-6.23,5.16l-1.43-.58s2.01-2.29,6.26-4.97l.1-.06Z"/>
      <path class="st50" d="M144.33,238.09c2.25-.73,4.05-1.1,5.87-1.39l.14-.02-1.72-.34-.13.02c-2.22.36-3.54.73-5.47,1.37l-.25.08,1.48.31.15-.05"/>
      <path class="st50" d="M107.49,222.79l-1.15-.51-.08.03c-2.52,1.08-4.43,2.15-6.23,3.26h0s-.12.07-.12.07c0,0-.01,0-.02.01h0s0,0,0,0l1.3.49h0c2.16-1.39,4.1-2.42,6.18-3.31l.11-.05Z"/>
      <path class="st50" d="M100.09,226.88l-.08-.03-1.19-.43-.07-.03c-2.8,1.82-4.2,3.11-4.2,3.11l1.43.58c1.37-1.19,2.75-2.25,4.12-3.2Z"/>
      <path class="st50" d="M122.84,229.72l1.65.44-.12.05c-1.66.72-3.12,1.48-4.9,2.58l-.05.03-1.62-.57.13-.08c1.54-.93,2.88-1.64,4.87-2.44l.04-.02Z"/>
      <polyline class="st50" points="130.68 228.09 130.54 228.13 129.49 227.67 129.72 227.59"/>
      <path class="st50" d="M133.68,227.04c2.04-.19,4.14-.22,6.42-.05l.98.48s-2.44-.57-6.73-.02h-.03s-.91-.38-.91-.38l.28-.03Z"/>
      <path class="st50" d="M128.34,237.16c-.43.24-.61.34-1.05.6l-.09.05-1.72-.65.15-.09c.45-.27.48-.29.97-.55l.11.04,1.41.52.22.08Z"/>
      <path class="st50" d="M129.88,234.88l1.66.65-.12.06c-.94.44-1.55.72-2.54,1.26h-.07l-1.61-.65.14-.07c.9-.48,1.46-.76,2.49-1.22l.05-.02Z"/>
      <path class="st50" d="M134.89,232.95l1.57.6-.13.04c-1.36.45-2.33.82-3.84,1.5l-.07.03-1.7-.61.16-.07c1.35-.58,2.39-.97,3.93-1.44l.08-.05Z"/>
      <path class="st50" d="M143.22,231.89c3.54-.58,5.33-.33,5.33-.33l-.98-.48c-2-.01-3.63.08-5.46.33l-.29.04,1.35.43.06.02Z"/>
      <path class="st50" d="M138.33,240.54l-1.29-.35-.07.03c-1.18.59-1.79.94-2.78,1.54l-.2.12,1.48.26.12-.07c1-.63,1.53-.93,2.53-1.43l.2-.1Z"/>
      <path class="st50" d="M143.39,238.45l-1.72-.26h0c-1.33.47-2.02.77-3.2,1.31l-.15.07,1.39.3.1-.05c1.34-.62,2.11-.88,3.38-1.31l.18-.06Z"/>
    </g>
    <g>
      <path class="st50" d="M164.52,231.82l1.07.44-.19.12c-1.86,1.18-2.61,1.81-2.61,1.81l-.94-.59c.99-.69,1.64-1.13,2.58-1.72l.09-.06Z"/>
      <path class="st50" d="M174.94,226.64l1.3.3-.28.1c-2.28.81-3.7,1.48-5.56,2.45l-.11.06-1.23-.33.26-.13c2.26-1.16,3.64-1.74,5.53-2.41l.09-.03Z"/>
      <path class="st50" d="M167.88,221.57l1.11.33.26-.09c1.41-.49,1.85-.61,3.36-.92l.26-.06-1.38-.3-.11.02c-1.24.27-1.53.35-3.11.89l-.39.13Z"/>
      <path class="st50" d="M160.71,224.68l1.18.35-.19.1c-4.29,2.27-6.88,4.33-6.88,4.33l-.94-.59c2.48-1.74,4.49-2.97,6.68-4.12l.15-.08Z"/>
      <path class="st50" d="M162.47,224.68l-1.03-.38.15-.07c1.16-.59,1.59-.79,2.65-1.25l.09-.04,1.17.3-.15.06c-1.2.51-1.72.77-2.77,1.31l-.12.06Z"/>
      <path class="st50" d="M166.77,221.96l1.24.28-.13.05c-.66.23-.63.22-1.25.48l-.08.03-1.3-.25.18-.07c.72-.3.54-.23,1.2-.47l.14-.05Z"/>
      <path class="st50" d="M173.2,220.17c3.16-.63,4.5-.42,4.5-.42l1.69.48c-1.84-.07-2.91-.04-4.72.28l-.15.02-1.64-.3.32-.06Z"/>
      <path class="st50" d="M150.24,222.31l.97.49-.13.07c-2.82,1.65-4.35,2.88-4.35,2.88l-.94-.59c1.59-1.12,2.82-1.92,4.29-2.77l.15-.09Z"/>
      <path class="st50" d="M162.04,217.28c4.77-1.28,7.37-.95,7.37-.95l1.69.48c-2.72-.11-5.06.18-7.64.84l-.17.04-1.47-.36.21-.06Z"/>
      <path class="st50" d="M161.04,217.55l1.35.38-.27.08c-1.43.39-2.43.76-3.74,1.28l-.94-.53c1.34-.52,2.24-.81,3.39-1.13l.22-.06Z"/>
      <path class="st50" d="M154.26,220.17l.99.48-.19.09c-1.28.61-1.84.97-2.89,1.57l-.15.03-1.02-.46.15-.08c1.17-.66,1.84-1.01,2.92-1.52l.2-.09Z"/>
      <path class="st50" d="M139.33,220.87l.9.58-.11.08c-.54.38-.71.52-.71.52l-.94-.59c.35-.24.44-.31.78-.54l.08-.06Z"/>
      <path class="st50" d="M135.66,216.11l.92.54-.16.1c-2.07,1.27-3.06,2.07-3.06,2.07l-.94-.59c1.16-.81,2-1.42,3.11-2.08l.12-.03Z"/>
      <path class="st50" d="M147.47,211.64l-.26.08-.91-.46.13-.04c1.25-.39,1.68-.51,2.75-.73l.16-.03,1.15.39-.15.03c-1.25.27-1.87.44-3.04.81"/>
      <path class="st50" d="M151.13,210.11l1.15.4.15-.03c2.26-.39,4.12-.47,6.5-.28l-1.69-.48s-1.93-.33-5.81.34l-.3.04Z"/>
      <path class="st50" d="M141.72,212.96l1.11.5-.2.09c-2.24.97-3.79,1.8-5.34,2.72h-.09l-.95-.51.18-.11c1.99-1.18,3.41-1.88,5.21-2.65l.07-.03Z"/>
      <path class="st50" d="M145.4,211.56l.99.44-.17.06c-.89.3-1.18.41-2.01.75l-.15.06-1.01-.44.14-.06c.91-.36,1.21-.48,2.05-.75l.16-.05Z"/>
      <path class="st50" d="M140.73,219.95c-.4.25-.25.16-.66.43l-.17.11.94.54.11-.08c.29-.2.29-.2.65-.44l.11-.07-.85-.56-.14.07Z"/>
      <path class="st50" d="M148.68,215.68l1.01.47-.12.05c-1.26.54-2,.83-3.09,1.4l-.09.05-.83-.49.11-.05c1.19-.61,1.81-.92,2.89-1.38l.12-.04Z"/>
      <path class="st50" d="M153.46,213.93l1.12.44-.19.06c-1.61.46-2.61.84-4.06,1.45l-.08.04-.98-.48.17-.07c1.67-.7,2.54-1,3.93-1.4l.1-.03Z"/>
      <path class="st50" d="M157.88,212.91l1.74.39-.24.03c-1.4.18-2.13.34-3.47.69h-.08l-1.26-.41.18-.05c1.45-.39,1.96-.51,3.03-.66h.1Z"/>
      <path class="st50" d="M159.5,212.7c1.78-.18,2.59-.07,2.59-.07l1.69.48c-1.1-.04-1.43-.05-2.51.05h-.19l-2.01-.41.44-.05Z"/>
      <path class="st50" d="M157.43,219.67l-1.06-.44-.08.03c-.57.24-.58.24-1.18.52l-.17.08,1.04.45.09-.04c.54-.25.62-.28,1.19-.52l.17-.07Z"/>
      <path class="st50" d="M168.58,229.46l1.17.37-.22.12c-1.36.72-1.91,1.04-2.93,1.67l-.17.1-1.09-.42.43-.32c1.18-.72,1.59-.88,2.7-1.46l.11-.05Z"/>
      <path class="st50" d="M183.48,224.55c-1.64.13-3.33.37-6.8,1.5l-.27.09,1.36.29.11-.03c2.48-.79,4.42-1.25,7.08-1.4h0l-1.16-.47-.32.03Z"/>
      <path class="st50" d="M186.27,225c.64-.03.71-.08,1.36-.05l-1.69-.48s-.16-.05-1.07,0l-.27-.02,1.33.54h.34Z"/>
      <path class="st50" d="M144.64,217.64l.92.51-.14.07c-1.39.75-2.19,1.24-3.17,1.87l-.1.06-.88-.56.15-.09c1.25-.79,1.9-1.17,3.07-1.79l.14-.08Z"/>
    </g>
  </g>
  <g id="book_3">
    <g>
      <path class="st46" d="M183.49,297.38l-17.79-67.69,36.08-23.82-3.69-.18-33.77,22.47s-8.73.7-9.88-.25l31.02-19.84.92.82,2,.2v-2.86l-.1-2.21h-3.84l-35.95,25.5v.97c0,.36,15.62,63.5,15.62,63.5,0,0,5.64,3.37,19.39,3.38Z"/>
      <path class="st42" d="M148.48,229.57v.93c0,.36,15.62,63.5,15.62,63.5,0,0,4.05,2.42,13.64,3.16l-.09-.24-24.9-66.92-4.06-.45-.21.02Z"/>
      <polygon class="st15" points="202 205.8 216.61 273.41 183.72 297.31 165.92 229.62 202 205.8"/>
      <path class="st3" d="M201.66,215.04l11.43,53.35c.21.97-.17,1.97-.98,2.55l-23.96,16.93c-1.44,1.03-3.48.31-3.93-1.38l-13.88-53.05c-.28-1.03.15-2.13,1.05-2.72l26.42-17.23c1.48-.97,3.49-.16,3.86,1.56Z"/>
      <path class="st19" d="M200.54,217.23l11.03,50.49c.19.89-.16,1.81-.87,2.34l-21.78,15.4c-1.28.95-3.09.29-3.49-1.27l-13.2-50.07c-.24-.95.13-1.96.93-2.5l23.95-15.82c1.32-.89,3.09-.15,3.43,1.43Z"/>
      <path class="st31" d="M164.32,228.16l28.74-19.12-6.68-.15-2.41-1.61-29.53,20.63s1.62,1.48,9.88.25Z"/>
      <path class="st17" d="M185.3,208.19l-26.17,19.4s-.12.65.89.36,26.35-19.05,26.35-19.05l-1.07-.71Z"/>
      <polygon class="st17" points="188.38 208.98 163.86 227.07 164.9 227.07 189.44 209 188.38 208.98"/>
      <path class="st42" d="M166.42,229.12c-.38.32-.73.57-.73.57,0,0-12.41.76-17.21-.15l35.95-25.5h3.57l-33.94,23.91s1.35,1.29,10.32.51l33.71-22.77,3.69.18-35.35,23.25Z"/>
    </g>
  </g>
  <g id="map">
    <g>
      <path class="st22" d="M371.66,340.73l-149.45-38.22-86.74,87.84s108.92,70.93,128.19,77.06c0,0,37.81-11.09,108-126.68Z"/>
      <path class="st44" d="M366.91,329.93s-69.68,105.96-107.63,126.68c0,0-89.03-40.57-134.86-66.26,0,0,67.86-58.65,88.66-101.28l153.82,40.86Z"/>
      <path class="st27" d="M335.13,329.46l-34.4,27.7,7.79.87,33.75-27.37s-4.98.76-7.14-1.19Z"/>
      <path class="st27" d="M304.95,328.38l32.13,30.51s-5.08-.54-8.11,0l-24.45-26.18s0-1.51.43-4.33Z"/>
      <path class="st27" d="M167.54,377.45l-.1-.08c-.94-.76-2.06-1.25-3.25-1.44-12.49-1.53-6.84,18.4-6.84,18.4v.1s.22-.1.22-.1c0,0,18.85-6.91,9.97-16.88ZM162.56,386.93c-1.93,0-3.5-1.57-3.5-3.5s1.57-3.5,3.5-3.5,3.5,1.57,3.5,3.5-1.57,3.5-3.5,3.5Z"/>
      <path class="st10" d="M176.17,399.87l1.38-3.96-.25-.06c-3.93-.92-7.56-1.8-11.82-2.85l-1.98,3.5s4.57,1.34,12.48,3.34l.19.02Z"/>
      <path class="st10" d="M212.1,403.25l-.85,4.44-.26-.05c-4.61-.86-8.14-1.58-12.55-2.54l-.17-.04.98-4.35h.23c4.82,1,8.23,1.77,12.38,2.53h.26Z"/>
      <path class="st10" d="M249.96,365.86l-3.25,3.36.27.22c2.75,2.26,5.47,4.61,9.48,7.65l.16.12,3.57-3.36-.24-.2c-.84-.7-1.27-1.03-2.21-1.76-3.03-2.34-5.24-4.05-7.58-5.88l-.2-.16Z"/>
      <path class="st10" d="M236.79,354.93l-3.63,2.87-.21.1.28.32c.29.31.42.44.73.74,1.67,1.59,5.06,4.18,8.43,6.91h.18l3.29-3.23-.19-.15c-4.42-3.51-6.77-5.48-8.72-7.4l-.16-.16Z"/>
      <path class="st10" d="M229.11,341.22l4.23,1.39-.05.17c-.48,1.68-.57,3.01-.45,4.75s.12,2.77,1.49,4.58l.14.2-4.07,1.64-.12-.22c-.97-1.76-1.43-3.26-1.73-5.27-.08-.53-.13-1.04-.14-1.51-.07-2.17.06-3.68.63-5.51l.06-.22Z"/>
      <path class="st10" d="M294.74,346.45v-3.62l.17-.07c6.38.36,9.61-.67,9.61-.67v3.5c-3.53.61-6.44.9-9.57.86h-.21Z"/>
      <path class="st10" d="M291.15,342.44l-.17,3.79-.24-.02c-1.17-.12-1.73-.23-2.8-.46-3.01-.64-6.12-1.35-9.45-2.41h-.13l.55-3.65.18.06c4.83,1.6,8.25,2.28,11.88,2.7h.17Z"/>
      <path class="st10" d="M275.06,338.3l-.73,3.59-.38-.16c-2.66-1.13-5.6-2.64-9.39-4.23l-.19-.08.76-3.55.18.08c1.25.52,2.13.93,3.42,1.57,2.3,1.13,4.04,1.9,6.17,2.72l.17.06Z"/>
      <path class="st10" d="M260.12,332.24l-.37,3.38h-.23c-4.2-1.51-7.74-2.55-11.92-2.47h-.19s-.18-3.37-.18-3.37h.18c4.01-.05,7.5.5,12.49,2.15l.29.1-.07.21Z"/>
      <path class="st10" d="M243.51,333.4l-1.13-3.2-.16.03c-5.62.94-9.02,3.13-11.37,7.15l-.1.17,3.74,2.17.1-.18c.49-.89,1-1.52,1.61-2.1,2.26-2.18,4.38-3.3,7.18-3.84l.15-.18Z"/>
      <path class="st10" d="M263.65,376.92l-3.33,3.09.21.17c1.15.92,1.81,1.59,2.77,2.7,1.45,1.67,2.88,3.46,3.82,6.09l.1.26,4.6-1.3-.1-.25c-1.26-3.36-3.25-6.25-7.9-10.61l-.17-.16Z"/>
      <path class="st10" d="M263.9,407.46l-2.93-3.02-.18.09c-1.9.99-3.56,1.46-5.62,1.97-1.14.28-2.07.48-3.23.65l-.22.03v4.25l.2.03c1.91-.19,3.13-.49,4.61-.91,2.37-.67,4.67-1.52,7.2-3l.18-.1Z"/>
      <path class="st10" d="M247.16,407.59v4.11h-.23c-4.28.11-8.32-.14-13.63-.7l-.22-.02.44-4.33h.22c3.94.49,6.78.76,9.41.9,1.49.08,2.35.11,3.83.05h.18Z"/>
      <path class="st10" d="M228.88,406.04l-.43,4.41-.22.03c-4.18-.53-7.56-1.11-11.93-1.87l-.3-.05.85-4.48.22.08c4.66.82,7.9,1.34,11.6,1.86l.22.03Z"/>
      <path class="st10" d="M194.71,399.77l-.99,4.31-.3-.07c-5-1.12-8.35-1.92-12.5-2.95l-.22-.05,1.29-4.06.2.05c4.73,1.09,7.93,1.8,12.17,2.7l.35.07Z"/>
      <path class="st10" d="M272.88,392.49l-4.82.33.02.23c.3,2.7-.36,5.05-2.62,7.95-.42.54-.47.64-1.01,1.1l-.14.13,3.07,2.87.18-.15c1.61-1.28,2.44-2.3,3.25-3.89,1.33-2.6,2.37-5.04,2.08-8.4v-.16Z"/>
      <path class="st48" d="M216,295.99l60.21,16.21s-51.28-3.86-91.01,27.49l30.81-43.7Z"/>
    </g>
  </g>
</svg>