<svg xmlns="http://www.w3.org/2000/svg" id="Layer_1" viewBox="0 0 96.77 97.65"><defs><style>.cls-1{fill:none;stroke:#3175bb;stroke-miterlimit:10;stroke-width:.25px}</style></defs><path class="cls-1" d="M48.37 17.33c-1.5 1.8-2.25 2.01-2.58 2.21s-.8.47-1.09.69c-1.27.96-2.19 2.25-3 3.47s-1.63 2.51-1.68 3.89.74 2.82 1.35 4.15 1.42 2.73.84 4.12c-.5 1.18-1.81 2.22-3.15 2.86-.72.34-1.53.59-2.38.61-.9.02-1.79-.19-2.61-.47-1.59-.54-3.04-1.37-4.17-2.39-1.22-1.1-2.28-2.31-3.46-3.44s-2.46-2.28-3.7-3.42c-1.09-1-2.46-2.16-2.67-3.52-.23-1.43 1.18-2.52 2.22-3.55.55-.55 1.07-1.12 1.5-1.73s.77-1.3 1.09-1.98c.64-1.37 1.36-2.68 2.18-3.98s1.47-2.61 1.64-4.06-.19-2.89-.83-4.23c-.32-.67-.73-1.32-1.15-1.96-.38-.59-.84-1.19-.95-1.86s.27-1.27.96-1.63 1.44-.22 2.08.08c.8.37 1.49.87 2.26 1.27.72.38 1.53.65 2.36.86 1.81.47 3.85.31 5.59-.28 1.39-.48 2.93-1.26 3.27-2.51 0 0 .04-.16-.02-.42M.11 10.74c.13-.08.5-.63 1.11-.95.71-.37.99-.54 1.22-.66.94-.67 1.19-.96 1.89-1.81C5.35 6.28 6.06 5.4 7.36 4.54c1.05-.69 1.97-1.03 2.62-1.19 2.25-.55 3.93-.16 6.2-.22 1.33-.06 2.58-.23 3.44-1.15.31-.43.68-.91.59-1.86"/><path class="cls-1" d="M.11 15.37c.92-1.63.05-2.18 1.36-3.04.67-.44 1.52-1.06 2.18-1.52.61-.42 1.15-.92 1.63-1.47.46-.52.91-1.06 1.37-1.58.71-.79 1.52-1.45 2.5-1.89.55-.24 1.11-.42 1.7-.52.44-.07.88-.13 1.33-.12.16 0 .31-.03.47-.03.45.01.9.04 1.34.06.36.02.71.05 1.07.06.53.02 1.06.03 1.58.03.36 0 .72-.05 1.09-.08l.92-.09c.27-.03.53-.07.8-.1.2-.03.4-.06.6-.07.42-.03.85-.07 1.27-.06 1.26.03 2.39.41 3.37 1.22.58.48 1.06 1.05 1.39 1.73.21.44.38.9.42 1.39.02.25.07.49.06.74-.03.6-.16 1.17-.4 1.73-.37.87-.94 1.6-1.53 2.33-.6.74-1.19 1.48-1.6 2.35-.18.38-.33.77-.48 1.17-.28.74-.54 1.5-.92 2.2-.29.53-.62 1.03-1.03 1.47-.44.48-.9.93-1.34 1.41-.42.45-.84.9-1.13 1.45a2.76 2.76 0 0 0-.02 2.68c.19.37.45.71.7 1.03.25.31.52.61.81.89.4.39.82.75 1.23 1.12.15.13.29.26.44.4.86.82 1.74 1.63 2.57 2.47.67.67 1.31 1.38 1.87 2.14.63.85 1.25 1.71 1.89 2.55.63.82 1.54 1.41 2.45 1.91.73.4 1.49.74 2.25 1.08.88.4 1.71.75 2.61 1.12.36.15.89.26 1.28.33.59.11.99-.01 1.56-.23.74-.29 1.35-.63 2.02-1.05.93-.59 1.87-1.19 2.79-1.8.57-.38 1.1-.76 1.64-1.18.46-.36.87-.83 1.13-1.35.14-.28.22-.72.25-1.04.03-.71-.07-.9-.35-1.45-.37-.76-.77-1.51-1.16-2.26a9.59 9.59 0 0 1-.83-2.32c-.12-.57-.16-1.25-.12-1.83.05-.69.25-1.36.54-2 .27-.61.63-1.19 1.03-1.72.51-.67 1.03-1.21 1.71-1.72.05-.04.77-.6 1.92-2.25"/><path class="cls-1" d="M.17 12.12c.22-1.27 1.65-1.32 3.05-2.54.49-.4 1.08-.99 1.49-1.48.39-.46.9-.94 1.3-1.4.52-.59 1.09-1.09 1.75-1.52.74-.47 1.26-.78 2.12-.99.41-.1.83-.19 1.25-.26 1.83-.24 3.1-.04 3.42 0 .64.06 1.28.07 1.92.05.35 0 .7-.05 1.06-.08.85-.08 1.67-.29 2.49-.49.42-.1.84-.2 1.27-.28.69-.12 1.37-.06 2.02.23.6.27 1.12.64 1.63 1.05.67.54 1.25 1.17 1.73 1.88.55.8.95 1.67 1.1 2.64.04.26.07.53.09.8.02.27.03.55 0 .83-.05.38-.14.76-.24 1.14-.21.77-.59 1.47-1.04 2.13-.43.63-.86 1.26-1.3 1.89-.45.65-.8 1.36-1.12 2.08-.29.66-.56 1.32-.88 1.96-.34.68-.78 1.32-1.31 1.88-.47.49-.95.97-1.43 1.46-.35.36-.7.73-.98 1.15-.31.47-.49.98-.45 1.55.02.28.1.55.21.81.26.59.84 1.08 1.28 1.53.33.34.71.78 1.06 1.11.57.53 1.11.98 1.68 1.5.17.15.36.35.52.5.27.25.55.53.82.78.39.37.8.74 1.18 1.13.55.57 1.02 1.14 1.56 1.72.41.44.84.85 1.25 1.29.34.36.73.78 1.09 1.11.53.49 1.13.83 1.77 1.18.44.24 1.01.46 1.48.66.88.4 1.73.65 2.67.87.56.13 1.07.04 1.63 0 .59-.04 1.11-.3 1.66-.53.72-.3 1.27-.63 1.92-1.06.53-.35.96-.68 1.44-1.1.39-.34.69-.69.97-1.12.25-.39.32-.85.33-1.32 0-.6-.08-.91-.32-1.44-.25-.55-.51-1.1-.77-1.65-.31-.67-.62-1.33-.83-2.04-.14-.46-.27-.93-.31-1.42-.04-.44-.03-.87.03-1.3.12-.85.34-1.68.73-2.44.43-.83.98-1.59 1.6-2.29.58-.66 1.19-1.21 1.93-1.7.23-.16.55-.37.78-.52.03-.02.93-.63 1.86-1.93"/><path class="cls-1" d="M.31 13.59c0-1.65 1-1.74 2.55-3 .77-.48 1.44-1.08 2.05-1.73.43-.46.83-.96 1.24-1.44.63-.72 1.32-1.38 2.16-1.87.71-.41 1.46-.71 2.28-.88.44-.09.88-.17 1.33-.17.47 0 .94-.03 1.4-.03.35 0 .69.04 1.04.06.32.02.63.05.95.06.56.02 1.13.03 1.69.03.32 0 .63-.05.95-.08.35-.04.7-.07 1.06-.12.3-.04.6-.09.91-.13.3-.04.59-.08.89-.1.34-.02.68-.03 1.03-.03.63 0 1.23.16 1.81.4.79.33 1.45.83 2.03 1.43.55.58.98 1.24 1.25 1.99.15.42.26.84.3 1.28.09.89-.06 1.73-.41 2.55-.35.82-.86 1.52-1.39 2.23-.41.54-.81 1.09-1.19 1.65-.37.55-.64 1.17-.88 1.78-.27.69-.52 1.39-.86 2.05-.33.63-.73 1.23-1.22 1.76-.31.34-.69.7-1.11 1.15-.43.45-.88.89-1.22 1.42-.24.36-.41.76-.46 1.18-.05.47 0 .93.2 1.37.25.54.59 1.02 1 1.46.25.27.49.54.76.79.54.51 1.1 1.01 1.66 1.51.16.14.32.28.47.43.82.79 1.64 1.56 2.44 2.36.81.82 1.55 1.69 2.25 2.59.57.73 1.16 1.46 1.85 2.1.49.45 1.03.84 1.62 1.16.38.21.77.4 1.16.59.89.42 1.79.81 2.71 1.14.47.17.95.32 1.45.4.4.06.79.06 1.19.02.99-.11 1.85-.55 2.7-1.03.63-.35 1.24-.73 1.84-1.14.65-.44.99-.77 1.6-1.26.42-.34.56-.48.97-1.04.34-.45.42-.88.46-1.18.09-.6-.17-1.25-.41-1.79-.33-.73-.65-1.34-1-2.06-.34-.7-.59-1.27-.78-2.03-.11-.42-.21-1.1-.24-1.53-.06-.79.4-1.94.66-2.69.36-1.07.99-1.8 1.72-2.67.61-.72 1.21-1.11 1.99-1.65 1.13-.88 1.51-1.96 1.77-2.08"/><path class="cls-1" d="M.11 18.13c.82-1.86 5.09-4.25 7.38-5.85.91-.64 1.72-1.36 2.59-2.03.79-.62 1.78-1.04 2.88-1.17 2.29-.18 4.4-.43 6.61-.67.71-.06 1.4.06 2.03.31.87.43 1.03 1.17.87 1.91-.08.18-.13.38-.24.55q-.18.3-.47.68c-.8 1.02-1.7 1.87-2.17 2.97-.71 1.91-.9 3.85-2.24 5.64-.71.86-1.34 1.66-1.89 2.58-.47.86-.47 1.73-.39 2.66.08.37.16.64.32 1.01.32.86.84 1.53 1.59 2.25 1.78 1.72 3.72 3.19 4.63 5.22.35.79.55 1.66.08 2.46-.32.43-.7.68-1.28.82-1.62.37-3.06.5-4.72.68-1.58.25-3.14.61-4.24 1.6-.95.86-.73 2.16.37 2.83 1.93 1.17 3.73.62 5.88.31 1.65-.24 2.36-.17 3.04.13.54.24.93.44 1.31.82.35.35.6.76.73 1.19.18.59.43 1.66.2 2.92 0 0 .05.82.8.51 0 0 .48-.21.28-2.41 0 0 .03-.84-.2-1.62-.28-1-1.19-2.07-2.38-2.56-.63-.18-1.26-.25-1.89-.18-1.81.31-3.44.92-5.25.8-.63-.06-1.18-.18-1.66-.49-.55-.43-.79-1.05-.39-1.66.47-.62 1.34-.94 2.12-1.19 1.42-.43 2.95-.41 4.45-.35.63.06 1.29.05 1.92-.01.55-.06.95-.19 1.35-.43 1.58-1.05 1.14-2.53.43-3.83-1.42-2.34-3.71-4.06-5.68-6.15-.71-.74-1.18-1.54-1.34-2.4-.24-1.29.08-2.58 1.03-3.69.95-1.05 1.89-1.97 2.37-3.14.55-1.11.71-2.28 1.1-3.44.32-.68.55-1.29 1.1-1.91.55-.55 1.03-1.11 1.5-1.66.79-.98 1.26-2.15.71-3.2-.71-1.23-2.52-1.48-4.1-1.29-2.21.25-4.26.43-6.47.55-1.42.12-2.4.77-3.42 1.51s-1.78 1.75-2.88 2.48C4.41 13.45.79 15.82.11 17.3"/><path class="cls-1" d="M47.35 4.09c-.21-.6-1.03-1.06-1.16-1.15-.35-.22-.71-.46-1.07-.66-.31-.18-.56-.31-.93-.3-.26 0-.56.02-.81.11-.44.15-.87.34-1.3.53-.74.31-1.49.6-2.26.83-.66.19-1.33.36-2.01.48-.31.06-.62.1-.94.13-.4.04-.8.06-1.21.09-.25.02-.5.04-.75.03-.42-.02-.84-.08-1.27-.11-.56-.04-1.1-.17-1.64-.3-.33-.08-.65-.19-.98-.28-.55-.15-1.09-.3-1.65-.42-.36-.08-.73-.07-1.06.15-.21.15-.32.34-.36.59-.06.38.05.73.16 1.08.22.68.47 1.35.7 2.02.21.63.38 1.27.47 1.93.04.31.07.62.09.93.02.23.04.45.03.68-.04.62-.12 1.25-.3 1.84-.15.48-.34.95-.54 1.42-.39.9-.93 1.73-1.39 2.59-.42.78-.79 1.58-1.18 2.37-.49.98-1.02 1.94-1.73 2.79-.44.52-.9 1.01-1.39 1.47-.29.28-.59.54-.87.83-.37.37-.72.77-.95 1.24-.24.48-.31.8-.16 1.31.16.53.59 1.04.93 1.47.6.73 1.39 1.45 2.07 2.11.4.39.76.65 1.18 1.03.46.41.97.89 1.44 1.3 1.12.99 2.13 2 3.21 3.03.64.61 1.25 1.16 2 1.64.87.56 1.81.98 2.81 1.27.41.12.76.21 1.2.24.2.01.34.06.54.05.87 0 1.54-.08 2.31-.49.42-.22.89-.51 1.25-.81.4-.34.68-.59.94-1.03.19-.32.47-.76.5-1.13.07-.7-.14-1.34-.38-1.98-.29-.79-.7-1.52-1.09-2.27-.22-.42-.45-.84-.66-1.27-.23-.46-.41-.94-.5-1.45-.1-.58-.15-1 .1-1.53.31-.65.69-1.24 1.11-1.82.54-.74 1.03-1.36 1.6-2.09.31-.39.71-.9 1.04-1.27.77-.86 1.61-1.54 2.47-2.07.44-.27.94-.53 1.39-.79.05-.03 1.53-.91 2.02-1.88"/><path class="cls-1" d="M.17 18.96c.62-1.33 1.79-2.03 2.37-2.47 1.13-.87 2.36-1.66 3.61-2.43s2.41-1.57 3.56-2.43c.97-.72 2-1.38 3.31-1.66 1.53-.33 3.19-.35 4.76-.46 1.09-.08 3.18-.27 3.2 1.01 0 .53-.46 1.03-.78 1.48-.38.53-.77 1.05-1.07 1.61-.63 1.16-.72 2.41-1.01 3.64s-.8 2.16-1.58 3.23c-.73 1-1.56 1.99-1.9 3.12s-.17 2.37.38 3.45c1 1.97 3.08 3.24 4.54 4.98.68.8 1.34 1.76 1.38 2.74.03 1.03-.51 1.66-1.72 1.99-.72.2-1.53.38-2.28.52s-1.77.36-2.53.54c-1.34.33-2.82.85-3.82 1.65-.93.74-1.02 1.63-.44 2.57s1.73 1.61 2.97 1.79c2.85.41 6.71-1.35 8.49.93 0 0 .92.91.65 1.85s-.52.65-.7 2.15"/><path class="cls-1" d="M30.33 48.82c-.31-.37-2.08-1-2.08-1-3.65-1.15-.84-2.17-.84-2.17 1.14-.47 3.36-.04 4.39-1.27.16-.18.31-.38.45-.68.08-.18.07-.5-.09-.69-.39-.55-1.08-.91-1.71-1.16-1.03-.37-2.32-.61-3.26-1.16-1.5-.98-1.4-2.22-1.88-3.58-.39-1.11-.96-2.05-1.67-3.1-.47-.55-.91-1.17-1.41-1.7-1.44-1.52-2.04-1.93-3.98-3.84-.28-.27-1.13-1.44-1.29-1.74-.63-1.23-.43-2.62.51-3.79 0 0 2.3-2.57 2.79-3.5.54-1.02.89-2.47 1.28-3.51.63-1.41 1.63-2.43 2.66-3.72.47-.68.87-1.35.95-2.09.08-.62-.08-1.23-.39-1.78-.47-.8-1.26-1.48-2.29-1.78s-2.15-.18-3.25-.05c-2.37.37-4.33.23-6.7.35-.79 0-1.44.03-2.23.34-.37.15-.86.48-1.25.73-.28.18-.53.38-.77.59-.81.74-1.4 1.68-2.27 2.46-1.66 1.41-2.91 1.78-4.45 3.16-.51.45-.64.29-.67.09-.02-.17.03-.35.14-.49.86-1.14 3.39-2.22 4.73-3.61.63-.67 1.17-1.24 1.79-1.97.71-.73 1.43-1.43 2.53-1.8 2.12-.67 4.31-.18 6.51-.31l3.37-.37c1.41-.12 2.82.06 4 .79 1.33.86 1.88 2.14 1.88 3.42 0 .61-.16 1.22-.47 1.83-.55.98-1.25 1.83-2.04 2.75-.16.18-.55.67-.55.67-.31.49-.5.88-.74 1.43-.31.98-.67 2-1.06 2.91-.39.86-1.07 1.6-1.8 2.38-1.14 1.21-2.41 2.45-1.96 4.04.53 1.84 2.35 3 3.9 4.54.07.07 2.59 2.53 3.61 3.88 1.18 1.53 1.65 3.03 2.98 4.56 1.18 1.22 2.88 1.62 4.52 2.41 1.1.61 2.41 1.12 2.55 2.18.17 1.31-2.38 2.42-3.47 2.69 0 0-1.18.4-.63 1.37.14.24.35.45.61.62.29.19.73.48.93.64"/><path class="cls-1" d="M47.35 4.09c.16 1.16-.91.68-1.01.65-.36-.11-.7-.23-1.07-.33-.46-.12-.9-.29-1.37-.38-.31-.06-.64-.08-.96-.06-.5.03-1 .1-1.49.17-.73.11-1.46.25-2.19.38-.56.1-1.12.2-1.67.29-.26.04-.52.06-.78.09l-1.04.12c-.15.02-.29.03-.44.03l-2.16.03c-.32 0-.63-.04-.95-.02-.38.02-.77.03-1.15.15-.51.17-.79.52-.84 1.04-.03.31-.04.63-.03.94.02.32.08.63.11.94.03.24.03.48.06.72.08.6.07 1.2.05 1.8 0 .39-.05.79-.12 1.18-.1.61-.27 1.22-.5 1.8-.22.57-.45 1.14-.69 1.7-.27.63-.55 1.25-.83 1.88-.23.52-.46 1.03-.68 1.55a10.204 10.204 0 0 1-2.13 3.13c-.3.31-.6.62-.91.91-.44.42-.92.82-1.35 1.25-.37.37-.73.76-.95 1.24-.13.27-.22.56-.2.87.03.28.1.55.22.81.25.57.63 1.06 1.06 1.52.36.39.73.78 1.12 1.15.55.52 1.12 1.01 1.69 1.51.37.33.75.66 1.13.99.57.5 1.14.99 1.7 1.49.2.17.38.36.57.53.83.75 1.66 1.5 2.62 2.1.82.51 1.68.9 2.63 1.1.31.07.63.09.95.14.5.06 1-.01 1.48-.15.42-.12.81-.33 1.17-.6.37-.28.66-.61.86-1.02.24-.49.32-1 .25-1.55-.11-.82-.4-1.56-.84-2.25-.52-.83-1.09-1.64-1.64-2.45-.27-.4-.51-.81-.66-1.27a3.14 3.14 0 0 1-.15-.8c-.03-.52.16-.99.46-1.41.31-.42.69-.78 1.1-1.11.71-.59 1.38-1.21 2.01-1.87.55-.58 1.06-1.2 1.61-1.79.67-.73 1.38-1.42 2.19-1.99.54-.39 1.1-.74 1.69-1.05.42-.22.84-.42 1.27-.64.04-.02 1.34-.91 1.83-2.16M.11 19.59c.09-.05.58-.82.91-1.1.67-.56 1.36-1.04 2.06-1.59 2.27-1.8 4.65-2.96 7.15-4.63.64-.43 1.34-.75 2.05-1.05 1.03-.43 2.07-.48 3.18-.54.87 0 1.89.06 2.6.55.16.18.36.44.26.8-.66 2.47-.61 3.71-1.45 6.38-.28.88-.68 1.29-1.27 2.08-.57.76-.92 1.38-1.31 2.18-.16.25-.37.84-.41 1.09-.12.81-.08 1.22-.01 1.56.22 1.15.66 2.1 1.53 3.08.71.74 1.19 1.34 2.05 2.14.57.53 1.12 1.12 1.5 1.62.56.72.85 1.29.92 1.94.06.49.03.79-.21 1.22-.29.5-1.12.78-1.74 1.01-.12.04-.24.08-.37.12-1.12.29-2.27.58-3.38.85q-.64.15-1.64.43c-.33.09-1.15.41-1.44.56-1.3.66-2.25 1.15-2.42 2.33-.14.96.5 1.84 1.33 2.57.15.13.29.22.42.32.92.66 1.89.93 3 1.06 1.42.12 2.3-.12 3.72-.3 1.46-.19 2.6-.02 3.52.76 0 0 1.65 1.24.43 2.33 0 0-.99.86-.84 1.46"/><path class="cls-1" d="M48.37 6.73s-.8-.14-1.51-.35c-.15-.05-.31-.08-.47-.11-.58-.1-1.15-.31-1.72-.44-.52-.12-1.04-.25-1.57-.35-.33-.06-.66-.07-.99-.09-.23-.02-.46-.04-.69-.03-.39.02-.77.05-1.16.09-.23.02-.46.03-.69.06-.26.03-.51.07-.77.1-.31.04-.62.09-.94.13-.22.03-.43.07-.65.1-.31.05-.62.09-.94.13l-1.1.18c-.37.06-.74.11-1.1.18-.47.09-.93.21-1.34.47-.42.27-.67.66-.78 1.14-.08.33-.12.67-.12 1.02 0 .4-.01.81-.03 1.21-.02.4-.04.81-.09 1.21-.1.85-.29 1.69-.54 2.51-.23.73-.48 1.45-.7 2.19-.21.71-.39 1.44-.59 2.15-.17.58-.33 1.17-.55 1.74-.22.57-.56 1.08-.97 1.54-.58.65-1.28 1.16-1.96 1.7-.48.37-.94.77-1.4 1.15-.41.34-.76.73-1.02 1.18-.21.37-.28.77-.22 1.2.08.52.35.95.64 1.37.45.64 1 1.2 1.59 1.72.73.65 1.49 1.26 2.24 1.88.68.56 1.36 1.13 2.05 1.68.64.52 1.27 1.04 1.96 1.49.56.37 1.14.7 1.79.9.48.15.97.26 1.48.22.73-.06 1.35-.32 1.69-1.01.11-.23.16-.47.17-.72.02-.52-.14-.99-.35-1.46-.32-.71-.81-1.31-1.27-1.93-.36-.49-.73-.97-1.05-1.48-.36-.55-.61-1.15-.74-1.8-.11-.54-.1-1.08.09-1.61.18-.51.5-.93.92-1.27.48-.39 1.03-.68 1.57-.98.78-.43 1.55-.88 2.22-1.48.54-.49 1.06-.99 1.58-1.49.35-.34.69-.71 1.04-1.04.72-.68 1.05-1.13 1.92-1.62.56-.32 1.24-.71 1.81-1 .37-.19.81-.39 1.19-.56.04-.02 1.68-.62 2.17-2.71M.11 20.39c.53-.62 1.56-1.25 2.05-1.62C3.18 18 4.31 17.1 5.42 16.4s2.13-1.33 3.28-1.98c1.06-.61 2.19-1.24 3.41-1.74.84-.34 2.13-.51 2.99-.1 1.12.52 1.07 1.83 1.05 2.71-.03 1.1-.17 2.14-.58 3.2s-1.23 2.02-1.77 3.03-.75 2.12-.7 3.23c.08 2.04 1.38 3.63 2.9 5.22.75.78 1.63 1.56 2.22 2.43.53.78.74 1.8.08 2.6-.61.74-1.8.97-2.81 1.28-1.2.37-2.42.68-3.62 1.05-1.98.61-4.84 1.8-4.61 3.8.12 1.01.99 1.91 1.79 2.67s1.7 1.36 2.91 1.65c1.28.3 2.48.1 3.76-.1 1.14-.17 2.61-.32 3.66.17 0 0 1.88.71.24 2.13 0 0-.48.44-.63 1.14"/><path class="cls-1" d="M.11 16.53c.83-1.3 1.57-1.86 2.08-2.23 1.04-.74 2.36-1.52 3.39-2.28s1.6-1.59 2.44-2.41c.71-.7 1.48-1.4 2.53-1.8 1.17-.46 2.53-.48 3.82-.5 1.42-.02 2.8-.13 4.21-.29 1.21-.14 2.43-.29 3.6.07s1.9 1.11 2.17 2.01 0 1.9-.56 2.74c-.6.9-1.43 1.69-2.08 2.57-.69.94-1.06 1.95-1.38 3s-.66 2.04-1.36 2.97c-.66.87-1.48 1.65-2.11 2.54s-.95 1.79-.8 2.77c.14.89.64 1.72 1.27 2.47 1.35 1.6 3.16 2.92 4.56 4.49 1.53 1.71 2.6 3.64 2.48 5.76-.03.55-.18 1.09-.22 1.64s.08 1.03.34 1.53c.45.85 1.13 1.59 1.2 2.5.02.22-.02.44-.1.65-.21.59-.75 2.38-.21 4.1"/><path class="cls-1" d="M.11 21.74c.5-.72 1.85-1.53 2.36-2.01.63-.49 1.25-1 1.89-1.49.93-.72 1.93-1.34 2.99-1.87 1.14-.57 2.29-1.12 3.49-1.57.61-.23 1.25-.41 1.93-.32.34.05.63.16.87.39.47.43.6.99.64 1.58.03.36 0 .72-.05 1.08-.07.45-.19.88-.37 1.3-.27.64-.58 1.26-.87 1.89-.29.62-.54 1.26-.69 1.93-.11.48-.17.96-.18 1.45 0 .26.04.52.06.78.03.45.14.89.27 1.31.27.83.7 1.58 1.22 2.29.6.81 1.31 1.51 1.99 2.24.4.43.81.86 1.15 1.34.27.39.51.79.6 1.25.07.33.04.64-.11.94-.15.31-.39.53-.66.72-.53.38-1.13.62-1.75.82-.89.29-1.79.55-2.68.83-.81.26-1.62.51-2.43.78-.95.32-1.86.73-2.76 1.15-.61.29-1.21.61-1.85.82-.62.18-1.17.11-1.64-.19-.54-.32-1.04-.69-1.56-1.04-.42-.29-.84-.57-1.27-.86 0 0-.46-.36-.43-.75v-.01c.03-.25.39-.37.65-.22.5.29 1.01.58 1.52.87.44.25.9.47 1.39.62.29.09.59.14.89.18.54.07 1.06 0 1.57-.14.63-.16 1.25-.34 1.87-.53.92-.28 1.84-.57 2.76-.85.79-.24 1.49-.46 2.13-.65.69-.21 1.36-.45 2.01-.77.43-.21.83-.47 1.12-.85.3-.39.33-.82.21-1.28-.15-.55-.48-1.01-.83-1.44-.4-.48-.83-.94-1.25-1.41-.65-.73-1.29-1.47-1.79-2.32-.47-.79-.81-1.62-.98-2.52-.08-.4-.14-.79-.15-1.2 0-.16-.03-.33-.03-.49.02-.35.05-.71.09-1.06.09-.86.33-1.68.58-2.51.13-.44.24-.88.31-1.33.07-.41.07-.82-.07-1.22-.16-.46-.61-.82-1.16-.86-.59-.05-1.14.09-1.69.24-.9.25-1.74.61-2.56 1.04-.85.44-1.62.98-2.37 1.56-.8.63-1.59 1.26-2.4 1.87-.52.36-1.44 1.11-1.95 1.72M.17 9.52c2.14-.51 3.58-2.67 4.91-4.01 1.65-1.59 3.67-2.75 6.25-2.99 1.33-.12 2.67.01 4-.12 1.01-.1 1.51-.05 2.22-.41.55-.37 1.24-.91 1.45-1.86m29.37 8.18c-.07-.02-.73.01-1.77-.3-.2-.06 0 0-.61-.14-.8-.18-1.57-.39-2.38-.61-.49-.13-.98-.27-1.48-.36-.37-.07-.74-.09-1.12-.12-.3-.02-.59-.04-.89-.03-.36.01-.72.06-1.09.08-.75.06-1.49.23-2.22.41-.64.17-1.27.37-1.82.72-.51.32-.86.77-1.06 1.34-.15.42-.22.86-.29 1.3-.11.71-.22 1.41-.38 2.11-.18.76-.42 1.5-.62 2.25-.2.71-.4 1.42-.5 2.15-.04.34-.09.69-.12 1.03-.03.33-.07.66-.06.99.01.48.03.96.11 1.43.06.38.15.74.37 1.06.23.34.56.53.96.61.41.08.81.05 1.22 0 .62-.07 1.21-.22 1.8-.45.67-.26 1.28-.61 1.84-1.05.46-.37.89-.78 1.33-1.18.71-.64 1.39-1.3 2.17-1.86.54-.38 1.1-.74 1.7-1.03.45-.22.9-.46 1.36-.68.54-.26 1.08-.51 1.62-.76.06-.03 1.52-.93 1.91-3.04"/><path class="cls-1" d="M.11 33.38c.45.49.26.53 2.36 1.95.64.37 1.31.67 2.04.85.29.07.59.1.89.13.21.02.43.04.65.03.36-.02.72-.07 1.09-.11.77-.09 1.67-.32 2.27-.4.73-.19 1.45-.4 2.18-.61.67-.19 1.28-.35 1.89-.67.41-.21.89-.57 1.16-.94.22-.29.3-.63.24-.99-.09-.52-.35-.96-.67-1.37-.52-.66-1-1.26-1.55-1.91-.72-.86-1.37-1.81-1.84-2.83-.3-.66-.53-1.32-.7-2.03-.19-.78-.4-1.66-.6-2.44-.11-.45-.29-.9-.58-1.28-.35-.45-.84-.55-1.38-.5-.51.05-1.03.31-1.48.54-.66.34-1.25.76-1.84 1.2-.72.54-1.44 1.09-2.17 1.62-.44.32-1.5 1.02-1.96 1.32m38.97 23.85c.29-1.04-.99-2.88-1.19-3.33-.18-.41-.42-.85-.4-1.29.02-.87.82-1.58 1.54-2.15 1.71-1.36 3.75-2.58 5.55-3.86.81-.58 1.5-1.17 1.79-2.02.31-.9.25-1.78-.27-2.59-1.09-1.68-1.94-3.3-2.06-5.17-.12-1.72.49-3.64 2.14-5.13.45-.4 1.26-1.3 2.2-2.89m-.01-10.82s-.5.15-1.28.19c-.27.01-.54-.02-.8-.07-.4-.09-.8-.17-1.19-.29-.8-.23-1.6-.51-2.4-.74-.49-.14-.99-.27-1.49-.37-.47-.09-.95-.09-1.43-.06-.49.03-.97.12-1.43.28-.51.17-.99.4-1.39.77-.33.3-.58.67-.72 1.09-.16.46-.3.92-.42 1.39-.2.73-.45 1.44-.73 2.14-.31.79-.65 1.58-.86 2.41-.1.39-.14.78-.18 1.18-.03.4.01.78.1 1.17.1.41.29.78.63 1.05.24.19.52.3.84.31.69.04 1.28-.2 1.84-.55.48-.29.9-.65 1.31-1.02.82-.73 1.64-1.45 2.58-2.04.65-.41 1.35-.76 2.05-1.08.84-.38 1.67-.76 2.5-1.15.25-.12.94-.34 1.77-2.53 0 0 .07-.27.69-.9"/><path class="cls-1" d="M.83 28.25c-.31.7-.45 1.4-.16 2.83.14.66.57 1.33 1.09 1.87.08.09.17.17.26.25.68.63 1.26 1.11 2.13 1.48.47.2.77.37 1.29.42.34.04.68.08 1.03.08s.97.03 1.33 0c.71-.06 1.12-.15 1.8-.32.76-.19 1.68-.42 2.38-.78.39-.2.74-.44.99-.8.23-.33.44-.71.32-1.11-.18-.61-.49-1.06-.87-1.55-.75-.95-1.52-1.86-2.18-2.87-.43-.66-.87-1.43-1.29-2.1-.33-.53-.69-1.04-1.22-1.4-.34-.23-.72-.36-1.13-.34-.37.02-.91.19-1.26.35-.71.33-1.34.78-1.95 1.27-.57.45-1.12.93-1.62 1.45-.39.4-.64.79-.93 1.26M.17 8.26c1.8-.3 2.5-1.64 3.25-2.46s1.49-1.51 2.53-2.16 1.99-1.24 3.2-1.61c1.29-.39 2.68-.46 4.04-.55s2.7.2 4.03-1.37"/><path class="cls-1" d="M.11 6.71c1.22 0 1.98-1.46 2.57-2.12.55-.61 1.23-1.07 2-1.51C6.27 2.17 7.84 1.19 9.77.81c1.11-.22 3.89-.01 4.88-.7m-7.37 0C7.12.47 5.11 1.12 4.26 1.2c-.76.07-1.36-.11-1.83-.53A2.72 2.72 0 0 0 1.87.3C1.75.24 1.62.17 1.49.11m46.88 21.68c-.05.07-.28.66-1.95 2.41-.33.34-.64.8-.88 1.2-.47.75-.66 1.41-.74 2.28a6.606 6.606 0 0 0 .5 2.88c.26.64.6 1.23.96 1.82.13.22 1.17 1.93.96 3.17-.11.68-.24 1.02-.38 1.27-.22.37-.36.67-1.42 1.49-.4.31-.83.55-1.27.83-1.54.98-3.21 2.06-4.39 3.33-.56.6-.74 1.23-.77 1.98s.19 1.86 1.12 3.32c.05.08.11.17.18.25.09.11.27.39.27.8"/><path class="cls-1" d="M42.07 45.95c-.02-.77-.1-1.57.22-2.36.71-1.53 2.48-2.37 4.08-3.41.16-.1.64-.43.74-.18.03.07 0 .16-.06.22l-.22.2c-.25.19-.45.34-.6.42-.42.25-.67.44-1.07.7-.8.52-1.53 1.13-1.97 1.87-.47.8-.52 1.67-.45 2.54 0 0 .14.52-.31.53-.38 0-.36-.52-.36-.52z"/><path class="cls-1" d="M41.38 45.99c-.08-1.11-.12-2.15.59-3.15.65-.92 1.65-1.62 2.7-2.25.33-.2.67-.4 1.01-.6.25-.15.34-.26.71-.47.15-.09.32-.16.49-.21.24-.08.52-.09.77-.03 1.06.26.58.99.58.99-.05.25-1.4 1.16-2.1 1.48-1.88.88-2.82 2.63-2.47 4.29 0 0 .16.96-1.14.98-1.22.01-1.15-1.02-1.15-1.02z"/><path class="cls-1" d="M48.37 41.8c-.25.11-.74.25-1.12.36s-.69.25-.98.44c-.88.59-1.28 1.09-1.48 1.75-.15.51-.22.96-.17 1.47.07.71-.44 1.38-1.29 1.65-.14.04-.29.08-.46.12-1.87.37-2.18-1.5-2.18-1.5-.28-1.28-.2-2.62.82-3.72.16-.12.24-.24.39-.43 1.33-1.21 2.94-1.98 4.45-3.01.33-.22.76-.35 1.2-.33.25.01.54.06.83.19"/><path class="cls-1" d="M48.42 43.34s-.52-.13-.76-.13c-.61 0-1.16.3-1.5.7-.59.71-.75 1.66-.56 2.45.08.33.27.63.56.87.4.34 1.24.88 2.34 1.17m-.13-25.41s-1.21 1.21-1.87 2.12c-.24.29-.49.62-.62.94-.35.6-.43 1.26-.47 1.94-.03.4 0 .8.06 1.19.13.81.46 1.56.87 2.27.06.11.12.22.18.34.07.14.16.28.24.41.45.68 2.04 3.42.09 5.52-.89.97-1.74 1.34-2.62 1.88-1.41.86-2.73 1.72-3.7 2.85-.49.57-.69 1.23-.76 1.92-.07.74.25 2.07.36 2.4 0 0 .18.71 1.63 1.49 0 0 .38.18.47.56"/><path class="cls-1" d="M48.37 24.98c-.03.07-1.31.78-1.84 1.63-.24.51-.34 1.16-.35 1.72 0 .2 0 .4.03.59.05.33.12.65.2.97.06.24.16.47.24.71 0 0 .5 1.21 1.72 2.78m-32.85 7.86c-.42 0-.44-.01-.66-.03a.597.597 0 0 1-.51-.35.305.305 0 0 1 0-.23.74.74 0 0 1 .37-.37c.52-.27 1.08-.35 1.66-.28.14.02.29.07.42.13.13.07.27.19.22.36-.03.1-.11.2-.19.28-.17.17-.39.26-.62.33-.07.02-.12.04-.16.05-.17.05-.34.09-.52.11h-.01zM30.4.14c.07.09.38.45.46.54.54.63 1.21 1.11 1.96 1.46.53.25 1.09.41 1.67.51.59.1 1.18.08 1.77.09h.02l.38-.06c.34-.06.69-.09 1.02-.18.42-.12.84-.28 1.24-.46.48-.22.91-.52 1.25-.93.18-.22.41-.51.41-.99"/><path class="cls-1" d="M32.18.11c.6.84 1.15 1.12 1.74 1.37.39.17.81.27 1.24.32.28.03.57.02.86.03h.02l.47-.06c.39-.04.76-.14 1.12-.28.42-.17.81-.4 1.12-.74.1-.11.28-.26.38-.65"/><path class="cls-1" d="M33.86.11c.5.75.85.76 1.32.86.52.12 1.07.12 1.49-.03.32-.12.72-.24.99-.83M8.62 48.08c-.79-.17-.88-.24-1.28-.43-.53-.26-.99-.44-1.54-.7-.73-.39-1.05-.6-1.61-1-.4-.29-.79-.59-1.09-.99-.32-.42-.55-.87-.4-1.4.1-.36.34-.76.6-1.03.2-.21.45-.35.72-.46.19-.06.56-.05.51-.05.4.04.76.22 1.07.46.61.47 1.24 1.07 1.77 1.63.9.89 1.07 1.14 1.95 2.08.21.22.46.54.6.82.11.23-.09.7-.23.84-.11.11-.16.13-.33.19-.08.02-.15.03-.23.05-.15.03-.3.03-.45 0h-.06zm23.7-16.04c.4-.16.43-.4.36-.74-.12-.6-.36-1.17-.57-1.74-.2-.57-.38-1.14-.56-1.71-.22-.69-.41-1.39-.64-2.08-.15-.44-.42-.81-.87-1.02-.29-.13-.6-.15-.92-.1-.22.03-.45.07-.66.13-.6.17-1.15.43-1.63.82-.26.21-.48.45-.64.75-.23.45-.22.89-.04 1.35.18.46.49.85.83 1.21.85.89 1.86 1.58 2.93 2.19.57.33 1.15.63 1.78.83.2.07.4.12.62.1h.02zM7.91 33.81l.42-.06c.51-.06.99-.19 1.46-.38.31-.13.6-.29.83-.53.22-.23.33-.5.31-.81-.01-.26-.1-.51-.23-.74-.24-.42-.53-.8-.86-1.15-.35-.37-.68-.75-1.04-1.1-.39-.38-.82-.72-1.32-.96-.69-.33-1.38-.29-2.03.09-.55.32-.97.79-1.29 1.34-.18.32-.31.65-.37 1.01-.08.48-.03.96.17 1.42.35.78.97 1.28 1.77 1.59.38.15.77.25 1.18.26.33.02.65.02.98.03h.02zM21.48.11s-.25 1.68 1.86 1.73S25.39.11 25.39.11M.11 38.77s1.42.21.95 2.02c0 0-.18.66-.95.99m0 1.53s1.19.26 2.1 1.61c.6.89 1.68 1.64 2.36 2.06.29.18.61.34.93.48.61.26 1.84.85 1.79 1.36m-7.18-.47s1.04.31 1.35.47m32.36 0s-.05-.71.2-1.03.3-.9.3-.9.15-.7.87-.8 1.25.08 1.46.57.72.36 1 .95.32.82 0 1.21m-23 0s.63-.07.93-1.34 1.22-1.21 1.45-1.16 1.18.29.68 1.65c0 0-.15.44-.48.85"/><g><path class="cls-1" d="M96.56 17.33c-1.5 1.8-2.25 2.01-2.58 2.21s-.8.47-1.09.69c-1.27.96-2.19 2.25-3 3.47s-1.63 2.51-1.68 3.89.74 2.82 1.35 4.15 1.42 2.73.84 4.12c-.5 1.18-1.81 2.22-3.15 2.86-.72.34-1.53.59-2.38.61-.9.02-1.79-.19-2.61-.47-1.59-.54-3.04-1.37-4.17-2.39-1.22-1.1-2.28-2.31-3.46-3.44s-2.46-2.28-3.7-3.42c-1.09-1-2.46-2.16-2.67-3.52-.23-1.43 1.18-2.52 2.22-3.55.55-.55 1.07-1.12 1.5-1.73s.77-1.3 1.09-1.98c.64-1.37 1.36-2.68 2.18-3.98s1.47-2.61 1.64-4.06-.19-2.89-.83-4.23c-.32-.67-.73-1.32-1.15-1.96-.38-.59-.84-1.19-.95-1.86s.27-1.27.96-1.63 1.44-.22 2.08.08c.8.37 1.49.87 2.26 1.27.72.38 1.53.65 2.36.86 1.81.47 3.85.31 5.59-.28 1.39-.48 2.93-1.26 3.27-2.51 0 0 .04-.16-.02-.42M48.24 10.84c.13-.08.56-.74 1.17-1.06.71-.37.99-.54 1.22-.66.94-.67 1.19-.96 1.89-1.81 1.02-1.04 1.73-1.92 3.03-2.78 1.05-.69 1.97-1.03 2.62-1.19 2.25-.55 3.93-.16 6.2-.22 1.33-.06 2.58-.23 3.44-1.15.31-.43.68-.91.59-1.86"/><path class="cls-1" d="M48.36 15.41c.92-1.63 0-2.22 1.31-3.08.67-.44 1.52-1.06 2.18-1.52.61-.42 1.15-.92 1.63-1.47.46-.52.91-1.06 1.37-1.58.71-.79 1.52-1.45 2.5-1.89.55-.24 1.11-.42 1.7-.52.44-.07.88-.13 1.33-.12.16 0 .31-.03.47-.03.45.01.9.04 1.34.06.36.02.71.05 1.07.06.53.02 1.06.03 1.58.03.36 0 .72-.05 1.09-.08l.92-.09c.27-.03.53-.07.8-.1.2-.03.4-.06.6-.07.42-.03.85-.07 1.27-.06 1.26.03 2.39.41 3.37 1.22.58.48 1.06 1.05 1.39 1.73.21.44.38.9.42 1.39.02.25.07.49.06.74-.03.6-.16 1.17-.4 1.73-.37.87-.94 1.6-1.53 2.33-.6.74-1.19 1.48-1.6 2.35-.18.38-.33.77-.48 1.17-.28.74-.54 1.5-.92 2.2-.29.53-.62 1.03-1.03 1.47-.44.48-.9.93-1.34 1.41-.42.45-.84.9-1.13 1.45a2.76 2.76 0 0 0-.02 2.68c.19.37.45.71.7 1.03.25.31.52.61.81.89.4.39.82.75 1.23 1.12.15.13.29.26.44.4.86.82 1.74 1.63 2.57 2.47.67.67 1.31 1.38 1.87 2.14.63.85 1.25 1.71 1.89 2.55.63.82 1.54 1.41 2.45 1.91.73.4 1.49.74 2.25 1.08.88.4 1.71.75 2.61 1.12.36.15.89.26 1.28.33.59.11.99-.01 1.56-.23.74-.29 1.35-.63 2.02-1.05.93-.59 1.87-1.19 2.79-1.8.57-.38 1.1-.76 1.64-1.18.46-.36.87-.83 1.13-1.35.14-.28.22-.72.25-1.04.03-.71-.07-.9-.35-1.45-.37-.76-.77-1.51-1.16-2.26a9.59 9.59 0 0 1-.83-2.32c-.12-.57-.16-1.25-.12-1.83.05-.69.25-1.36.54-2 .27-.61.63-1.19 1.03-1.72.51-.67 1.03-1.21 1.71-1.72.05-.04.77-.6 1.92-2.25"/><path class="cls-1" d="M48.33 12.39c.22-1.27 1.68-1.59 3.07-2.81.49-.4 1.08-.99 1.49-1.48.39-.46.9-.94 1.3-1.4.52-.59 1.09-1.09 1.75-1.52.74-.47 1.26-.78 2.12-.99.41-.1.83-.19 1.25-.26 1.83-.24 3.1-.04 3.42 0 .64.06 1.28.07 1.92.05.35 0 .7-.05 1.06-.08.85-.08 1.67-.29 2.49-.49.42-.1.84-.2 1.27-.28.69-.12 1.37-.06 2.02.23.6.27 1.12.64 1.63 1.05.67.54 1.25 1.17 1.73 1.88.55.8.95 1.67 1.1 2.64.04.26.07.53.09.8.02.27.03.55 0 .83-.05.38-.14.76-.24 1.14-.21.77-.59 1.47-1.04 2.13-.43.63-.86 1.26-1.3 1.89-.45.65-.8 1.36-1.12 2.08-.29.66-.56 1.32-.88 1.96-.34.68-.78 1.32-1.31 1.88-.47.49-.95.97-1.43 1.46-.35.36-.7.73-.98 1.15-.31.47-.49.98-.45 1.55.02.28.1.55.21.81.26.59.84 1.08 1.28 1.53.33.34.71.78 1.06 1.11.57.53 1.11.98 1.68 1.5.17.15.36.35.52.5.27.25.55.53.82.78.39.37.8.74 1.18 1.13.55.57 1.02 1.14 1.56 1.72.41.44.84.85 1.25 1.29.34.36.73.78 1.09 1.11.53.49 1.13.83 1.77 1.18.44.24 1.01.46 1.48.66.88.4 1.73.65 2.67.87.56.13 1.07.04 1.63 0 .59-.04 1.11-.3 1.66-.53.72-.3 1.27-.63 1.92-1.06.53-.35.96-.68 1.44-1.1.39-.34.69-.69.97-1.12.25-.39.32-.85.33-1.32 0-.6-.08-.91-.32-1.44-.25-.55-.51-1.1-.77-1.65-.31-.67-.62-1.33-.83-2.04-.14-.46-.27-.93-.31-1.42-.04-.44-.03-.87.03-1.3.12-.85.34-1.68.73-2.44.43-.83.98-1.59 1.6-2.29.58-.66 1.19-1.21 1.93-1.7.23-.16.55-.37.78-.52.03-.02.93-.63 1.86-1.93"/><path class="cls-1" d="M48.44 13.82c.47-3.45 1.06-1.97 2.62-3.24.77-.48 1.44-1.08 2.05-1.73.43-.46.83-.96 1.24-1.44.63-.72 1.32-1.38 2.16-1.87.71-.41 1.46-.71 2.28-.88.44-.09.88-.17 1.33-.17.47 0 .94-.03 1.4-.03.35 0 .69.04 1.04.06.32.02.63.05.95.06.56.02 1.13.03 1.69.03.32 0 .63-.05.95-.08.35-.04.7-.07 1.06-.12.3-.04.6-.09.91-.13.3-.04.59-.08.89-.1.34-.02.68-.03 1.03-.03.63 0 1.23.16 1.81.4.79.33 1.45.83 2.03 1.43.55.58.98 1.24 1.25 1.99.15.42.26.84.3 1.28.09.89-.06 1.73-.41 2.55-.35.82-.86 1.52-1.39 2.23-.41.54-.81 1.09-1.19 1.65-.37.55-.64 1.17-.88 1.78-.27.69-.52 1.39-.86 2.05-.33.63-.73 1.23-1.22 1.76-.31.34-.69.7-1.11 1.15-.43.45-.88.89-1.22 1.42-.24.36-.41.76-.46 1.18-.05.47 0 .93.2 1.37.25.54.59 1.02 1 1.46.25.27.49.54.76.79.54.51 1.1 1.01 1.66 1.51.16.14.32.28.47.43.82.79 1.64 1.56 2.44 2.36.81.82 1.55 1.69 2.25 2.59.57.73 1.16 1.46 1.85 2.1.49.45 1.03.84 1.62 1.16.38.21.77.4 1.16.59.89.42 1.79.81 2.71 1.14.47.17.95.32 1.45.4.4.06.79.06 1.19.02.99-.11 1.85-.55 2.7-1.03.63-.35 1.24-.73 1.84-1.14.65-.44.99-.77 1.6-1.26.42-.34.56-.48.97-1.04.34-.45.42-.88.46-1.18.09-.6-.17-1.25-.41-1.79-.33-.73-.65-1.34-1-2.06-.34-.7-.59-1.27-.78-2.03-.11-.42-.21-1.1-.24-1.53-.06-.79.4-1.94.66-2.69.36-1.07.99-1.8 1.72-2.67.61-.72 1.21-1.11 1.99-1.65 1.13-.88 1.51-1.96 1.77-2.08"/><path class="cls-1" d="M48.3 18.26c.82-1.86 5.09-4.38 7.38-5.98.91-.64 1.72-1.36 2.59-2.03.79-.62 1.78-1.04 2.88-1.17 2.29-.18 4.4-.43 6.61-.67.71-.06 1.4.06 2.03.31.87.43 1.03 1.17.87 1.91-.08.18-.13.38-.24.55q-.18.3-.47.68c-.8 1.02-1.7 1.87-2.17 2.97-.71 1.91-.9 3.85-2.24 5.64-.71.86-1.34 1.66-1.89 2.58-.47.86-.47 1.73-.39 2.66.08.37.16.64.32 1.01.32.86.84 1.53 1.59 2.25 1.78 1.72 3.72 3.19 4.63 5.22.35.79.55 1.66.08 2.46-.32.43-.7.68-1.28.82-1.62.37-3.06.5-4.72.68-1.58.25-3.14.61-4.24 1.6-.95.86-.73 2.16.37 2.83 1.93 1.17 3.73.62 5.88.31 1.65-.24 2.36-.17 3.04.13.54.24.93.44 1.31.82.35.35.6.76.73 1.19.18.59.43 1.66.2 2.92 0 0 .05.82.8.51 0 0 .48-.21.28-2.41 0 0 .03-.84-.2-1.62-.28-1-1.19-2.07-2.38-2.56-.63-.18-1.26-.25-1.89-.18-1.81.31-3.44.92-5.25.8-.63-.06-1.18-.18-1.66-.49-.55-.43-.79-1.05-.39-1.66.47-.62 1.34-.94 2.12-1.19 1.42-.43 2.95-.41 4.45-.35.63.06 1.29.05 1.92-.01.55-.06.95-.19 1.35-.43 1.58-1.05 1.14-2.53.43-3.83-1.42-2.34-3.71-4.06-5.68-6.15-.71-.74-1.18-1.54-1.34-2.4-.24-1.29.08-2.58 1.03-3.69.95-1.05 1.89-1.97 2.37-3.14.55-1.11.71-2.28 1.1-3.44.32-.68.55-1.29 1.1-1.91.55-.55 1.03-1.11 1.5-1.66.79-.98 1.26-2.15.71-3.2-.71-1.23-2.52-1.48-4.1-1.29-2.21.25-4.26.43-6.47.55-1.42.12-2.4.77-3.42 1.51s-1.78 1.75-2.88 2.48c-2.05 1.29-5.65 3.76-6.32 5.24"/><path class="cls-1" d="M95.54 4.09c-.21-.6-1.03-1.06-1.16-1.15-.35-.22-.71-.46-1.07-.66-.31-.18-.56-.31-.93-.3-.26 0-.56.02-.81.11-.44.15-.87.34-1.3.53-.74.31-1.49.6-2.26.83-.66.19-1.33.36-2.01.48-.31.06-.62.1-.94.13-.4.04-.8.06-1.21.09-.25.02-.5.04-.75.03-.42-.02-.84-.08-1.27-.11-.56-.04-1.1-.17-1.64-.3-.33-.08-.65-.19-.98-.28-.55-.15-1.09-.3-1.65-.42-.36-.08-.73-.07-1.06.15-.21.15-.32.34-.36.59-.06.38.05.73.16 1.08.22.68.47 1.35.7 2.02.21.63.38 1.27.47 1.93.04.31.07.62.09.93.02.23.04.45.03.68-.04.62-.12 1.25-.3 1.84-.15.48-.34.95-.54 1.42-.39.9-.93 1.73-1.39 2.59-.42.78-.79 1.58-1.18 2.37-.49.98-1.02 1.94-1.73 2.79-.44.52-.9 1.01-1.39 1.47-.29.28-.59.54-.87.83-.37.37-.72.77-.95 1.24-.24.48-.31.8-.16 1.31.16.53.59 1.04.93 1.47.6.73 1.39 1.45 2.07 2.11.4.39.76.65 1.18 1.03.46.41.97.89 1.44 1.3 1.12.99 2.13 2 3.21 3.03.64.61 1.25 1.16 2 1.64.87.56 1.81.98 2.81 1.27.41.12.76.21 1.2.24.2.01.34.06.54.05.87 0 1.54-.08 2.31-.49.42-.22.89-.51 1.25-.81.4-.34.68-.59.94-1.03.19-.32.47-.76.5-1.13.07-.7-.14-1.34-.38-1.98-.29-.79-.7-1.52-1.09-2.27-.22-.42-.45-.84-.66-1.27-.23-.46-.41-.94-.5-1.45-.1-.58-.15-1 .1-1.53.31-.65.69-1.24 1.11-1.82.54-.74 1.03-1.36 1.6-2.09.31-.39.71-.9 1.04-1.27.77-.86 1.61-1.54 2.47-2.07.44-.27.94-.53 1.39-.79.05-.03 1.53-.91 2.02-1.88"/><path class="cls-1" d="M48.44 18.87c.62-1.33 1.71-1.93 2.28-2.37 1.13-.87 2.36-1.66 3.61-2.43s2.41-1.57 3.56-2.43c.97-.72 2-1.38 3.31-1.66 1.53-.33 3.19-.35 4.76-.46 1.09-.08 3.18-.27 3.2 1.01 0 .53-.46 1.03-.78 1.48-.38.53-.77 1.05-1.07 1.61-.63 1.16-.72 2.41-1.01 3.64s-.8 2.16-1.58 3.23c-.73 1-1.56 1.99-1.9 3.12s-.17 2.37.38 3.45c1 1.97 3.08 3.24 4.54 4.98.68.8 1.34 1.76 1.38 2.74.03 1.03-.51 1.66-1.72 1.99-.72.2-1.53.38-2.28.52s-1.77.36-2.53.54c-1.34.33-2.82.85-3.82 1.65-.93.74-1.02 1.63-.44 2.57s1.73 1.61 2.97 1.79c2.85.41 6.71-1.35 8.49.93 0 0 .92.91.65 1.85s-.52.65-.7 2.15"/><path class="cls-1" d="M78.52 48.82c-.31-.37-2.08-1-2.08-1-3.65-1.15-.84-2.17-.84-2.17 1.14-.47 3.36-.04 4.39-1.27.16-.18.31-.38.45-.68.08-.18.07-.5-.09-.69-.39-.55-1.08-.91-1.71-1.16-1.03-.37-2.32-.61-3.26-1.16-1.5-.98-1.4-2.22-1.88-3.58-.39-1.11-.96-2.05-1.67-3.1-.47-.55-.91-1.17-1.41-1.7-1.44-1.52-2.04-1.93-3.98-3.84-.28-.27-1.13-1.44-1.29-1.74-.63-1.23-.43-2.62.51-3.79 0 0 2.3-2.57 2.79-3.5.54-1.02.89-2.47 1.28-3.51.63-1.41 1.63-2.43 2.66-3.72.47-.68.87-1.35.95-2.09.08-.62-.08-1.23-.39-1.78-.47-.8-1.26-1.48-2.29-1.78s-2.15-.18-3.25-.05c-2.37.37-4.33.23-6.7.35-.79 0-1.44.03-2.23.34-.37.15-.86.48-1.25.73-.28.18-.53.38-.77.59-.81.74-1.4 1.68-2.27 2.46-1.66 1.41-2.91 1.78-4.45 3.16-.51.45-.64.29-.67.09-.02-.17.03-.35.14-.49.86-1.14 3.39-2.22 4.73-3.61.63-.67 1.17-1.24 1.79-1.97.71-.73 1.43-1.43 2.53-1.8 2.12-.67 4.31-.18 6.51-.31l3.37-.37c1.41-.12 2.82.06 4 .79 1.33.86 1.88 2.14 1.88 3.42 0 .61-.16 1.22-.47 1.83-.55.98-1.25 1.83-2.04 2.75-.16.18-.55.67-.55.67-.31.49-.5.88-.74 1.43-.31.98-.67 2-1.06 2.91-.39.86-1.07 1.6-1.8 2.38-1.14 1.21-2.41 2.45-1.96 4.04.53 1.84 2.35 3 3.9 4.54.07.07 2.59 2.53 3.61 3.88 1.18 1.53 1.65 3.03 2.98 4.56 1.18 1.22 2.88 1.62 4.52 2.41 1.1.61 2.41 1.12 2.55 2.18.17 1.31-2.38 2.42-3.47 2.69 0 0-1.18.4-.63 1.37.14.24.35.45.61.62.29.19.73.48.93.64"/><path class="cls-1" d="M95.54 4.09c.16 1.16-.91.68-1.01.65-.36-.11-.7-.23-1.07-.33-.46-.12-.9-.29-1.37-.38-.31-.06-.64-.08-.96-.06-.5.03-1 .1-1.49.17-.73.11-1.46.25-2.19.38-.56.1-1.12.2-1.67.29-.26.04-.52.06-.78.09l-1.04.12c-.15.02-.29.03-.44.03l-2.16.03c-.32 0-.63-.04-.95-.02-.38.02-.77.03-1.15.15-.51.17-.79.52-.84 1.04-.03.31-.04.63-.03.94.02.32.08.63.11.94.03.24.03.48.06.72.08.6.07 1.2.05 1.8 0 .39-.05.79-.12 1.18-.1.61-.27 1.22-.5 1.8-.22.57-.45 1.14-.69 1.7-.27.63-.55 1.25-.83 1.88-.23.52-.46 1.03-.68 1.55a10.204 10.204 0 0 1-2.13 3.13c-.3.31-.6.62-.91.91-.44.42-.92.82-1.35 1.25-.37.37-.73.76-.95 1.24-.13.27-.22.56-.2.87.03.28.1.55.22.81.25.57.63 1.06 1.06 1.52.36.39.73.78 1.12 1.15.55.52 1.12 1.01 1.69 1.51.37.33.75.66 1.13.99.57.5 1.14.99 1.7 1.49.2.17.38.36.57.53.83.75 1.66 1.5 2.62 2.1.82.51 1.68.9 2.63 1.1.31.07.63.09.95.14.5.06 1-.01 1.48-.15.42-.12.81-.33 1.17-.6.37-.28.66-.61.86-1.02.24-.49.32-1 .25-1.55-.11-.82-.4-1.56-.84-2.25-.52-.83-1.09-1.64-1.64-2.45-.27-.4-.51-.81-.66-1.27a3.14 3.14 0 0 1-.15-.8c-.03-.52.16-.99.46-1.41.31-.42.69-.78 1.1-1.11.71-.59 1.38-1.21 2.01-1.87.55-.58 1.06-1.2 1.61-1.79.67-.73 1.38-1.42 2.19-1.99.54-.39 1.1-.74 1.69-1.05.42-.22.95-1.26 1.37-1.47 1.32-.98 1.56-1.44 1.67-1.35m-48.18 4.31c.09-.05.55-.91.88-1.19.67-.56 1.36-1.04 2.06-1.59 2.27-1.8 4.65-2.96 7.15-4.63.64-.43 1.34-.75 2.05-1.05 1.03-.43 2.07-.48 3.18-.54.87 0 1.89.06 2.6.55.16.18.36.44.26.8-.66 2.47-.61 3.71-1.45 6.38-.28.88-.68 1.29-1.27 2.08-.57.76-.92 1.38-1.31 2.18-.16.25-.37.84-.41 1.09-.12.81-.08 1.22-.01 1.56.22 1.15.66 2.1 1.53 3.08.71.74 1.19 1.34 2.05 2.14.57.53 1.12 1.12 1.5 1.62.56.72.85 1.29.92 1.94.06.49.03.79-.21 1.22-.29.5-1.12.78-1.74 1.01-.12.04-.24.08-.37.12-1.12.29-2.27.58-3.38.85q-.64.15-1.64.43c-.33.09-1.15.41-1.44.56-1.3.66-2.25 1.15-2.42 2.33-.14.96.5 1.84 1.33 2.57.15.13.29.22.42.32.92.66 1.89.93 3 1.06 1.42.12 2.3-.12 3.72-.3 1.46-.19 2.6-.02 3.52.76 0 0 1.65 1.24.43 2.33 0 0-.99.86-.84 1.46"/><path class="cls-1" d="M96.51 6.47c-.05-.02-.74.12-1.45-.09-.15-.05-.31-.08-.47-.11-.58-.1-1.15-.31-1.72-.44-.52-.12-1.04-.25-1.57-.35-.33-.06-.66-.07-.99-.09-.23-.02-.46-.04-.69-.03-.39.02-.77.05-1.16.09-.23.02-.46.03-.69.06-.26.03-.51.07-.77.1-.31.04-.62.09-.94.13-.22.03-.43.07-.65.1-.31.05-.62.09-.94.13l-1.1.18c-.37.06-.74.11-1.1.18-.47.09-.93.21-1.34.47-.42.27-.67.66-.78 1.14-.08.33-.12.67-.12 1.02 0 .4-.01.81-.03 1.21-.02.4-.04.81-.09 1.21-.1.85-.29 1.69-.54 2.51-.23.73-.48 1.45-.7 2.19-.21.71-.39 1.44-.59 2.15-.17.58-.33 1.17-.55 1.74-.22.57-.56 1.08-.97 1.54-.58.65-1.28 1.16-1.96 1.7-.48.37-.94.77-1.4 1.15-.41.34-.76.73-1.02 1.18-.21.37-.28.77-.22 1.2.08.52.35.95.64 1.37.45.64 1 1.2 1.59 1.72.73.65 1.49 1.26 2.24 1.88.68.56 1.36 1.13 2.05 1.68.64.52 1.27 1.04 1.96 1.49.56.37 1.14.7 1.79.9.48.15.97.26 1.48.22.73-.06 1.35-.32 1.69-1.01.11-.23.16-.47.17-.72.02-.52-.14-.99-.35-1.46-.32-.71-.81-1.31-1.27-1.93-.36-.49-.73-.97-1.05-1.48-.36-.55-.61-1.15-.74-1.8-.11-.54-.1-1.08.09-1.61.18-.51.5-.93.92-1.27.48-.39 1.03-.68 1.57-.98.78-.43 1.55-.88 2.22-1.48.54-.49 1.06-.99 1.58-1.49.35-.34.69-.71 1.04-1.04.72-.68 1.05-1.13 1.92-1.62.56-.32 1.24-.71 1.81-1 .37-.19 2.41-2.42 2.35-2.36.04-.02.66-.84.89-.79M48.3 20.45c.53-.62 1.56-1.31 2.05-1.69 1.02-.77 2.15-1.67 3.26-2.37s2.13-1.33 3.28-1.98c1.06-.61 2.19-1.24 3.41-1.74.84-.34 2.13-.51 2.99-.1 1.12.52 1.07 1.83 1.05 2.71-.03 1.1-.17 2.14-.58 3.2s-1.23 2.02-1.77 3.03-.75 2.12-.7 3.23c.08 2.04 1.38 3.63 2.9 5.22.75.78 1.63 1.56 2.22 2.43.53.78.74 1.8.08 2.6-.61.74-1.8.97-2.81 1.28-1.2.37-2.42.68-3.62 1.05-1.98.61-4.84 1.8-4.61 3.8.12 1.01.99 1.91 1.79 2.67s1.7 1.36 2.91 1.65c1.28.3 2.48.1 3.76-.1 1.14-.17 2.61-.32 3.66.17 0 0 1.88.71.24 2.13 0 0-.48.44-.63 1.14"/><path class="cls-1" d="M48.33 16.66c.83-1.3 1.54-1.99 2.06-2.36 1.04-.74 2.36-1.52 3.39-2.28s1.6-1.59 2.44-2.41c.71-.7 1.48-1.4 2.53-1.8 1.17-.46 2.53-.48 3.82-.5 1.42-.02 2.8-.13 4.21-.29 1.21-.14 2.43-.29 3.6.07s1.9 1.11 2.17 2.01 0 1.9-.56 2.74c-.6.9-1.43 1.69-2.08 2.57-.69.94-1.06 1.95-1.38 3s-.66 2.04-1.36 2.97c-.66.87-1.48 1.65-2.11 2.54s-.95 1.79-.8 2.77c.14.89.64 1.72 1.27 2.47 1.35 1.6 3.16 2.92 4.56 4.49 1.53 1.71 2.6 3.64 2.48 5.76-.03.55-.18 1.09-.22 1.64s.08 1.03.34 1.53c.45.85 1.13 1.59 1.2 2.5.02.22-.02.44-.1.65-.21.59-.75 2.38-.21 4.1"/><path class="cls-1" d="M48.32 21.88c.5-.72 1.84-1.67 2.35-2.15.63-.49 1.25-1 1.89-1.49.93-.72 1.93-1.34 2.99-1.87 1.14-.57 2.29-1.12 3.49-1.57.61-.23 1.25-.41 1.93-.32.34.05.63.16.87.39.47.43.6.99.64 1.58.03.36 0 .72-.05 1.08-.07.45-.19.88-.37 1.3-.27.64-.58 1.26-.87 1.89-.29.62-.54 1.26-.69 1.93-.11.48-.17.96-.18 1.45 0 .26.04.52.06.78.03.45.14.89.27 1.31.27.83.7 1.58 1.22 2.29.6.81 1.31 1.51 1.99 2.24.4.43.81.86 1.15 1.34.27.39.51.79.6 1.25.07.33.04.64-.11.94-.15.31-.39.53-.66.72-.53.38-1.13.62-1.75.82-.89.29-1.79.55-2.68.83-.81.26-1.62.51-2.43.78-.95.32-1.86.73-2.76 1.15-.61.29-1.21.61-1.85.82-.62.18-1.17.11-1.64-.19-.54-.32-1.04-.69-1.56-1.04-.42-.29-.84-.57-1.27-.86 0 0-.46-.36-.43-.75v-.01c.03-.25.39-.37.65-.22.5.29 1.01.58 1.52.87.44.25.9.47 1.39.62.29.09.59.14.89.18.54.07 1.06 0 1.57-.14.63-.16 1.25-.34 1.87-.53.92-.28 1.84-.57 2.76-.85.79-.24 1.49-.46 2.13-.65.69-.21 1.36-.45 2.01-.77.43-.21.83-.47 1.12-.85.3-.39.33-.82.21-1.28-.15-.55-.48-1.01-.83-1.44-.4-.48-.83-.94-1.25-1.41-.65-.73-1.29-1.47-1.79-2.32-.47-.79-.81-1.62-.98-2.52-.08-.4-.14-.79-.15-1.2 0-.16-.03-.33-.03-.49.02-.35.05-.71.09-1.06.09-.86.33-1.68.58-2.51.13-.44.24-.88.31-1.33.07-.41.07-.82-.07-1.22-.16-.46-.61-.82-1.16-.86-.59-.05-1.14.09-1.69.24-.9.25-1.74.61-2.56 1.04-.85.44-1.62.98-2.37 1.56-.8.63-1.59 1.26-2.4 1.87-.52.36-1.44 1.21-1.95 1.82m-.21-13.48c1.8-.31 3.81-2.74 5.14-4.09 1.65-1.59 3.67-2.75 6.25-2.99 1.33-.12 2.67.01 4-.12 1.01-.1 1.51-.05 2.22-.41.55-.37 1.24-.91 1.45-1.86m29.32 7.94c-.07-.02-.68.27-1.72-.05-.2-.06 0 0-.61-.14-.8-.18-1.57-.39-2.38-.61-.49-.13-.98-.27-1.48-.36-.37-.07-.74-.09-1.12-.12-.3-.02-.59-.04-.89-.03-.36.01-.72.06-1.09.08-.75.06-1.49.23-2.22.41-.64.17-1.27.37-1.82.72-.51.32-.86.77-1.06 1.34-.15.42-.22.86-.29 1.3-.11.71-.22 1.41-.38 2.11-.18.76-.42 1.5-.62 2.25-.2.71-.4 1.42-.5 2.15-.04.34-.09.69-.12 1.03-.03.33-.07.66-.06.99.01.48.03.96.11 1.43.06.38.15.74.37 1.06.23.34.56.53.96.61.41.08.81.05 1.22 0 .62-.07 1.21-.22 1.8-.45.67-.26 1.28-.61 1.84-1.05.46-.37.89-.78 1.33-1.18.71-.64 1.39-1.3 2.17-1.86.54-.38 1.1-.74 1.7-1.03.45-.22.9-.46 1.36-.68.54-.26.65-.36 1.19-.61 1.09-.34 1.71-2.98 2.29-2.98"/><path class="cls-1" d="M48.26 33.24c.45.49.3.67 2.4 2.09.64.37 1.31.67 2.04.85.29.07.59.1.89.13.21.02.43.04.65.03.36-.02.72-.07 1.09-.11.77-.09 1.67-.32 2.27-.4.73-.19 1.45-.4 2.18-.61.67-.19 1.28-.35 1.89-.67.41-.21.89-.57 1.16-.94.22-.29.3-.63.24-.99-.09-.52-.35-.96-.67-1.37-.52-.66-1-1.26-1.55-1.91-.72-.86-1.37-1.81-1.84-2.83-.3-.66-.53-1.32-.7-2.03-.19-.78-.4-1.66-.6-2.44-.11-.45-.29-.9-.58-1.28-.35-.45-.84-.55-1.38-.5-.51.05-1.03.31-1.48.54-.66.34-1.25.76-1.84 1.2-.72.54-1.44 1.09-2.17 1.62-.44.32-1.54 1.14-2 1.44m39.01 23.73c.29-1.04-.99-2.88-1.19-3.33-.18-.41-.42-.85-.4-1.29.02-.87.82-1.58 1.54-2.15 1.71-1.36 3.75-2.58 5.55-3.86.81-.58 1.5-1.17 1.79-2.02.31-.9.25-1.78-.27-2.59-1.09-1.68-1.94-3.3-2.06-5.17-.12-1.72.49-3.64 2.14-5.13.45-.4 1.26-1.3 2.2-2.89m-.06-10.84c-.1-.02-.45.18-1.23.21-.27.01-.54-.02-.8-.07-.4-.09-.8-.17-1.19-.29-.8-.23-1.6-.51-2.4-.74-.49-.14-.99-.27-1.49-.37-.47-.09-.95-.09-1.43-.06-.49.03-.97.12-1.43.28-.51.17-.99.4-1.39.77-.33.3-.58.67-.72 1.09-.16.46-.3.92-.42 1.39-.2.73-.45 1.44-.73 2.14-.31.79-.65 1.58-.86 2.41-.1.39-.14.78-.18 1.18-.03.4.01.78.1 1.17.1.41.29.78.63 1.05.24.19.52.3.84.31.69.04 1.28-.2 1.84-.55.48-.29.9-.65 1.31-1.02.82-.73 1.64-1.45 2.58-2.04.65-.41 1.35-.76 2.05-1.08.84-.38 1.67-.76 2.5-1.15.25-.12.71-.15 1.54-2.34 0 0 .35-1.08.87-1.08"/><path class="cls-1" d="M49.06 28.19c-.31.7-.49 1.46-.2 2.89.14.66.57 1.33 1.09 1.87.08.09.17.17.26.25.68.63 1.26 1.11 2.13 1.48.47.2.77.37 1.29.42.34.04.68.08 1.03.08s.97.03 1.33 0c.71-.06 1.12-.15 1.8-.32.76-.19 1.68-.42 2.38-.78.39-.2.74-.44.99-.8.23-.33.44-.71.32-1.11-.18-.61-.49-1.06-.87-1.55-.75-.95-1.52-1.86-2.18-2.87-.43-.66-.87-1.43-1.29-2.1-.33-.53-.69-1.04-1.22-1.4-.34-.23-.72-.36-1.13-.34-.37.02-.91.19-1.26.35-.71.33-1.34.78-1.95 1.27-.57.45-1.12.93-1.62 1.45-.39.4-.64.79-.93 1.26M48.2 8.3c1.21.21 2.65-1.68 3.4-2.5s1.49-1.51 2.53-2.16 1.99-1.24 3.2-1.61c1.29-.39 2.68-.46 4.04-.55s2.7.2 4.03-1.37"/><path class="cls-1" d="M48.3 6.71c1 .25 1.98-1.46 2.57-2.12.55-.61 1.23-1.07 2-1.51 1.59-.91 3.16-1.89 5.09-2.27 1.11-.22 3.89-.01 4.88-.7m-7.37 0c-.16.36-2.17 1.01-3.02 1.09-.76.07-1.36-.11-1.83-.53a2.72 2.72 0 0 0-.56-.37c-.12-.06-.25-.13-.38-.19m46.88 21.68c-.05.07-.28.66-1.95 2.41-.33.34-.64.8-.88 1.2-.47.75-.66 1.41-.74 2.28a6.606 6.606 0 0 0 .5 2.88c.26.64.6 1.23.96 1.82.13.22 1.17 1.93.96 3.17-.11.68-.24 1.02-.38 1.27-.22.37-.36.67-1.42 1.49-.4.31-.83.55-1.27.83-1.54.98-3.21 2.06-4.39 3.33-.56.6-.74 1.23-.77 1.98s.19 1.86 1.12 3.32c.05.08.11.17.18.25.09.11.27.39.27.8"/><path class="cls-1" d="M90.26 45.95c-.02-.77-.1-1.57.22-2.36.71-1.53 2.48-2.37 4.08-3.41.16-.1.64-.43.74-.18.03.07 0 .16-.06.22l-.22.2c-.25.19-.45.34-.6.42-.42.25-.67.44-1.07.7-.8.52-1.53 1.13-1.97 1.87-.47.8-.52 1.67-.45 2.54 0 0 .14.52-.31.53-.38 0-.36-.52-.36-.52z"/><path class="cls-1" d="M89.57 45.99c-.08-1.11-.12-2.15.59-3.15.65-.92 1.65-1.62 2.7-2.25.33-.2.67-.4 1.01-.6.25-.15.34-.26.71-.47.15-.09.32-.16.49-.21.24-.08.52-.09.77-.03 1.06.26.58.99.58.99-.05.25-1.4 1.16-2.1 1.48-1.88.88-2.82 2.63-2.47 4.29 0 0 .16.96-1.14.98-1.22.01-1.15-1.02-1.15-1.02z"/><path class="cls-1" d="M96.56 41.8c-.25.11-.74.25-1.12.36s-.69.25-.98.44c-.88.59-1.28 1.09-1.48 1.75-.15.51-.22.96-.17 1.47.07.71-.44 1.38-1.29 1.65-.14.04-.29.08-.46.12-1.87.37-2.18-1.5-2.18-1.5-.28-1.28-.2-2.62.82-3.72.16-.12.24-.24.39-.43 1.33-1.21 2.94-1.98 4.45-3.01.33-.22.76-.35 1.2-.33.25.01.54.06.83.19"/><path class="cls-1" d="M96.56 43.3c-.26-.07-.5-.09-.71-.08-.61.02-1.16.3-1.5.7-.59.71-.75 1.66-.56 2.45.08.33.27.63.56.87.4.34 1.11.82 2.21 1.1m0-25.35s-1.21 1.21-1.87 2.12c-.24.29-.49.62-.62.94-.35.6-.43 1.26-.47 1.94-.03.4 0 .8.06 1.19.13.81.46 1.56.87 2.27.06.11.12.22.18.34.07.14.16.28.24.41.45.68 2.04 3.42.09 5.52-.89.97-1.74 1.34-2.62 1.88-1.41.86-2.73 1.72-3.7 2.85-.49.57-.69 1.23-.76 1.92-.07.74.25 2.07.36 2.4 0 0 .18.71 1.63 1.49 0 0 .38.18.47.56"/><path class="cls-1" d="M96.56 24.98c-.03.07-1.31.78-1.84 1.63-.24.51-.34 1.16-.35 1.72 0 .2 0 .4.03.59.05.33.12.65.2.97.06.24.16.47.24.71 0 0 .5 1.21 1.72 2.78m-32.85 7.86c-.42 0-.44-.01-.66-.03a.597.597 0 0 1-.51-.35.305.305 0 0 1 0-.23.74.74 0 0 1 .37-.37c.52-.27 1.08-.35 1.66-.28.14.02.29.07.42.13.13.07.27.19.22.36-.03.1-.11.2-.19.28-.17.17-.39.26-.62.33-.07.02-.12.04-.16.05-.17.05-.34.09-.52.11h-.01zM78.59.14c.07.09.38.45.46.54.54.63 1.21 1.11 1.96 1.46.53.25 1.09.41 1.67.51.59.1 1.18.08 1.77.09h.02l.38-.06c.34-.06.69-.09 1.02-.18.42-.12.84-.28 1.24-.46.48-.22.91-.52 1.25-.93.18-.22.41-.51.41-.99"/><path class="cls-1" d="M80.37.11c.6.84 1.15 1.12 1.74 1.37.39.17.81.27 1.24.32.28.03.57.02.86.03h.02l.47-.06c.39-.04.76-.14 1.12-.28.42-.17.81-.4 1.12-.74.1-.11.28-.26.38-.65"/><path class="cls-1" d="M82.05.11c.5.75.85.76 1.32.86.52.12 1.07.12 1.49-.03.32-.12.72-.24.99-.83M56.81 48.08c-.79-.17-.88-.24-1.28-.43-.53-.26-.99-.44-1.54-.7-.73-.39-1.05-.6-1.61-1-.4-.29-.79-.59-1.09-.99-.32-.42-.55-.87-.4-1.4.1-.36.34-.76.6-1.03.2-.21.45-.35.72-.46.19-.06.56-.05.51-.05.4.04.76.22 1.07.46.61.47 1.24 1.07 1.77 1.63.9.89 1.07 1.14 1.95 2.08.21.22.46.54.6.82.11.23-.09.7-.23.84-.11.11-.16.13-.33.19-.08.02-.15.03-.23.05-.15.03-.3.03-.45 0h-.06zm23.7-16.04c.4-.16.43-.4.36-.74-.12-.6-.36-1.17-.57-1.74-.2-.57-.38-1.14-.56-1.71-.22-.69-.41-1.39-.64-2.08-.15-.44-.42-.81-.87-1.02-.29-.13-.6-.15-.92-.1-.22.03-.45.07-.66.13-.6.17-1.15.43-1.63.82-.26.21-.48.45-.64.75-.23.45-.22.89-.04 1.35.18.46.49.85.83 1.21.85.89 1.86 1.58 2.93 2.19.57.33 1.15.63 1.78.83.2.07.4.12.62.1h.02zM56.1 33.81l.42-.06c.51-.06.99-.19 1.46-.38.31-.13.6-.29.83-.53.22-.23.33-.5.31-.81-.01-.26-.1-.51-.23-.74-.24-.42-.53-.8-.86-1.15-.35-.37-.68-.75-1.04-1.1-.39-.38-.82-.72-1.32-.96-.69-.33-1.38-.29-2.03.09-.55.32-.97.79-1.29 1.34-.18.32-.31.65-.37 1.01-.08.48-.03.96.17 1.42.35.78.97 1.28 1.77 1.59.38.15.77.25 1.18.26.33.02.65.02.98.03h.02zM69.67.11s-.25 1.68 1.86 1.73S73.58.11 73.58.11M48.3 38.77s1.42.21.95 2.02c0 0-.11.68-.89 1.01m-.06 1.51s1.19.26 2.1 1.61c.6.89 1.68 1.64 2.36 2.06.29.18.61.34.93.48.61.26 1.84.85 1.79 1.36m-7.18-.47s1.04.31 1.35.47m32.36 0s-.05-.71.2-1.03.3-.9.3-.9.15-.7.87-.8 1.25.08 1.46.57.72.36 1 .95.32.82 0 1.21m-23 0s.63-.07.93-1.34 1.22-1.21 1.45-1.16 1.18.29.68 1.65c0 0-.15.44-.48.85"/></g><g><path class="cls-1" d="M48.37 66.04c-1.5 1.8-2.25 2.01-2.58 2.21s-.8.47-1.09.69c-1.27.96-2.19 2.25-3 3.47s-1.63 2.51-1.68 3.89.74 2.82 1.35 4.15 1.42 2.73.84 4.12c-.5 1.18-1.81 2.22-3.15 2.86-.72.34-1.53.59-2.38.61-.9.02-1.79-.19-2.61-.47-1.59-.54-3.04-1.37-4.17-2.39-1.22-1.1-2.28-2.31-3.46-3.44s-2.46-2.28-3.7-3.42c-1.09-1-2.46-2.16-2.67-3.52-.23-1.43 1.18-2.52 2.22-3.55.55-.55 1.07-1.12 1.5-1.73s.77-1.3 1.09-1.98c.64-1.37 1.36-2.68 2.18-3.98s1.47-2.61 1.64-4.06-.19-2.89-.83-4.23c-.32-.67-.73-1.32-1.15-1.96-.38-.59-.84-1.19-.95-1.86s.27-1.27.96-1.63 1.44-.22 2.08.08c.8.37 1.49.87 2.26 1.27.72.38 1.53.65 2.36.86 1.81.47 3.85.31 5.59-.28 1.39-.48 2.93-1.26 3.27-2.51 0 0 .04-.16-.02-.42M.11 59.45c.13-.08.5-.63 1.11-.95.71-.37.99-.54 1.22-.66.94-.67 1.19-.96 1.89-1.81 1.02-1.04 1.73-1.92 3.03-2.78 1.05-.69 1.97-1.03 2.62-1.19 2.25-.55 3.93-.16 6.2-.22 1.33-.06 2.58-.23 3.44-1.15.31-.43.68-.91.59-1.86"/><path class="cls-1" d="M.11 64.08c.92-1.63.05-2.18 1.36-3.04.67-.44 1.52-1.06 2.18-1.52.61-.42 1.15-.92 1.63-1.47.46-.52.91-1.06 1.37-1.58.71-.79 1.52-1.45 2.5-1.89.55-.24 1.11-.42 1.7-.52.44-.07.88-.13 1.33-.12.16 0 .31-.03.47-.03.45.01.9.04 1.34.06.36.02.71.05 1.07.06.53.02 1.06.03 1.58.03.36 0 .72-.05 1.09-.08l.92-.09c.27-.03.53-.07.8-.1.2-.03.4-.06.6-.07.42-.03.85-.07 1.27-.06 1.26.03 2.39.41 3.37 1.22.58.48 1.06 1.05 1.39 1.73.21.44.38.9.42 1.39.02.25.07.49.06.74-.03.6-.16 1.17-.4 1.73-.37.87-.94 1.6-1.53 2.33-.6.74-1.19 1.48-1.6 2.35-.18.38-.33.77-.48 1.17-.28.74-.54 1.5-.92 2.2-.29.53-.62 1.03-1.03 1.47-.44.48-.9.93-1.34 1.41-.42.45-.84.9-1.13 1.45a2.76 2.76 0 0 0-.02 2.68c.19.37.45.71.7 1.03.25.31.52.61.81.89.4.39.82.75 1.23 1.12.15.13.29.26.44.4.86.82 1.74 1.63 2.57 2.47.67.67 1.31 1.38 1.87 2.14.63.85 1.25 1.71 1.89 2.55.63.82 1.54 1.41 2.45 1.91.73.4 1.49.74 2.25 1.08.88.4 1.71.75 2.61 1.12.36.15.89.26 1.28.33.59.11.99-.01 1.56-.23.74-.29 1.35-.63 2.02-1.05.93-.59 1.87-1.19 2.79-1.8.57-.38 1.1-.76 1.64-1.18.46-.36.87-.83 1.13-1.35.14-.28.22-.72.25-1.04.03-.71-.07-.9-.35-1.45-.37-.76-.77-1.51-1.16-2.26a9.59 9.59 0 0 1-.83-2.32c-.12-.57-.16-1.25-.12-1.83.05-.69.25-1.36.54-2 .27-.61.63-1.19 1.03-1.72.51-.67 1.03-1.21 1.71-1.72.05-.04.77-.6 1.92-2.25"/><path class="cls-1" d="M.17 60.83c.22-1.27 1.65-1.32 3.05-2.54.49-.4 1.08-.99 1.49-1.48.39-.46.9-.94 1.3-1.4.52-.59 1.09-1.09 1.75-1.52.74-.47 1.26-.78 2.12-.99.41-.1.83-.19 1.25-.26 1.83-.24 3.1-.04 3.42 0 .64.06 1.28.07 1.92.05.35 0 .7-.05 1.06-.08.85-.08 1.67-.29 2.49-.49.42-.1.84-.2 1.27-.28.69-.12 1.37-.06 2.02.23.6.27 1.12.64 1.63 1.05.67.54 1.25 1.17 1.73 1.88.55.8.95 1.67 1.1 2.64.04.26.07.53.09.8.02.27.03.55 0 .83-.05.38-.14.76-.24 1.14-.21.77-.59 1.47-1.04 2.13-.43.63-.86 1.26-1.3 1.89-.45.65-.8 1.36-1.12 2.08-.29.66-.56 1.32-.88 1.96-.34.68-.78 1.32-1.31 1.88-.47.49-.95.97-1.43 1.46-.35.36-.7.73-.98 1.15-.31.47-.49.98-.45 1.55.02.28.1.55.21.81.26.59.84 1.08 1.28 1.53.33.34.71.78 1.06 1.11.57.53 1.11.98 1.68 1.5.17.15.36.35.52.5.27.25.55.53.82.78.39.37.8.74 1.18 1.13.55.57 1.02 1.14 1.56 1.72.41.44.84.85 1.25 1.29.34.36.73.78 1.09 1.11.53.49 1.13.83 1.77 1.18.44.24 1.01.46 1.48.66.88.4 1.73.65 2.67.87.56.13 1.07.04 1.63 0 .59-.04 1.11-.3 1.66-.53.72-.3 1.27-.63 1.92-1.06.53-.35.96-.68 1.44-1.1.39-.34.69-.69.97-1.12.25-.39.32-.85.33-1.32 0-.6-.08-.91-.32-1.44-.25-.55-.51-1.1-.77-1.65-.31-.67-.62-1.33-.83-2.04-.14-.46-.27-.93-.31-1.42-.04-.44-.03-.87.03-1.3.12-.85.34-1.68.73-2.44.43-.83.98-1.59 1.6-2.29.58-.66 1.19-1.21 1.93-1.7.23-.16.55-.37.78-.52.03-.02.93-.63 1.86-1.93"/><path class="cls-1" d="M.31 62.29c0-1.65 1-1.74 2.55-3 .77-.48 1.44-1.08 2.05-1.73.43-.46.83-.96 1.24-1.44.63-.72 1.32-1.38 2.16-1.87.71-.41 1.46-.71 2.28-.88.44-.09.88-.17 1.33-.17.47 0 .94-.03 1.4-.03.35 0 .69.04 1.04.06.32.02.63.05.95.06.56.02 1.13.03 1.69.03.32 0 .63-.05.95-.08.35-.04.7-.07 1.06-.12.3-.04.6-.09.91-.13.3-.04.59-.08.89-.1.34-.02.68-.03 1.03-.03.63 0 1.23.16 1.81.4.79.33 1.45.83 2.03 1.43.55.58.98 1.24 1.25 1.99.15.42.26.84.3 1.28.09.89-.06 1.73-.41 2.55-.35.82-.86 1.52-1.39 2.23-.41.54-.81 1.09-1.19 1.65-.37.55-.64 1.17-.88 1.78-.27.69-.52 1.39-.86 2.05-.33.63-.73 1.23-1.22 1.76-.31.34-.69.7-1.11 1.15-.43.45-.88.89-1.22 1.42-.24.36-.41.76-.46 1.18-.05.47 0 .93.2 1.37.25.54.59 1.02 1 1.46.25.27.49.54.76.79.54.51 1.1 1.01 1.66 1.51.16.14.32.28.47.43.82.79 1.64 1.56 2.44 2.36.81.82 1.55 1.69 2.25 2.59.57.73 1.16 1.46 1.85 2.1.49.45 1.03.84 1.62 1.16.38.21.77.4 1.16.59.89.42 1.79.81 2.71 1.14.47.17.95.32 1.45.4.4.06.79.06 1.19.02.99-.11 1.85-.55 2.7-1.03.63-.35 1.24-.73 1.84-1.14.65-.44.99-.77 1.6-1.26.42-.34.56-.48.97-1.04.34-.45.42-.88.46-1.18.09-.6-.17-1.25-.41-1.79-.33-.73-.65-1.34-1-2.06-.34-.7-.59-1.27-.78-2.03-.11-.42-.21-1.1-.24-1.53-.06-.79.4-1.94.66-2.69.36-1.07.99-1.8 1.72-2.67.61-.72 1.21-1.11 1.99-1.65 1.13-.88 1.51-1.96 1.77-2.08"/><path class="cls-1" d="M.11 66.84c.82-1.86 5.09-4.25 7.38-5.85.91-.64 1.72-1.36 2.59-2.03.79-.62 1.78-1.04 2.88-1.17 2.29-.18 4.4-.43 6.61-.67.71-.06 1.4.06 2.03.31.87.43 1.03 1.17.87 1.91-.08.18-.13.38-.24.55q-.18.3-.47.68c-.8 1.02-1.7 1.87-2.17 2.97-.71 1.91-.9 3.85-2.24 5.64-.71.86-1.34 1.66-1.89 2.58-.47.86-.47 1.73-.39 2.66.08.37.16.64.32 1.01.32.86.84 1.53 1.59 2.25 1.78 1.72 3.72 3.19 4.63 5.22.35.79.55 1.66.08 2.46-.32.43-.7.68-1.28.82-1.62.37-3.06.5-4.72.68-1.58.25-3.14.61-4.24 1.6-.95.86-.73 2.16.37 2.83 1.93 1.17 3.73.62 5.88.31 1.65-.24 2.36-.17 3.04.13.54.24.93.44 1.31.82.35.35.6.76.73 1.19.18.59.43 1.66.2 2.92 0 0 .05.82.8.51 0 0 .48-.21.28-2.41 0 0 .03-.84-.2-1.62-.28-1-1.19-2.07-2.38-2.56-.63-.18-1.26-.25-1.89-.18-1.81.31-3.44.92-5.25.8-.63-.06-1.18-.18-1.66-.49-.55-.43-.79-1.05-.39-1.66.47-.62 1.34-.94 2.12-1.19 1.42-.43 2.95-.41 4.45-.35.63.06 1.29.05 1.92-.01.55-.06.95-.19 1.35-.43 1.58-1.05 1.14-2.53.43-3.83-1.42-2.34-3.71-4.06-5.68-6.15-.71-.74-1.18-1.54-1.34-2.4-.24-1.29.08-2.58 1.03-3.69.95-1.05 1.89-1.97 2.37-3.14.55-1.11.71-2.28 1.1-3.44.32-.68.55-1.29 1.1-1.91.55-.55 1.03-1.11 1.5-1.66.79-.98 1.26-2.15.71-3.2-.71-1.23-2.52-1.48-4.1-1.29-2.21.25-4.26.43-6.47.55-1.42.12-2.4.77-3.42 1.51s-1.78 1.75-2.88 2.48C4.43 62.19.8 64.56.13 66.04"/><path class="cls-1" d="M47.35 52.8c-.21-.6-1.03-1.06-1.16-1.15-.35-.22-.71-.46-1.07-.66-.31-.18-.56-.31-.93-.3-.26 0-.56.02-.81.11-.44.15-.87.34-1.3.53-.74.31-1.49.6-2.26.83-.66.19-1.33.36-2.01.48-.31.06-.62.1-.94.13-.4.04-.8.06-1.21.09-.25.02-.5.04-.75.03-.42-.02-.84-.08-1.27-.11-.56-.04-1.1-.17-1.64-.3-.33-.08-.65-.19-.98-.28-.55-.15-1.09-.3-1.65-.42-.36-.08-.73-.07-1.06.15-.21.15-.32.34-.36.59-.06.38.05.73.16 1.08.22.68.47 1.35.7 2.02.21.63.38 1.27.47 1.93.04.31.07.62.09.93.02.23.04.45.03.68-.04.62-.12 1.25-.3 1.84-.15.48-.34.95-.54 1.42-.39.9-.93 1.73-1.39 2.59-.42.78-.79 1.58-1.18 2.37-.49.98-1.02 1.94-1.73 2.79-.44.52-.9 1.01-1.39 1.47-.29.28-.59.54-.87.83-.37.37-.72.77-.95 1.24-.24.48-.31.8-.16 1.31.16.53.59 1.04.93 1.47.6.73 1.39 1.45 2.07 2.11.4.39.76.65 1.18 1.03.46.41.97.89 1.44 1.3 1.12.99 2.13 2 3.21 3.03.64.61 1.25 1.16 2 1.64.87.56 1.81.98 2.81 1.27.41.12.76.21 1.2.24.2.01.34.06.54.05.87 0 1.54-.08 2.31-.49.42-.22.89-.51 1.25-.81.4-.34.68-.59.94-1.03.19-.32.47-.76.5-1.13.07-.7-.14-1.34-.38-1.98-.29-.79-.7-1.52-1.09-2.27-.22-.42-.45-.84-.66-1.27-.23-.46-.41-.94-.5-1.45-.1-.58-.15-1 .1-1.53.31-.65.69-1.24 1.11-1.82.54-.74 1.03-1.36 1.6-2.09.31-.39.71-.9 1.04-1.27.77-.86 1.61-1.54 2.47-2.07.44-.27.94-.53 1.39-.79.05-.03 1.53-.91 2.02-1.88"/><path class="cls-1" d="M.17 67.67c.62-1.33 1.79-2.03 2.37-2.47 1.13-.87 2.36-1.66 3.61-2.43s2.41-1.57 3.56-2.43c.97-.72 2-1.38 3.31-1.66 1.53-.33 3.19-.35 4.76-.46 1.09-.08 3.18-.27 3.2 1.01 0 .53-.46 1.03-.78 1.48-.38.53-.77 1.05-1.07 1.61-.63 1.16-.72 2.41-1.01 3.64s-.8 2.16-1.58 3.23c-.73 1-1.56 1.99-1.9 3.12s-.17 2.37.38 3.45c1 1.97 3.08 3.24 4.54 4.98.68.8 1.34 1.76 1.38 2.74.03 1.03-.51 1.66-1.72 1.99-.72.2-1.53.38-2.28.52s-1.77.36-2.53.54c-1.34.33-2.82.85-3.82 1.65-.93.74-1.02 1.63-.44 2.57s1.73 1.61 2.97 1.79c2.85.41 6.71-1.35 8.49.93 0 0 .92.91.65 1.85s-.52.65-.7 2.15"/><path class="cls-1" d="M30.33 97.53c-.31-.37-2.08-1-2.08-1-3.65-1.15-.84-2.17-.84-2.17 1.14-.47 3.36-.04 4.39-1.27.16-.18.31-.38.45-.68.08-.18.07-.5-.09-.69-.39-.55-1.08-.91-1.71-1.16-1.03-.37-2.32-.61-3.26-1.16-1.5-.98-1.4-2.22-1.88-3.58-.39-1.11-.96-2.05-1.67-3.1-.47-.55-.91-1.17-1.41-1.7-1.44-1.52-2.04-1.93-3.98-3.84-.28-.27-1.13-1.44-1.29-1.74-.63-1.23-.43-2.62.51-3.79 0 0 2.3-2.57 2.79-3.5.54-1.02.89-2.47 1.28-3.51.63-1.41 1.63-2.43 2.66-3.72.47-.68.87-1.35.95-2.09.08-.62-.08-1.23-.39-1.78-.47-.8-1.26-1.48-2.29-1.78s-2.15-.18-3.25-.05c-2.37.37-4.33.23-6.7.35-.79 0-1.44.03-2.23.34-.37.15-.86.48-1.25.73-.28.18-.53.38-.77.59-.81.74-1.4 1.68-2.27 2.46-1.66 1.41-2.91 1.78-4.45 3.16-.51.45-.64.29-.67.09-.02-.17.03-.35.14-.49.86-1.14 3.39-2.22 4.73-3.61.63-.67 1.17-1.24 1.79-1.97.71-.73 1.43-1.43 2.53-1.8 2.12-.67 4.31-.18 6.51-.31l3.37-.37c1.41-.12 2.82.06 4 .79 1.33.86 1.88 2.14 1.88 3.42 0 .61-.16 1.22-.47 1.83-.55.98-1.25 1.83-2.04 2.75-.16.18-.55.67-.55.67-.31.49-.5.88-.74 1.43-.31.98-.67 2-1.06 2.91-.39.86-1.07 1.6-1.8 2.38-1.14 1.21-2.41 2.45-1.96 4.04.53 1.84 2.35 3 3.9 4.54.07.07 2.59 2.53 3.61 3.88 1.18 1.53 1.65 3.03 2.98 4.56 1.18 1.22 2.88 1.62 4.52 2.41 1.1.61 2.41 1.12 2.55 2.18.17 1.31-2.38 2.42-3.47 2.69 0 0-1.18.4-.63 1.37.14.24.35.45.61.62.29.19.73.48.93.64"/><path class="cls-1" d="M47.35 52.8c.16 1.16-.91.68-1.01.65-.36-.11-.7-.23-1.07-.33-.46-.12-.9-.29-1.37-.38-.31-.06-.64-.08-.96-.06-.5.03-1 .1-1.49.17-.73.11-1.46.25-2.19.38-.56.1-1.12.2-1.67.29-.26.04-.52.06-.78.09l-1.04.12c-.15.02-.29.03-.44.03l-2.16.03c-.32 0-.63-.04-.95-.02-.38.02-.77.03-1.15.15-.51.17-.79.52-.84 1.04-.03.31-.04.63-.03.94.02.32.08.63.11.94.03.24.03.48.06.72.08.6.07 1.2.05 1.8 0 .39-.05.79-.12 1.18-.1.61-.27 1.22-.5 1.8-.22.57-.45 1.14-.69 1.7-.27.63-.55 1.25-.83 1.88-.23.52-.46 1.03-.68 1.55a10.204 10.204 0 0 1-2.13 3.13c-.3.31-.6.62-.91.91-.44.42-.92.82-1.35 1.25-.37.37-.73.76-.95 1.24-.13.27-.22.56-.2.87.03.28.1.55.22.81.25.57.63 1.06 1.06 1.52.36.39.73.78 1.12 1.15.55.52 1.12 1.01 1.69 1.51.37.33.75.66 1.13.99.57.5 1.14.99 1.7 1.49.2.17.38.36.57.53.83.75 1.66 1.5 2.62 2.1.82.51 1.68.9 2.63 1.1.31.07.63.09.95.14.5.06 1-.01 1.48-.15.42-.12.81-.33 1.17-.6.37-.28.66-.61.86-1.02.24-.49.32-1 .25-1.55-.11-.82-.4-1.56-.84-2.25-.52-.83-1.09-1.64-1.64-2.45-.27-.4-.51-.81-.66-1.27a3.14 3.14 0 0 1-.15-.8c-.03-.52.16-.99.46-1.41.31-.42.69-.78 1.1-1.11.71-.59 1.38-1.21 2.01-1.87.55-.58 1.06-1.2 1.61-1.79.67-.73 1.38-1.42 2.19-1.99.54-.39 1.1-.74 1.69-1.05.42-.22.84-.42 1.27-.64.04-.02 1.34-.91 1.83-2.16M.11 68.3c.09-.05.58-.82.91-1.1.67-.56 1.36-1.04 2.06-1.59 2.27-1.8 4.65-2.96 7.15-4.63.64-.43 1.34-.75 2.05-1.05 1.03-.43 2.07-.48 3.18-.54.87 0 1.89.06 2.6.55.16.18.36.44.26.8-.66 2.47-.61 3.71-1.45 6.38-.28.88-.68 1.29-1.27 2.08-.57.76-.92 1.38-1.31 2.18-.16.25-.37.84-.41 1.09-.12.81-.08 1.22-.01 1.56.22 1.15.66 2.1 1.53 3.08.71.74 1.19 1.34 2.05 2.14.57.53 1.12 1.12 1.5 1.62.56.72.85 1.29.92 1.94.06.49.03.79-.21 1.22-.29.5-1.12.78-1.74 1.01-.12.04-.24.08-.37.12-1.12.29-2.27.58-3.38.85q-.64.15-1.64.43c-.33.09-1.15.41-1.44.56-1.3.66-2.25 1.15-2.42 2.33-.14.96.5 1.84 1.33 2.57.15.13.29.22.42.32.92.66 1.89.93 3 1.06 1.42.12 2.3-.12 3.72-.3 1.46-.19 2.6-.02 3.52.76 0 0 1.65 1.24.43 2.33 0 0-.99.86-.84 1.46"/><path class="cls-1" d="M48.37 55.44s-.8-.14-1.51-.35c-.15-.05-.31-.08-.47-.11-.58-.1-1.15-.31-1.72-.44-.52-.12-1.04-.25-1.57-.35-.33-.06-.66-.07-.99-.09-.23-.02-.46-.04-.69-.03-.39.02-.77.05-1.16.09-.23.02-.46.03-.69.06-.26.03-.51.07-.77.1-.31.04-.62.09-.94.13-.22.03-.43.07-.65.1-.31.05-.62.09-.94.13l-1.1.18c-.37.06-.74.11-1.1.18-.47.09-.93.21-1.34.47-.42.27-.67.66-.78 1.14-.08.33-.12.67-.12 1.02 0 .4-.01.81-.03 1.21-.02.4-.04.81-.09 1.21-.1.85-.29 1.69-.54 2.51-.23.73-.48 1.45-.7 2.19-.21.71-.39 1.44-.59 2.15-.17.58-.33 1.17-.55 1.74-.22.57-.56 1.08-.97 1.54-.58.65-1.28 1.16-1.96 1.7-.48.37-.94.77-1.4 1.15-.41.34-.76.73-1.02 1.18-.21.37-.28.77-.22 1.2.08.52.35.95.64 1.37.45.64 1 1.2 1.59 1.72.73.65 1.49 1.26 2.24 1.88.68.56 1.36 1.13 2.05 1.68.64.52 1.27 1.04 1.96 1.49.56.37 1.14.7 1.79.9.48.15.97.26 1.48.22.73-.06 1.35-.32 1.69-1.01.11-.23.16-.47.17-.72.02-.52-.14-.99-.35-1.46-.32-.71-.81-1.31-1.27-1.93-.36-.49-.73-.97-1.05-1.48-.36-.55-.61-1.15-.74-1.8-.11-.54-.1-1.08.09-1.61.18-.51.5-.93.92-1.27.48-.39 1.03-.68 1.57-.98.78-.43 1.55-.88 2.22-1.48.54-.49 1.06-.99 1.58-1.49.35-.34.69-.71 1.04-1.04.72-.68 1.05-1.13 1.92-1.62.56-.32 1.24-.71 1.81-1 .37-.19.81-.39 1.19-.56.04-.02 1.68-.62 2.17-2.71M.11 69.1c.53-.62 1.56-1.25 2.05-1.62 1.02-.77 2.15-1.67 3.26-2.37s2.13-1.33 3.28-1.98c1.06-.61 2.19-1.24 3.41-1.74.84-.34 2.13-.51 2.99-.1 1.12.52 1.07 1.83 1.05 2.71-.03 1.1-.17 2.14-.58 3.2s-1.23 2.02-1.77 3.03-.75 2.12-.7 3.23c.08 2.04 1.38 3.63 2.9 5.22.75.78 1.63 1.56 2.22 2.43.53.78.74 1.8.08 2.6-.61.74-1.8.97-2.81 1.28-1.2.37-2.42.68-3.62 1.05-1.98.61-4.84 1.8-4.61 3.8.12 1.01.99 1.91 1.79 2.67s1.7 1.36 2.91 1.65c1.28.3 2.48.1 3.76-.1 1.14-.17 2.61-.32 3.66.17 0 0 1.88.71.24 2.13 0 0-.48.44-.63 1.14"/><path class="cls-1" d="M.11 65.24c.83-1.3 1.57-1.86 2.08-2.23 1.04-.74 2.36-1.52 3.39-2.28s1.6-1.59 2.44-2.41c.71-.7 1.48-1.4 2.53-1.8 1.17-.46 2.53-.48 3.82-.5 1.42-.02 2.8-.13 4.21-.29 1.21-.14 2.43-.29 3.6.07s1.9 1.11 2.17 2.01 0 1.9-.56 2.74c-.6.9-1.43 1.69-2.08 2.57-.69.94-1.06 1.95-1.38 3s-.66 2.04-1.36 2.97c-.66.87-1.48 1.65-2.11 2.54s-.95 1.79-.8 2.77c.14.89.64 1.72 1.27 2.47 1.35 1.6 3.16 2.92 4.56 4.49 1.53 1.71 2.6 3.64 2.48 5.76-.03.55-.18 1.09-.22 1.64s.08 1.03.34 1.53c.45.85 1.13 1.59 1.2 2.5.02.22-.02.44-.1.65-.21.59-.75 2.38-.21 4.1"/><path class="cls-1" d="M.11 70.44c.5-.72 1.85-1.53 2.36-2.01.63-.49 1.25-1 1.89-1.49.93-.72 1.93-1.34 2.99-1.87 1.14-.57 2.29-1.12 3.49-1.57.61-.23 1.25-.41 1.93-.32.34.05.63.16.87.39.47.43.6.99.64 1.58.03.36 0 .72-.05 1.08-.07.45-.19.88-.37 1.3-.27.64-.58 1.26-.87 1.89-.29.62-.54 1.26-.69 1.93-.11.48-.17.96-.18 1.45 0 .26.04.52.06.78.03.45.14.89.27 1.31.27.83.7 1.58 1.22 2.29.6.81 1.31 1.51 1.99 2.24.4.43.81.86 1.15 1.34.27.39.51.79.6 1.25.07.33.04.64-.11.94-.15.31-.39.53-.66.72-.53.38-1.13.62-1.75.82-.89.29-1.79.55-2.68.83-.81.26-1.62.51-2.43.78-.95.32-1.86.73-2.76 1.15-.61.29-1.21.61-1.85.82-.62.18-1.17.11-1.64-.19-.54-.32-1.04-.69-1.56-1.04-.42-.29-.84-.57-1.27-.86 0 0-.46-.36-.43-.75v-.01c.03-.25.39-.37.65-.22.5.29 1.01.58 1.52.87.44.25.9.47 1.39.62.29.09.59.14.89.18.54.07 1.06 0 1.57-.14.63-.16 1.25-.34 1.87-.53.92-.28 1.84-.57 2.76-.85.79-.24 1.49-.46 2.13-.65.69-.21 1.36-.45 2.01-.77.43-.21.83-.47 1.12-.85.3-.39.33-.82.21-1.28-.15-.55-.48-1.01-.83-1.44-.4-.48-.83-.94-1.25-1.41-.65-.73-1.29-1.47-1.79-2.32-.47-.79-.81-1.62-.98-2.52-.08-.4-.14-.79-.15-1.2 0-.16-.03-.33-.03-.49.02-.35.05-.71.09-1.06.09-.86.33-1.68.58-2.51.13-.44.24-.88.31-1.33.07-.41.07-.82-.07-1.22-.16-.46-.61-.82-1.16-.86-.59-.05-1.14.09-1.69.24-.9.25-1.74.61-2.56 1.04-.85.44-1.62.98-2.37 1.56-.8.63-1.59 1.26-2.4 1.87-.52.36-1.44 1.11-1.95 1.72m.03-13.44c2.14-.51 3.58-2.67 4.91-4.01 1.65-1.59 3.67-2.75 6.25-2.99 1.33-.12 2.67.01 4-.12 1.01-.1 1.51-.05 2.22-.41.55-.37 1.24-.91 1.45-1.86m29.37 8.18c-.07-.02-.73.01-1.77-.3-.2-.06 0 0-.61-.14-.8-.18-1.57-.39-2.38-.61-.49-.13-.98-.27-1.48-.36-.37-.07-.74-.09-1.12-.12-.3-.02-.59-.04-.89-.03-.36.01-.72.06-1.09.08-.75.06-1.49.23-2.22.41-.64.17-1.27.37-1.82.72-.51.32-.86.77-1.06 1.34-.15.42-.22.86-.29 1.3-.11.71-.22 1.41-.38 2.11-.18.76-.42 1.5-.62 2.25-.2.71-.4 1.42-.5 2.15-.04.34-.09.69-.12 1.03-.03.33-.07.66-.06.99.01.48.03.96.11 1.43.06.38.15.74.37 1.06.23.34.56.53.96.61.41.08.81.05 1.22 0 .62-.07 1.21-.22 1.8-.45.67-.26 1.28-.61 1.84-1.05.46-.37.89-.78 1.33-1.18.71-.64 1.39-1.3 2.17-1.86.54-.38 1.1-.74 1.7-1.03.45-.22.9-.46 1.36-.68.54-.26 1.08-.51 1.62-.76.06-.03 1.52-.93 1.91-3.04"/><path class="cls-1" d="M.11 82.09c.45.49.26.53 2.36 1.95.64.37 1.31.67 2.04.85.29.07.59.1.89.13.21.02.43.04.65.03.36-.02.72-.07 1.09-.11.77-.09 1.67-.32 2.27-.4.73-.19 1.45-.4 2.18-.61.67-.19 1.28-.35 1.89-.67.41-.21.89-.57 1.16-.94.22-.29.3-.63.24-.99-.09-.52-.35-.96-.67-1.37-.52-.66-1-1.26-1.55-1.91-.72-.86-1.37-1.81-1.84-2.83-.3-.66-.53-1.32-.7-2.03-.19-.78-.4-1.66-.6-2.44-.11-.45-.29-.9-.58-1.28-.35-.45-.84-.55-1.38-.5-.51.05-1.03.31-1.48.54-.66.34-1.25.76-1.84 1.2-.72.54-1.44 1.09-2.17 1.62-.44.32-1.5 1.02-1.96 1.32M39.08 97.5c.29-1.04-.99-2.88-1.19-3.33-.18-.41-.42-.85-.4-1.29.02-.87.82-1.58 1.54-2.15 1.71-1.36 3.75-2.58 5.55-3.86.81-.58 1.5-1.17 1.79-2.02.31-.9.25-1.78-.27-2.59-1.09-1.68-1.94-3.3-2.06-5.17-.12-1.72.49-3.64 2.14-5.13.45-.4 1.26-1.3 2.2-2.89m-.01-10.82s-.5.15-1.28.19c-.27.01-.54-.02-.8-.07-.4-.09-.8-.17-1.19-.29-.8-.23-1.6-.51-2.4-.74-.49-.14-.99-.27-1.49-.37-.47-.09-.95-.09-1.43-.06-.49.03-.97.12-1.43.28-.51.17-.99.4-1.39.77-.33.3-.58.67-.72 1.09-.16.46-.3.92-.42 1.39-.2.73-.45 1.44-.73 2.14-.31.79-.65 1.58-.86 2.41-.1.39-.14.78-.18 1.18-.03.4.01.78.1 1.17.1.41.29.78.63 1.05.24.19.52.3.84.31.69.04 1.28-.2 1.84-.55.48-.29.9-.65 1.31-1.02.82-.73 1.64-1.45 2.58-2.04.65-.41 1.35-.76 2.05-1.08.84-.38 1.67-.76 2.5-1.15.25-.12.94-.34 1.77-2.53 0 0 .07-.27.69-.9"/><path class="cls-1" d="M.83 76.96c-.31.7-.45 1.4-.16 2.83.14.66.57 1.33 1.09 1.87.08.09.17.17.26.25.68.63 1.26 1.11 2.13 1.48.47.2.77.37 1.29.42.34.04.68.08 1.03.08s.97.03 1.33 0c.71-.06 1.12-.15 1.8-.32.76-.19 1.68-.42 2.38-.78.39-.2.74-.44.99-.8.23-.33.44-.71.32-1.11-.18-.61-.49-1.06-.87-1.55-.75-.95-1.52-1.86-2.18-2.87-.43-.66-.87-1.43-1.29-2.1-.33-.53-.69-1.04-1.22-1.4-.34-.23-.72-.36-1.13-.34-.37.02-.91.19-1.26.35-.71.33-1.34.78-1.95 1.27-.57.45-1.12.93-1.62 1.45-.39.4-.64.79-.93 1.26M.17 56.96c1.8-.3 2.5-1.64 3.25-2.46s1.49-1.51 2.53-2.16 1.99-1.24 3.2-1.61c1.29-.39 2.68-.46 4.04-.55s2.7.2 4.03-1.37"/><path class="cls-1" d="M.11 55.42c1.22 0 1.98-1.46 2.57-2.12.55-.61 1.23-1.07 2-1.51 1.59-.91 3.16-1.89 5.09-2.27 1.11-.22 3.89-.01 4.88-.7m-7.37 0c-.16.36-2.17 1.01-3.02 1.09-.76.07-1.36-.11-1.83-.53a2.72 2.72 0 0 0-.56-.37c-.12-.06-.25-.13-.38-.19M48.37 70.5c-.05.07-.28.66-1.95 2.41-.33.34-.64.8-.88 1.2-.47.75-.66 1.41-.74 2.28a6.606 6.606 0 0 0 .5 2.88c.26.64.6 1.23.96 1.82.13.22 1.17 1.93.96 3.17-.11.68-.24 1.02-.38 1.27-.22.37-.36.67-1.42 1.49-.4.31-.83.55-1.27.83-1.54.98-3.21 2.06-4.39 3.33-.56.6-.74 1.23-.77 1.98s.19 1.86 1.12 3.32c.05.08.11.17.18.25.09.11.27.39.27.8"/><path class="cls-1" d="M42.07 94.66c-.02-.77-.1-1.57.22-2.36.71-1.53 2.48-2.37 4.08-3.41.16-.1.64-.43.74-.18.03.07 0 .16-.06.22l-.22.2c-.25.19-.45.34-.6.42-.42.25-.67.44-1.07.7-.8.52-1.53 1.13-1.97 1.87-.47.8-.52 1.67-.45 2.54 0 0 .14.52-.31.53-.38 0-.36-.52-.36-.52z"/><path class="cls-1" d="M41.38 94.7c-.08-1.11-.12-2.15.59-3.15.65-.92 1.65-1.62 2.7-2.25.33-.2.67-.4 1.01-.6.25-.15.34-.26.71-.47.15-.09.32-.16.49-.21.24-.08.52-.09.77-.03 1.06.26.58.99.58.99-.05.25-1.4 1.16-2.1 1.48-1.88.88-2.82 2.63-2.47 4.29 0 0 .16.96-1.14.98-1.22.01-1.15-1.02-1.15-1.02z"/><path class="cls-1" d="M48.37 90.51c-.25.11-.74.25-1.12.36s-.69.25-.98.44c-.88.59-1.28 1.09-1.48 1.75-.15.51-.22.96-.17 1.47.07.71-.44 1.38-1.29 1.65-.14.04-.29.08-.46.12-1.87.37-2.18-1.5-2.18-1.5-.28-1.28-.2-2.62.82-3.72.16-.12.24-.24.39-.43 1.33-1.21 2.94-1.98 4.45-3.01.33-.22.76-.35 1.2-.33.25.01.54.06.83.19"/><path class="cls-1" d="M48.42 92.05s-.52-.13-.76-.13c-.61 0-1.16.3-1.5.7-.59.71-.75 1.66-.56 2.45.08.33.27.63.56.87.4.34 1.24.88 2.34 1.17m-.13-25.41s-1.21 1.21-1.87 2.12c-.24.29-.49.62-.62.94-.35.6-.43 1.26-.47 1.94-.03.4 0 .8.06 1.19.13.81.46 1.56.87 2.27.06.11.12.22.18.34.07.14.16.28.24.41.45.68 2.04 3.42.09 5.52-.89.97-1.74 1.34-2.62 1.88-1.41.86-2.73 1.72-3.7 2.85-.49.57-.69 1.23-.76 1.92-.07.74.25 2.07.36 2.4 0 0 .18.71 1.63 1.49 0 0 .38.18.47.56"/><path class="cls-1" d="M48.37 73.69c-.03.07-1.31.78-1.84 1.63-.24.51-.34 1.16-.35 1.72 0 .2 0 .4.03.59.05.33.12.65.2.97.06.24.16.47.24.71 0 0 .5 1.21 1.72 2.78m-32.85 7.86c-.42 0-.44-.01-.66-.03a.597.597 0 0 1-.51-.35.305.305 0 0 1 0-.23.74.74 0 0 1 .37-.37c.52-.27 1.08-.35 1.66-.28.14.02.29.07.42.13.13.07.27.19.22.36-.03.1-.11.2-.19.28-.17.17-.39.26-.62.33-.07.02-.12.04-.16.05-.17.05-.34.09-.52.11h-.01zM30.4 48.84c.07.09.38.45.46.54.54.63 1.21 1.11 1.96 1.46.53.25 1.09.41 1.67.51.59.1 1.18.08 1.77.09h.02l.38-.06c.34-.06.69-.09 1.02-.18.42-.12.84-.28 1.24-.46.48-.22.91-.52 1.25-.93.18-.22.41-.51.41-.99"/><path class="cls-1" d="M32.18 48.82c.6.84 1.15 1.12 1.74 1.37.39.17.81.27 1.24.32.28.03.57.02.86.03h.02l.47-.06c.39-.04.76-.14 1.12-.28.42-.17.81-.4 1.12-.74.1-.11.28-.26.38-.65"/><path class="cls-1" d="M33.86 48.82c.5.75.85.76 1.32.86.52.12 1.07.12 1.49-.03.32-.12.72-.24.99-.83M8.62 96.79c-.79-.17-.88-.24-1.28-.43-.53-.26-.99-.44-1.54-.7-.73-.39-1.05-.6-1.61-1-.4-.29-.79-.59-1.09-.99-.32-.42-.55-.87-.4-1.4.1-.36.34-.76.6-1.03.2-.21.45-.35.72-.46.19-.06.56-.05.51-.05.4.04.76.22 1.07.46.61.47 1.24 1.07 1.77 1.63.9.89 1.07 1.14 1.95 2.08.21.22.46.54.6.82.11.23-.09.7-.23.84-.11.11-.16.13-.33.19-.08.02-.15.03-.23.05-.15.03-.3.03-.45 0h-.06zm23.7-16.05c.4-.16.43-.4.36-.74-.12-.6-.36-1.17-.57-1.74-.2-.57-.38-1.14-.56-1.71-.22-.69-.41-1.39-.64-2.08-.15-.44-.42-.81-.87-1.02-.29-.13-.6-.15-.92-.1-.22.03-.45.07-.66.13-.6.17-1.15.43-1.63.82-.26.21-.48.45-.64.75-.23.45-.22.89-.04 1.35.18.46.49.85.83 1.21.85.89 1.86 1.58 2.93 2.19.57.33 1.15.63 1.78.83.2.07.4.12.62.1h.02zM7.91 82.52l.42-.06c.51-.06.99-.19 1.46-.38.31-.13.6-.29.83-.53.22-.23.33-.5.31-.81-.01-.26-.1-.51-.23-.74-.24-.42-.53-.8-.86-1.15-.35-.37-.68-.75-1.04-1.1-.39-.38-.82-.72-1.32-.96-.69-.33-1.38-.29-2.03.09-.55.32-.97.79-1.29 1.34-.18.32-.31.65-.37 1.01-.08.48-.03.96.17 1.42.35.78.97 1.28 1.77 1.59.38.15.77.25 1.18.26.33.02.65.02.98.03h.02zm13.57-33.7s-.25 1.68 1.86 1.73 2.05-1.73 2.05-1.73M.11 87.48s1.42.21.95 2.02c0 0-.18.66-.95.99m0 1.53s1.19.26 2.1 1.61c.6.89 1.68 1.64 2.36 2.06.29.18.61.34.93.48.61.26 1.84.85 1.79 1.36m-7.18-.47s1.04.31 1.35.47m32.36 0s-.05-.71.2-1.03.3-.9.3-.9.15-.7.87-.8 1.25.08 1.46.57.72.36 1 .95.32.82 0 1.21m-23 0s.63-.07.93-1.34 1.22-1.21 1.45-1.16 1.18.29.68 1.65c0 0-.15.44-.48.85"/><g><path class="cls-1" d="M96.56 66.04c-1.5 1.8-2.25 2.01-2.58 2.21s-.8.47-1.09.69c-1.27.96-2.19 2.25-3 3.47s-1.63 2.51-1.68 3.89.74 2.82 1.35 4.15 1.42 2.73.84 4.12c-.5 1.18-1.81 2.22-3.15 2.86-.72.34-1.53.59-2.38.61-.9.02-1.79-.19-2.61-.47-1.59-.54-3.04-1.37-4.17-2.39-1.22-1.1-2.28-2.31-3.46-3.44s-2.46-2.28-3.7-3.42c-1.09-1-2.46-2.16-2.67-3.52-.23-1.43 1.18-2.52 2.22-3.55.55-.55 1.07-1.12 1.5-1.73s.77-1.3 1.09-1.98c.64-1.37 1.36-2.68 2.18-3.98s1.47-2.61 1.64-4.06-.19-2.89-.83-4.23c-.32-.67-.73-1.32-1.15-1.96-.38-.59-.84-1.19-.95-1.86s.27-1.27.96-1.63 1.44-.22 2.08.08c.8.37 1.49.87 2.26 1.27.72.38 1.53.65 2.36.86 1.81.47 3.85.31 5.59-.28 1.39-.48 2.93-1.26 3.27-2.51 0 0 .04-.16-.02-.42M48.24 59.55c.13-.08.56-.74 1.17-1.06.71-.37.99-.54 1.22-.66.94-.67 1.19-.96 1.89-1.81 1.02-1.04 1.73-1.92 3.03-2.78 1.05-.69 1.97-1.03 2.62-1.19 2.25-.55 3.93-.16 6.2-.22 1.33-.06 2.58-.23 3.44-1.15.31-.43.68-.91.59-1.86"/><path class="cls-1" d="M48.36 64.12c.92-1.63 0-2.22 1.31-3.08.67-.44 1.52-1.06 2.18-1.52.61-.42 1.15-.92 1.63-1.47.46-.52.91-1.06 1.37-1.58.71-.79 1.52-1.45 2.5-1.89.55-.24 1.11-.42 1.7-.52.44-.07.88-.13 1.33-.12.16 0 .31-.03.47-.03.45.01.9.04 1.34.06.36.02.71.05 1.07.06.53.02 1.06.03 1.58.03.36 0 .72-.05 1.09-.08l.92-.09c.27-.03.53-.07.8-.1.2-.03.4-.06.6-.07.42-.03.85-.07 1.27-.06 1.26.03 2.39.41 3.37 1.22.58.48 1.06 1.05 1.39 1.73.21.44.38.9.42 1.39.02.25.07.49.06.74-.03.6-.16 1.17-.4 1.73-.37.87-.94 1.6-1.53 2.33-.6.74-1.19 1.48-1.6 2.35-.18.38-.33.77-.48 1.17-.28.74-.54 1.5-.92 2.2-.29.53-.62 1.03-1.03 1.47-.44.48-.9.93-1.34 1.41-.42.45-.84.9-1.13 1.45a2.76 2.76 0 0 0-.02 2.68c.19.37.45.71.7 1.03.25.31.52.61.81.89.4.39.82.75 1.23 1.12.15.13.29.26.44.4.86.82 1.74 1.63 2.57 2.47.67.67 1.31 1.38 1.87 2.14.63.85 1.25 1.71 1.89 2.55.63.82 1.54 1.41 2.45 1.91.73.4 1.49.74 2.25 1.08.88.4 1.71.75 2.61 1.12.36.15.89.26 1.28.33.59.11.99-.01 1.56-.23.74-.29 1.35-.63 2.02-1.05.93-.59 1.87-1.19 2.79-1.8.57-.38 1.1-.76 1.64-1.18.46-.36.87-.83 1.13-1.35.14-.28.22-.72.25-1.04.03-.71-.07-.9-.35-1.45-.37-.76-.77-1.51-1.16-2.26a9.59 9.59 0 0 1-.83-2.32c-.12-.57-.16-1.25-.12-1.83.05-.69.25-1.36.54-2 .27-.61.63-1.19 1.03-1.72.51-.67 1.03-1.21 1.71-1.72.05-.04.77-.6 1.92-2.25"/><path class="cls-1" d="M48.33 61.1c.22-1.27 1.68-1.59 3.07-2.81.49-.4 1.08-.99 1.49-1.48.39-.46.9-.94 1.3-1.4.52-.59 1.09-1.09 1.75-1.52.74-.47 1.26-.78 2.12-.99.41-.1.83-.19 1.25-.26 1.83-.24 3.1-.04 3.42 0 .64.06 1.28.07 1.92.05.35 0 .7-.05 1.06-.08.85-.08 1.67-.29 2.49-.49.42-.1.84-.2 1.27-.28.69-.12 1.37-.06 2.02.23.6.27 1.12.64 1.63 1.05.67.54 1.25 1.17 1.73 1.88.55.8.95 1.67 1.1 2.64.04.26.07.53.09.8.02.27.03.55 0 .83-.05.38-.14.76-.24 1.14-.21.77-.59 1.47-1.04 2.13-.43.63-.86 1.26-1.3 1.89-.45.65-.8 1.36-1.12 2.08-.29.66-.56 1.32-.88 1.96-.34.68-.78 1.32-1.31 1.88-.47.49-.95.97-1.43 1.46-.35.36-.7.73-.98 1.15-.31.47-.49.98-.45 1.55.02.28.1.55.21.81.26.59.84 1.08 1.28 1.53.33.34.71.78 1.06 1.11.57.53 1.11.98 1.68 1.5.17.15.36.35.52.5.27.25.55.53.82.78.39.37.8.74 1.18 1.13.55.57 1.02 1.14 1.56 1.72.41.44.84.85 1.25 1.29.34.36.73.78 1.09 1.11.53.49 1.13.83 1.77 1.18.44.24 1.01.46 1.48.66.88.4 1.73.65 2.67.87.56.13 1.07.04 1.63 0 .59-.04 1.11-.3 1.66-.53.72-.3 1.27-.63 1.92-1.06.53-.35.96-.68 1.44-1.1.39-.34.69-.69.97-1.12.25-.39.32-.85.33-1.32 0-.6-.08-.91-.32-1.44-.25-.55-.51-1.1-.77-1.65-.31-.67-.62-1.33-.83-2.04-.14-.46-.27-.93-.31-1.42-.04-.44-.03-.87.03-1.3.12-.85.34-1.68.73-2.44.43-.83.98-1.59 1.6-2.29.58-.66 1.19-1.21 1.93-1.7.23-.16.55-.37.78-.52.03-.02.93-.63 1.86-1.93"/><path class="cls-1" d="M48.44 62.53c.47-3.45 1.06-1.97 2.62-3.24.77-.48 1.44-1.08 2.05-1.73.43-.46.83-.96 1.24-1.44.63-.72 1.32-1.38 2.16-1.87.71-.41 1.46-.71 2.28-.88.44-.09.88-.17 1.33-.17.47 0 .94-.03 1.4-.03.35 0 .69.04 1.04.06.32.02.63.05.95.06.56.02 1.13.03 1.69.03.32 0 .63-.05.95-.08.35-.04.7-.07 1.06-.12.3-.04.6-.09.91-.13.3-.04.59-.08.89-.1.34-.02.68-.03 1.03-.03.63 0 1.23.16 1.81.4.79.33 1.45.83 2.03 1.43.55.58.98 1.24 1.25 1.99.15.42.26.84.3 1.28.09.89-.06 1.73-.41 2.55-.35.82-.86 1.52-1.39 2.23-.41.54-.81 1.09-1.19 1.65-.37.55-.64 1.17-.88 1.78-.27.69-.52 1.39-.86 2.05-.33.63-.73 1.23-1.22 1.76-.31.34-.69.7-1.11 1.15-.43.45-.88.89-1.22 1.42-.24.36-.41.76-.46 1.18-.05.47 0 .93.2 1.37.25.54.59 1.02 1 1.46.25.27.49.54.76.79.54.51 1.1 1.01 1.66 1.51.16.14.32.28.47.43.82.79 1.64 1.56 2.44 2.36.81.82 1.55 1.69 2.25 2.59.57.73 1.16 1.46 1.85 2.1.49.45 1.03.84 1.62 1.16.38.21.77.4 1.16.59.89.42 1.79.81 2.71 1.14.47.17.95.32 1.45.4.4.06.79.06 1.19.02.99-.11 1.85-.55 2.7-1.03.63-.35 1.24-.73 1.84-1.14.65-.44.99-.77 1.6-1.26.42-.34.56-.48.97-1.04.34-.45.42-.88.46-1.18.09-.6-.17-1.25-.41-1.79-.33-.73-.65-1.34-1-2.06-.34-.7-.59-1.27-.78-2.03-.11-.42-.21-1.1-.24-1.53-.06-.79.4-1.94.66-2.69.36-1.07.99-1.8 1.72-2.67.61-.72 1.21-1.11 1.99-1.65 1.13-.88 1.51-1.96 1.77-2.08"/><path class="cls-1" d="M48.3 66.97c.82-1.86 5.09-4.38 7.38-5.98.91-.64 1.72-1.36 2.59-2.03.79-.62 1.78-1.04 2.88-1.17 2.29-.18 4.4-.43 6.61-.67.71-.06 1.4.06 2.03.31.87.43 1.03 1.17.87 1.91-.08.18-.13.38-.24.55q-.18.3-.47.68c-.8 1.02-1.7 1.87-2.17 2.97-.71 1.91-.9 3.85-2.24 5.64-.71.86-1.34 1.66-1.89 2.58-.47.86-.47 1.73-.39 2.66.08.37.16.64.32 1.01.32.86.84 1.53 1.59 2.25 1.78 1.72 3.72 3.19 4.63 5.22.35.79.55 1.66.08 2.46-.32.43-.7.68-1.28.82-1.62.37-3.06.5-4.72.68-1.58.25-3.14.61-4.24 1.6-.95.86-.73 2.16.37 2.83 1.93 1.17 3.73.62 5.88.31 1.65-.24 2.36-.17 3.04.13.54.24.93.44 1.31.82.35.35.6.76.73 1.19.18.59.43 1.66.2 2.92 0 0 .05.82.8.51 0 0 .48-.21.28-2.41 0 0 .03-.84-.2-1.62-.28-1-1.19-2.07-2.38-2.56-.63-.18-1.26-.25-1.89-.18-1.81.31-3.44.92-5.25.8-.63-.06-1.18-.18-1.66-.49-.55-.43-.79-1.05-.39-1.66.47-.62 1.34-.94 2.12-1.19 1.42-.43 2.95-.41 4.45-.35.63.06 1.29.05 1.92-.01.55-.06.95-.19 1.35-.43 1.58-1.05 1.14-2.53.43-3.83-1.42-2.34-3.71-4.06-5.68-6.15-.71-.74-1.18-1.54-1.34-2.4-.24-1.29.08-2.58 1.03-3.69.95-1.05 1.89-1.97 2.37-3.14.55-1.11.71-2.28 1.1-3.44.32-.68.55-1.29 1.1-1.91.55-.55 1.03-1.11 1.5-1.66.79-.98 1.26-2.15.71-3.2-.71-1.23-2.52-1.48-4.1-1.29-2.21.25-4.26.43-6.47.55-1.42.12-2.4.77-3.42 1.51s-1.78 1.75-2.88 2.48c-2.05 1.29-5.65 3.76-6.32 5.24"/><path class="cls-1" d="M95.54 52.8c-.21-.6-1.03-1.06-1.16-1.15-.35-.22-.71-.46-1.07-.66-.31-.18-.56-.31-.93-.3-.26 0-.56.02-.81.11-.44.15-.87.34-1.3.53-.74.31-1.49.6-2.26.83-.66.19-1.33.36-2.01.48-.31.06-.62.1-.94.13-.4.04-.8.06-1.21.09-.25.02-.5.04-.75.03-.42-.02-.84-.08-1.27-.11-.56-.04-1.1-.17-1.64-.3-.33-.08-.65-.19-.98-.28-.55-.15-1.09-.3-1.65-.42-.36-.08-.73-.07-1.06.15-.21.15-.32.34-.36.59-.06.38.05.73.16 1.08.22.68.47 1.35.7 2.02.21.63.38 1.27.47 1.93.04.31.07.62.09.93.02.23.04.45.03.68-.04.62-.12 1.25-.3 1.84-.15.48-.34.95-.54 1.42-.39.9-.93 1.73-1.39 2.59-.42.78-.79 1.58-1.18 2.37-.49.98-1.02 1.94-1.73 2.79-.44.52-.9 1.01-1.39 1.47-.29.28-.59.54-.87.83-.37.37-.72.77-.95 1.24-.24.48-.31.8-.16 1.31.16.53.59 1.04.93 1.47.6.73 1.39 1.45 2.07 2.11.4.39.76.65 1.18 1.03.46.41.97.89 1.44 1.3 1.12.99 2.13 2 3.21 3.03.64.61 1.25 1.16 2 1.64.87.56 1.81.98 2.81 1.27.41.12.76.21 1.2.24.2.01.34.06.54.05.87 0 1.54-.08 2.31-.49.42-.22.89-.51 1.25-.81.4-.34.68-.59.94-1.03.19-.32.47-.76.5-1.13.07-.7-.14-1.34-.38-1.98-.29-.79-.7-1.52-1.09-2.27-.22-.42-.45-.84-.66-1.27-.23-.46-.41-.94-.5-1.45-.1-.58-.15-1 .1-1.53.31-.65.69-1.24 1.11-1.82.54-.74 1.03-1.36 1.6-2.09.31-.39.71-.9 1.04-1.27.77-.86 1.61-1.54 2.47-2.07.44-.27.94-.53 1.39-.79.05-.03 1.53-.91 2.02-1.88"/><path class="cls-1" d="M48.44 67.58c.62-1.33 1.71-1.93 2.28-2.37 1.13-.87 2.36-1.66 3.61-2.43s2.41-1.57 3.56-2.43c.97-.72 2-1.38 3.31-1.66 1.53-.33 3.19-.35 4.76-.46 1.09-.08 3.18-.27 3.2 1.01 0 .53-.46 1.03-.78 1.48-.38.53-.77 1.05-1.07 1.61-.63 1.16-.72 2.41-1.01 3.64s-.8 2.16-1.58 3.23c-.73 1-1.56 1.99-1.9 3.12s-.17 2.37.38 3.45c1 1.97 3.08 3.24 4.54 4.98.68.8 1.34 1.76 1.38 2.74.03 1.03-.51 1.66-1.72 1.99-.72.2-1.53.38-2.28.52s-1.77.36-2.53.54c-1.34.33-2.82.85-3.82 1.65-.93.74-1.02 1.63-.44 2.57s1.73 1.61 2.97 1.79c2.85.41 6.71-1.35 8.49.93 0 0 .92.91.65 1.85s-.52.65-.7 2.15"/><path class="cls-1" d="M78.52 97.53c-.31-.37-2.08-1-2.08-1-3.65-1.15-.84-2.17-.84-2.17 1.14-.47 3.36-.04 4.39-1.27.16-.18.31-.38.45-.68.08-.18.07-.5-.09-.69-.39-.55-1.08-.91-1.71-1.16-1.03-.37-2.32-.61-3.26-1.16-1.5-.98-1.4-2.22-1.88-3.58-.39-1.11-.96-2.05-1.67-3.1-.47-.55-.91-1.17-1.41-1.7-1.44-1.52-2.04-1.93-3.98-3.84-.28-.27-1.13-1.44-1.29-1.74-.63-1.23-.43-2.62.51-3.79 0 0 2.3-2.57 2.79-3.5.54-1.02.89-2.47 1.28-3.51.63-1.41 1.63-2.43 2.66-3.72.47-.68.87-1.35.95-2.09.08-.62-.08-1.23-.39-1.78-.47-.8-1.26-1.48-2.29-1.78s-2.15-.18-3.25-.05c-2.37.37-4.33.23-6.7.35-.79 0-1.44.03-2.23.34-.37.15-.86.48-1.25.73-.28.18-.53.38-.77.59-.81.74-1.4 1.68-2.27 2.46-1.66 1.41-2.91 1.78-4.45 3.16-.51.45-.64.29-.67.09-.02-.17.03-.35.14-.49.86-1.14 3.39-2.22 4.73-3.61.63-.67 1.17-1.24 1.79-1.97.71-.73 1.43-1.43 2.53-1.8 2.12-.67 4.31-.18 6.51-.31l3.37-.37c1.41-.12 2.82.06 4 .79 1.33.86 1.88 2.14 1.88 3.42 0 .61-.16 1.22-.47 1.83-.55.98-1.25 1.83-2.04 2.75-.16.18-.55.67-.55.67-.31.49-.5.88-.74 1.43-.31.98-.67 2-1.06 2.91-.39.86-1.07 1.6-1.8 2.38-1.14 1.21-2.41 2.45-1.96 4.04.53 1.84 2.35 3 3.9 4.54.07.07 2.59 2.53 3.61 3.88 1.18 1.53 1.65 3.03 2.98 4.56 1.18 1.22 2.88 1.62 4.52 2.41 1.1.61 2.41 1.12 2.55 2.18.17 1.31-2.38 2.42-3.47 2.69 0 0-1.18.4-.63 1.37.14.24.35.45.61.62.29.19.73.48.93.64"/><path class="cls-1" d="M95.54 52.8c.16 1.16-.91.68-1.01.65-.36-.11-.7-.23-1.07-.33-.46-.12-.9-.29-1.37-.38-.31-.06-.64-.08-.96-.06-.5.03-1 .1-1.49.17-.73.11-1.46.25-2.19.38-.56.1-1.12.2-1.67.29-.26.04-.52.06-.78.09l-1.04.12c-.15.02-.29.03-.44.03l-2.16.03c-.32 0-.63-.04-.95-.02-.38.02-.77.03-1.15.15-.51.17-.79.52-.84 1.04-.03.31-.04.63-.03.94.02.32.08.63.11.94.03.24.03.48.06.72.08.6.07 1.2.05 1.8 0 .39-.05.79-.12 1.18-.1.61-.27 1.22-.5 1.8-.22.57-.45 1.14-.69 1.7-.27.63-.55 1.25-.83 1.88-.23.52-.46 1.03-.68 1.55a10.204 10.204 0 0 1-2.13 3.13c-.3.31-.6.62-.91.91-.44.42-.92.82-1.35 1.25-.37.37-.73.76-.95 1.24-.13.27-.22.56-.2.87.03.28.1.55.22.81.25.57.63 1.06 1.06 1.52.36.39.73.78 1.12 1.15.55.52 1.12 1.01 1.69 1.51.37.33.75.66 1.13.99.57.5 1.14.99 1.7 1.49.2.17.38.36.57.53.83.75 1.66 1.5 2.62 2.1.82.51 1.68.9 2.63 1.1.31.07.63.09.95.14.5.06 1-.01 1.48-.15.42-.12.81-.33 1.17-.6.37-.28.66-.61.86-1.02.24-.49.32-1 .25-1.55-.11-.82-.4-1.56-.84-2.25-.52-.83-1.09-1.64-1.64-2.45-.27-.4-.51-.81-.66-1.27a3.14 3.14 0 0 1-.15-.8c-.03-.52.16-.99.46-1.41.31-.42.69-.78 1.1-1.11.71-.59 1.38-1.21 2.01-1.87.55-.58 1.06-1.2 1.61-1.79.67-.73 1.38-1.42 2.19-1.99.54-.39 1.1-.74 1.69-1.05.42-.22.95-1.26 1.37-1.47 1.32-.98 1.56-1.44 1.67-1.35m-48.18 4.31c.09-.05.55-.91.88-1.19.67-.56 1.36-1.04 2.06-1.59 2.27-1.8 4.65-2.96 7.15-4.63.64-.43 1.34-.75 2.05-1.05 1.03-.43 2.07-.48 3.18-.54.87 0 1.89.06 2.6.55.16.18.36.44.26.8-.66 2.47-.61 3.71-1.45 6.38-.28.88-.68 1.29-1.27 2.08-.57.76-.92 1.38-1.31 2.18-.16.25-.37.84-.41 1.09-.12.81-.08 1.22-.01 1.56.22 1.15.66 2.1 1.53 3.08.71.74 1.19 1.34 2.05 2.14.57.53 1.12 1.12 1.5 1.62.56.72.85 1.29.92 1.94.06.49.03.79-.21 1.22-.29.5-1.12.78-1.74 1.01-.12.04-.24.08-.37.12-1.12.29-2.27.58-3.38.85q-.64.15-1.64.43c-.33.09-1.15.41-1.44.56-1.3.66-2.25 1.15-2.42 2.33-.14.96.5 1.84 1.33 2.57.15.13.29.22.42.32.92.66 1.89.93 3 1.06 1.42.12 2.3-.12 3.72-.3 1.46-.19 2.6-.02 3.52.76 0 0 1.65 1.24.43 2.33 0 0-.99.86-.84 1.46"/><path class="cls-1" d="M96.51 55.18c-.05-.02-.74.12-1.45-.09-.15-.05-.31-.08-.47-.11-.58-.1-1.15-.31-1.72-.44-.52-.12-1.04-.25-1.57-.35-.33-.06-.66-.07-.99-.09-.23-.02-.46-.04-.69-.03-.39.02-.77.05-1.16.09-.23.02-.46.03-.69.06-.26.03-.51.07-.77.1-.31.04-.62.09-.94.13-.22.03-.43.07-.65.1-.31.05-.62.09-.94.13l-1.1.18c-.37.06-.74.11-1.1.18-.47.09-.93.21-1.34.47-.42.27-.67.66-.78 1.14-.08.33-.12.67-.12 1.02 0 .4-.01.81-.03 1.21-.02.4-.04.81-.09 1.21-.1.85-.29 1.69-.54 2.51-.23.73-.48 1.45-.7 2.19-.21.71-.39 1.44-.59 2.15-.17.58-.33 1.17-.55 1.74-.22.57-.56 1.08-.97 1.54-.58.65-1.28 1.16-1.96 1.7-.48.37-.94.77-1.4 1.15-.41.34-.76.73-1.02 1.18-.21.37-.28.77-.22 1.2.08.52.35.95.64 1.37.45.64 1 1.2 1.59 1.72.73.65 1.49 1.26 2.24 1.88.68.56 1.36 1.13 2.05 1.68.64.52 1.27 1.04 1.96 1.49.56.37 1.14.7 1.79.9.48.15.97.26 1.48.22.73-.06 1.35-.32 1.69-1.01.11-.23.16-.47.17-.72.02-.52-.14-.99-.35-1.46-.32-.71-.81-1.31-1.27-1.93-.36-.49-.73-.97-1.05-1.48-.36-.55-.61-1.15-.74-1.8-.11-.54-.1-1.08.09-1.61.18-.51.5-.93.92-1.27.48-.39 1.03-.68 1.57-.98.78-.43 1.55-.88 2.22-1.48.54-.49 1.06-.99 1.58-1.49.35-.34.69-.71 1.04-1.04.72-.68 1.05-1.13 1.92-1.62.56-.32 1.24-.71 1.81-1 .37-.19 2.41-2.42 2.35-2.36.04-.02.66-.84.89-.79M48.3 69.16c.53-.62 1.56-1.31 2.05-1.69 1.02-.77 2.15-1.67 3.26-2.37s2.13-1.33 3.28-1.98c1.06-.61 2.19-1.24 3.41-1.74.84-.34 2.13-.51 2.99-.1 1.12.52 1.07 1.83 1.05 2.71-.03 1.1-.17 2.14-.58 3.2s-1.23 2.02-1.77 3.03-.75 2.12-.7 3.23c.08 2.04 1.38 3.63 2.9 5.22.75.78 1.63 1.56 2.22 2.43.53.78.74 1.8.08 2.6-.61.74-1.8.97-2.81 1.28-1.2.37-2.42.68-3.62 1.05-1.98.61-4.84 1.8-4.61 3.8.12 1.01.99 1.91 1.79 2.67s1.7 1.36 2.91 1.65c1.28.3 2.48.1 3.76-.1 1.14-.17 2.61-.32 3.66.17 0 0 1.88.71.24 2.13 0 0-.48.44-.63 1.14"/><path class="cls-1" d="M48.33 65.37c.83-1.3 1.54-1.99 2.06-2.36 1.04-.74 2.36-1.52 3.39-2.28s1.6-1.59 2.44-2.41c.71-.7 1.48-1.4 2.53-1.8 1.17-.46 2.53-.48 3.82-.5 1.42-.02 2.8-.13 4.21-.29 1.21-.14 2.43-.29 3.6.07s1.9 1.11 2.17 2.01 0 1.9-.56 2.74c-.6.9-1.43 1.69-2.08 2.57-.69.94-1.06 1.95-1.38 3s-.66 2.04-1.36 2.97c-.66.87-1.48 1.65-2.11 2.54s-.95 1.79-.8 2.77c.14.89.64 1.72 1.27 2.47 1.35 1.6 3.16 2.92 4.56 4.49 1.53 1.71 2.6 3.64 2.48 5.76-.03.55-.18 1.09-.22 1.64s.08 1.03.34 1.53c.45.85 1.13 1.59 1.2 2.5.02.22-.02.44-.1.65-.21.59-.75 2.38-.21 4.1"/><path class="cls-1" d="M48.32 70.59c.5-.72 1.84-1.67 2.35-2.15.63-.49 1.25-1 1.89-1.49.93-.72 1.93-1.34 2.99-1.87 1.14-.57 2.29-1.12 3.49-1.57.61-.23 1.25-.41 1.93-.32.34.05.63.16.87.39.47.43.6.99.64 1.58.03.36 0 .72-.05 1.08-.07.45-.19.88-.37 1.3-.27.64-.58 1.26-.87 1.89-.29.62-.54 1.26-.69 1.93-.11.48-.17.96-.18 1.45 0 .26.04.52.06.78.03.45.14.89.27 1.31.27.83.7 1.58 1.22 2.29.6.81 1.31 1.51 1.99 2.24.4.43.81.86 1.15 1.34.27.39.51.79.6 1.25.07.33.04.64-.11.94-.15.31-.39.53-.66.72-.53.38-1.13.62-1.75.82-.89.29-1.79.55-2.68.83-.81.26-1.62.51-2.43.78-.95.32-1.86.73-2.76 1.15-.61.29-1.21.61-1.85.82-.62.18-1.17.11-1.64-.19-.54-.32-1.04-.69-1.56-1.04-.42-.29-.84-.57-1.27-.86 0 0-.46-.36-.43-.75v-.01c.03-.25.39-.37.65-.22.5.29 1.01.58 1.52.87.44.25.9.47 1.39.62.29.09.59.14.89.18.54.07 1.06 0 1.57-.14.63-.16 1.25-.34 1.87-.53.92-.28 1.84-.57 2.76-.85.79-.24 1.49-.46 2.13-.65.69-.21 1.36-.45 2.01-.77.43-.21.83-.47 1.12-.85.3-.39.33-.82.21-1.28-.15-.55-.48-1.01-.83-1.44-.4-.48-.83-.94-1.25-1.41-.65-.73-1.29-1.47-1.79-2.32-.47-.79-.81-1.62-.98-2.52-.08-.4-.14-.79-.15-1.2 0-.16-.03-.33-.03-.49.02-.35.05-.71.09-1.06.09-.86.33-1.68.58-2.51.13-.44.24-.88.31-1.33.07-.41.07-.82-.07-1.22-.16-.46-.61-.82-1.16-.86-.59-.05-1.14.09-1.69.24-.9.25-1.74.61-2.56 1.04-.85.44-1.62.98-2.37 1.56-.8.63-1.59 1.26-2.4 1.87-.52.36-1.44 1.21-1.95 1.82m-.21-13.48c1.8-.31 3.81-2.74 5.14-4.09 1.65-1.59 3.67-2.75 6.25-2.99 1.33-.12 2.67.01 4-.12 1.01-.1 1.51-.05 2.22-.41.55-.37 1.24-.91 1.45-1.86m29.32 7.93c-.07-.02-.68.27-1.72-.05-.2-.06 0 0-.61-.14-.8-.18-1.57-.39-2.38-.61-.49-.13-.98-.27-1.48-.36-.37-.07-.74-.09-1.12-.12-.3-.02-.59-.04-.89-.03-.36.01-.72.06-1.09.08-.75.06-1.49.23-2.22.41-.64.17-1.27.37-1.82.72-.51.32-.86.77-1.06 1.34-.15.42-.22.86-.29 1.3-.11.71-.22 1.41-.38 2.11-.18.76-.42 1.5-.62 2.25-.2.71-.4 1.42-.5 2.15-.04.34-.09.69-.12 1.03-.03.33-.07.66-.06.99.01.48.03.96.11 1.43.06.38.15.74.37 1.06.23.34.56.53.96.61.41.08.81.05 1.22 0 .62-.07 1.21-.22 1.8-.45.67-.26 1.28-.61 1.84-1.05.46-.37.89-.78 1.33-1.18.71-.64 1.39-1.3 2.17-1.86.54-.38 1.1-.74 1.7-1.03.45-.22.9-.46 1.36-.68.54-.26.65-.36 1.19-.61 1.09-.34 1.71-2.98 2.29-2.98"/><path class="cls-1" d="M48.26 81.95c.45.49.3.67 2.4 2.09.64.37 1.31.67 2.04.85.29.07.59.1.89.13.21.02.43.04.65.03.36-.02.72-.07 1.09-.11.77-.09 1.67-.32 2.27-.4.73-.19 1.45-.4 2.18-.61.67-.19 1.28-.35 1.89-.67.41-.21.89-.57 1.16-.94.22-.29.3-.63.24-.99-.09-.52-.35-.96-.67-1.37-.52-.66-1-1.26-1.55-1.91-.72-.86-1.37-1.81-1.84-2.83-.3-.66-.53-1.32-.7-2.03-.19-.78-.4-1.66-.6-2.44-.11-.45-.29-.9-.58-1.28-.35-.45-.84-.55-1.38-.5-.51.05-1.03.31-1.48.54-.66.34-1.25.76-1.84 1.2-.72.54-1.44 1.09-2.17 1.62-.44.32-1.54 1.14-2 1.44M87.27 97.5c.29-1.04-.99-2.88-1.19-3.33-.18-.41-.42-.85-.4-1.29.02-.87.82-1.58 1.54-2.15 1.71-1.36 3.75-2.58 5.55-3.86.81-.58 1.5-1.17 1.79-2.02.31-.9.25-1.78-.27-2.59-1.09-1.68-1.94-3.3-2.06-5.17-.12-1.72.49-3.64 2.14-5.13.45-.4 1.26-1.3 2.2-2.89m-.06-10.85c-.1-.02-.45.18-1.23.21-.27.01-.54-.02-.8-.07-.4-.09-.8-.17-1.19-.29-.8-.23-1.6-.51-2.4-.74-.49-.14-.99-.27-1.49-.37-.47-.09-.95-.09-1.43-.06-.49.03-.97.12-1.43.28-.51.17-.99.4-1.39.77-.33.3-.58.67-.72 1.09-.16.46-.3.92-.42 1.39-.2.73-.45 1.44-.73 2.14-.31.79-.65 1.58-.86 2.41-.1.39-.14.78-.18 1.18-.03.4.01.78.1 1.17.1.41.29.78.63 1.05.24.19.52.3.84.31.69.04 1.28-.2 1.84-.55.48-.29.9-.65 1.31-1.02.82-.73 1.64-1.45 2.58-2.04.65-.41 1.35-.76 2.05-1.08.84-.38 1.67-.76 2.5-1.15.25-.12.71-.15 1.54-2.34 0 0 .35-1.08.87-1.08"/><path class="cls-1" d="M49.06 76.9c-.31.7-.49 1.46-.2 2.89.14.66.57 1.33 1.09 1.87.08.09.17.17.26.25.68.63 1.26 1.11 2.13 1.48.47.2.77.37 1.29.42.34.04.68.08 1.03.08s.97.03 1.33 0c.71-.06 1.12-.15 1.8-.32.76-.19 1.68-.42 2.38-.78.39-.2.74-.44.99-.8.23-.33.44-.71.32-1.11-.18-.61-.49-1.06-.87-1.55-.75-.95-1.52-1.86-2.18-2.87-.43-.66-.87-1.43-1.29-2.1-.33-.53-.69-1.04-1.22-1.4-.34-.23-.72-.36-1.13-.34-.37.02-.91.19-1.26.35-.71.33-1.34.78-1.95 1.27-.57.45-1.12.93-1.62 1.45-.39.4-.64.79-.93 1.26M48.2 57c1.21.21 2.65-1.68 3.4-2.5s1.49-1.51 2.53-2.16 1.99-1.24 3.2-1.61c1.29-.39 2.68-.46 4.04-.55s2.7.2 4.03-1.37"/><path class="cls-1" d="M48.3 55.42c1 .25 1.98-1.46 2.57-2.12.55-.61 1.23-1.07 2-1.51 1.59-.91 3.16-1.89 5.09-2.27 1.11-.22 3.89-.01 4.88-.7m-7.37 0c-.16.36-2.17 1.01-3.02 1.09-.76.07-1.36-.11-1.83-.53a2.72 2.72 0 0 0-.56-.37c-.12-.06-.25-.13-.38-.19M96.56 70.5c-.05.07-.28.66-1.95 2.41-.33.34-.64.8-.88 1.2-.47.75-.66 1.41-.74 2.28a6.606 6.606 0 0 0 .5 2.88c.26.64.6 1.23.96 1.82.13.22 1.17 1.93.96 3.17-.11.68-.24 1.02-.38 1.27-.22.37-.36.67-1.42 1.49-.4.31-.83.55-1.27.83-1.54.98-3.21 2.06-4.39 3.33-.56.6-.74 1.23-.77 1.98s.19 1.86 1.12 3.32c.05.08.11.17.18.25.09.11.27.39.27.8"/><path class="cls-1" d="M90.26 94.66c-.02-.77-.1-1.57.22-2.36.71-1.53 2.48-2.37 4.08-3.41.16-.1.64-.43.74-.18.03.07 0 .16-.06.22l-.22.2c-.25.19-.45.34-.6.42-.42.25-.67.44-1.07.7-.8.52-1.53 1.13-1.97 1.87-.47.8-.52 1.67-.45 2.54 0 0 .14.52-.31.53-.38 0-.36-.52-.36-.52z"/><path class="cls-1" d="M89.57 94.7c-.08-1.11-.12-2.15.59-3.15.65-.92 1.65-1.62 2.7-2.25.33-.2.67-.4 1.01-.6.25-.15.34-.26.71-.47.15-.09.32-.16.49-.21.24-.08.52-.09.77-.03 1.06.26.58.99.58.99-.05.25-1.4 1.16-2.1 1.48-1.88.88-2.82 2.63-2.47 4.29 0 0 .16.96-1.14.98-1.22.01-1.15-1.02-1.15-1.02z"/><path class="cls-1" d="M96.56 90.51c-.25.11-.74.25-1.12.36s-.69.25-.98.44c-.88.59-1.28 1.09-1.48 1.75-.15.51-.22.96-.17 1.47.07.71-.44 1.38-1.29 1.65-.14.04-.29.08-.46.12-1.87.37-2.18-1.5-2.18-1.5-.28-1.28-.2-2.62.82-3.72.16-.12.24-.24.39-.43 1.33-1.21 2.94-1.98 4.45-3.01.33-.22.76-.35 1.2-.33.25.01.54.06.83.19"/><path class="cls-1" d="M96.56 92.01c-.26-.07-.5-.09-.71-.08-.61.02-1.16.3-1.5.7-.59.71-.75 1.66-.56 2.45.08.33.27.63.56.87.4.34 1.11.82 2.21 1.1m0-25.35s-1.21 1.21-1.87 2.12c-.24.29-.49.62-.62.94-.35.6-.43 1.26-.47 1.94-.03.4 0 .8.06 1.19.13.81.46 1.56.87 2.27.06.11.12.22.18.34.07.14.16.28.24.41.45.68 2.04 3.42.09 5.52-.89.97-1.74 1.34-2.62 1.88-1.41.86-2.73 1.72-3.7 2.85-.49.57-.69 1.23-.76 1.92-.07.74.25 2.07.36 2.4 0 0 .18.71 1.63 1.49 0 0 .38.18.47.56"/><path class="cls-1" d="M96.56 73.69c-.03.07-1.31.78-1.84 1.63-.24.51-.34 1.16-.35 1.72 0 .2 0 .4.03.59.05.33.12.65.2.97.06.24.16.47.24.71 0 0 .5 1.21 1.72 2.78m-32.85 7.86c-.42 0-.44-.01-.66-.03a.597.597 0 0 1-.51-.35.305.305 0 0 1 0-.23.74.74 0 0 1 .37-.37c.52-.27 1.08-.35 1.66-.28.14.02.29.07.42.13.13.07.27.19.22.36-.03.1-.11.2-.19.28-.17.17-.39.26-.62.33-.07.02-.12.04-.16.05-.17.05-.34.09-.52.11h-.01zm14.88-41.11c.07.09.38.45.46.54.54.63 1.21 1.11 1.96 1.46.53.25 1.09.41 1.67.51.59.1 1.18.08 1.77.09h.02l.38-.06c.34-.06.69-.09 1.02-.18.42-.12.84-.28 1.24-.46.48-.22.91-.52 1.25-.93.18-.22.41-.51.41-.99"/><path class="cls-1" d="M80.37 48.82c.6.84 1.15 1.12 1.74 1.37.39.17.81.27 1.24.32.28.03.57.02.86.03h.02l.47-.06c.39-.04.76-.14 1.12-.28.42-.17.81-.4 1.12-.74.1-.11.28-.26.38-.65"/><path class="cls-1" d="M82.05 48.82c.5.75.85.76 1.32.86.52.12 1.07.12 1.49-.03.32-.12.72-.24.99-.83M56.81 96.79c-.79-.17-.88-.24-1.28-.43-.53-.26-.99-.44-1.54-.7-.73-.39-1.05-.6-1.61-1-.4-.29-.79-.59-1.09-.99-.32-.42-.55-.87-.4-1.4.1-.36.34-.76.6-1.03.2-.21.45-.35.72-.46.19-.06.56-.05.51-.05.4.04.76.22 1.07.46.61.47 1.24 1.07 1.77 1.63.9.89 1.07 1.14 1.95 2.08.21.22.46.54.6.82.11.23-.09.7-.23.84-.11.11-.16.13-.33.19-.08.02-.15.03-.23.05-.15.03-.3.03-.45 0h-.06zm23.7-16.05c.4-.16.43-.4.36-.74-.12-.6-.36-1.17-.57-1.74-.2-.57-.38-1.14-.56-1.71-.22-.69-.41-1.39-.64-2.08-.15-.44-.42-.81-.87-1.02-.29-.13-.6-.15-.92-.1-.22.03-.45.07-.66.13-.6.17-1.15.43-1.63.82-.26.21-.48.45-.64.75-.23.45-.22.89-.04 1.35.18.46.49.85.83 1.21.85.89 1.86 1.58 2.93 2.19.57.33 1.15.63 1.78.83.2.07.4.12.62.1h.02zM56.1 82.52l.42-.06c.51-.06.99-.19 1.46-.38.31-.13.6-.29.83-.53.22-.23.33-.5.31-.81-.01-.26-.1-.51-.23-.74-.24-.42-.53-.8-.86-1.15-.35-.37-.68-.75-1.04-1.1-.39-.38-.82-.72-1.32-.96-.69-.33-1.38-.29-2.03.09-.55.32-.97.79-1.29 1.34-.18.32-.31.65-.37 1.01-.08.48-.03.96.17 1.42.35.78.97 1.28 1.77 1.59.38.15.77.25 1.18.26.33.02.65.02.98.03h.02zm13.57-33.7s-.25 1.68 1.86 1.73 2.05-1.73 2.05-1.73M48.3 87.48s1.42.21.95 2.02c0 0-.11.68-.89 1.01m-.06 1.51s1.19.26 2.1 1.61c.6.89 1.68 1.64 2.36 2.06.29.18.61.34.93.48.61.26 1.84.85 1.79 1.36m-7.18-.47s1.04.31 1.35.47m32.36 0s-.05-.71.2-1.03.3-.9.3-.9.15-.7.87-.8 1.25.08 1.46.57.72.36 1 .95.32.82 0 1.21m-23 0s.63-.07.93-1.34 1.22-1.21 1.45-1.16 1.18.29.68 1.65c0 0-.15.44-.48.85"/></g></g></svg>