<svg xmlns="http://www.w3.org/2000/svg" id="Layer_1" viewBox="0 0 1000.84 1067.56"><defs><style>.cls-1{fill:none}.cls-2{clip-path:url(#clippath)}.cls-3{fill:#3175bb}</style><clipPath id="clippath"><path class="cls-1" d="M0 0H1000.84V1067.56H0z"/></clipPath></defs><g class="cls-2"><path class="cls-3" d="M517.16 1001.27c23.6-13.03 52.04-30.98 82.85-54.22V668.31l-82.85-55.11v388.08zm0-581.06l82.85 55.16V334.52c-27.58-1.29-55.2-2.02-82.85-2.25v87.94zm248.61-71.05c-27.53-3.54-55.16-6.41-82.89-8.83v190.18l82.89 55.18V349.16zm-82.88 374.32v151.59c27.87-27.71 55.94-59.76 82.89-96.21v-.24l-82.89-55.14z"/><path d="M765.77 778.86s.07-.09.11-.22l-.11-.04v.27z"/><path class="cls-3" d="M848.54 361.65v279.17l.24.13c36.14-74.86 65.3-162.22 81.71-263.82l-2.82-.56c-26.2-5.49-52.62-10.41-79.13-14.92"/><path class="cls-3" d="M600.05 475.42L600.05 668.36 682.89 723.47 682.89 530.53 600.05 475.42z"/><path class="cls-3" d="M765.77 585.69v192.92l.11.04c29.62-40.06 57.78-85.72 82.67-137.27v-.56l-82.78-55.14z"/><path d="M848.54 641.38c.11-.13.18-.31.24-.44l-.24-.11v.56z"/><path class="cls-3" d="M335.37 680.91c24.46-6.78 45.97-20.42 62.43-38.83-9.03-3.27-19.57-6.52-31.76-9.21-9.01 20.02-20.35 36.01-30.67 48.04M203.9 642.12c16.46 18.42 38.03 32.09 62.52 38.83-10.32-12.08-21.68-28.07-30.71-48.13a257.784 257.784 0 0 0-31.8 9.3m84.94-200.97c-9.01 9.9-19.55 23.84-28.33 41.46 8.87 1.18 18.3 2 28.33 2.36v-43.81zm85.55 169.13c14.95 3.51 27.69 7.7 38.08 11.81 9.74-16.28 16.1-34.7 17.93-54.56h-48.33c-.98 15.46-3.71 29.76-7.67 42.75m-108-180.06c-24.49 6.74-46.04 20.44-62.52 38.85 9.07 3.25 19.59 6.52 31.8 9.23 9.03-20.02 20.39-36.03 30.71-48.08m131.39 38.86c-16.44-18.39-37.97-32.07-62.43-38.81 10.32 12.05 21.71 28.07 30.69 48.04 12.19-2.71 22.73-5.98 31.74-9.23m-15.72 74.56h48.33c-1.82-19.84-8.16-38.3-17.93-54.56-10.39 4.09-23.11 8.27-38.08 11.79 3.96 13.01 6.69 27.29 7.67 42.77m-69.3 126.5c9.03-9.9 19.68-23.84 28.51-41.57-8.92-1.18-18.44-2-28.51-2.4v43.97zm-23.91-102.61h-45.22c1.05 13.86 3.76 26.58 7.56 38.19 11.57-1.78 24.13-2.96 37.65-3.45v-34.74zm23.91 34.76c13.57.47 26.22 1.65 37.83 3.43 3.78-11.59 6.52-24.31 7.54-38.17h-45.37v34.74zm28.61-119.68c-8.83-17.81-19.53-31.85-28.6-41.7v44.04c10.12-.33 19.68-1.16 28.6-2.34m16.76 61.03c-1.02-13.88-3.71-26.62-7.5-38.21-11.63 1.76-24.29 2.98-37.88 3.47v34.74h45.37zm-97.62 84.92c8.79 17.55 19.33 31.49 28.33 41.43v-43.81c-10.03.42-19.46 1.2-28.33 2.38m-33.15-127.68c-15.01-3.51-27.73-7.7-38.19-11.79-9.67 16.26-16.04 34.72-17.88 54.56h48.4c.98-15.48 3.71-29.76 7.67-42.77m61.49 8.01c-13.52-.47-26.09-1.69-37.65-3.45-3.8 11.59-6.52 24.31-7.56 38.19h45.22v-34.74zm-69.16 58.64h-48.4c1.85 19.86 8.18 38.28 17.88 54.56 10.45-4.11 23.17-8.3 38.19-11.85-3.96-12.94-6.69-27.25-7.67-42.7"/><path class="cls-3" d="M64.77 377.29c60.83 375.89 296.16 559.36 413.37 623.99V332.27c-138.54 1.29-276.57 16.12-410.5 44.39l-2.87.62zm236.05 24.24c84.96 0 154.08 69.1 154.08 154.06s-69.12 154.04-154.08 154.04-154.04-69.17-154.04-154.04 69.1-154.06 154.04-154.06"/><path class="cls-3" d="M927.39 89.91l-.31-.16C788.54 60.19 644.91 44.49 497.63 44.49S206.32 60.24 67.67 89.91l-.6.16c-9.79 2.42-17.04 11.25-17.04 21.82l.04 77.71c0 51.04 3.09 99.22 8.67 144.9 143.99-30.45 291.64-45.68 439.28-45.68s294.89 15.24 438.55 45.55c5.52-45.59 8.63-93.77 8.63-144.77l.02-77.71c0-10.83-7.65-19.88-17.84-21.97M830.6 282.25c-107.76-20.46-231.55-26.73-332.92-26.73h-.09c-101.37 0-225.19 6.27-332.9 26.73-4.07.82-7.67-2.89-5.43-7.21l70.88-156.49c.71-1.45 46.51-24.11 46.51-24.11 58.2-12.23 154.02-6.85 220.87 17.75h.24c66.86-24.6 162.65-29.98 220.85-17.75 0 0 45.77 22.66 46.51 24.11l70.84 156.49c2.29 4.31-1.29 8.03-5.36 7.21"/><path class="cls-3" d="M700.17 121.28l29.8 79.8c-69.44-9.54-126.97-5.2-211.91 22.62v7.47c80.27-3.02 181.77-7.5 263.84 10.14l-44.73-102.86-37.01-17.17zm-435.82 79.8l29.8-79.8-36.99 17.19-44.73 102.86c82.05-17.66 183.55-13.19 263.8-10.14v-7.47c-84.92-27.85-142.48-32.18-211.89-22.64"/></g></svg>